<svg xmlns="http://www.w3.org/2000/svg" viewBox="0 0 600 840" width="600" height="840">
<rect width="600" height="840" fill="#1b1b1e"/>
<g fill="#2a2a2f"><circle cx="12" cy="12" r="1.1"/><circle cx="12" cy="36" r="1.1"/><circle cx="12" cy="60" r="1.1"/><circle cx="12" cy="84" r="1.1"/><circle cx="12" cy="108" r="1.1"/><circle cx="12" cy="132" r="1.1"/><circle cx="12" cy="156" r="1.1"/><circle cx="12" cy="180" r="1.1"/><circle cx="12" cy="204" r="1.1"/><circle cx="12" cy="228" r="1.1"/><circle cx="12" cy="252" r="1.1"/><circle cx="12" cy="276" r="1.1"/><circle cx="12" cy="300" r="1.1"/><circle cx="12" cy="324" r="1.1"/><circle cx="12" cy="348" r="1.1"/><circle cx="12" cy="372" r="1.1"/><circle cx="12" cy="396" r="1.1"/><circle cx="12" cy="420" r="1.1"/><circle cx="12" cy="444" r="1.1"/><circle cx="12" cy="468" r="1.1"/><circle cx="12" cy="492" r="1.1"/><circle cx="12" cy="516" r="1.1"/><circle cx="12" cy="540" r="1.1"/><circle cx="12" cy="564" r="1.1"/><circle cx="12" cy="588" r="1.1"/><circle cx="12" cy="612" r="1.1"/><circle cx="12" cy="636" r="1.1"/><circle cx="12" cy="660" r="1.1"/><circle cx="12" cy="684" r="1.1"/><circle cx="12" cy="708" r="1.1"/><circle cx="12" cy="732" r="1.1"/><circle cx="12" cy="756" r="1.1"/><circle cx="12" cy="780" r="1.1"/><circle cx="12" cy="804" r="1.1"/><circle cx="12" cy="828" r="1.1"/><circle cx="36" cy="12" r="1.1"/><circle cx="36" cy="36" r="1.1"/><circle cx="36" cy="60" r="1.1"/><circle cx="36" cy="84" r="1.1"/><circle cx="36" cy="108" r="1.1"/><circle cx="36" cy="132" r="1.1"/><circle cx="36" cy="156" r="1.1"/><circle cx="36" cy="180" r="1.1"/><circle cx="36" cy="204" r="1.1"/><circle cx="36" cy="228" r="1.1"/><circle cx="36" cy="252" r="1.1"/><circle cx="36" cy="276" r="1.1"/><circle cx="36" cy="300" r="1.1"/><circle cx="36" cy="324" r="1.1"/><circle cx="36" cy="348" r="1.1"/><circle cx="36" cy="372" r="1.1"/><circle cx="36" cy="396" r="1.1"/><circle cx="36" cy="420" r="1.1"/><circle cx="36" cy="444" r="1.1"/><circle cx="36" cy="468" r="1.1"/><circle cx="36" cy="492" r="1.1"/><circle cx="36" cy="516" r="1.1"/><circle cx="36" cy="540" r="1.1"/><circle cx="36" cy="564" r="1.1"/><circle cx="36" cy="588" r="1.1"/><circle cx="36" cy="612" r="1.1"/><circle cx="36" cy="636" r="1.1"/><circle cx="36" cy="660" r="1.1"/><circle cx="36" cy="684" r="1.1"/><circle cx="36" cy="708" r="1.1"/><circle cx="36" cy="732" r="1.1"/><circle cx="36" cy="756" r="1.1"/><circle cx="36" cy="780" r="1.1"/><circle cx="36" cy="804" r="1.1"/><circle cx="36" cy="828" r="1.1"/><circle cx="60" cy="12" r="1.1"/><circle cx="60" cy="36" r="1.1"/><circle cx="60" cy="60" r="1.1"/><circle cx="60" cy="84" r="1.1"/><circle cx="60" cy="108" r="1.1"/><circle cx="60" cy="132" r="1.1"/><circle cx="60" cy="156" r="1.1"/><circle cx="60" cy="180" r="1.1"/><circle cx="60" cy="204" r="1.1"/><circle cx="60" cy="228" r="1.1"/><circle cx="60" cy="252" r="1.1"/><circle cx="60" cy="276" r="1.1"/><circle cx="60" cy="300" r="1.1"/><circle cx="60" cy="324" r="1.1"/><circle cx="60" cy="348" r="1.1"/><circle cx="60" cy="372" r="1.1"/><circle cx="60" cy="396" r="1.1"/><circle cx="60" cy="420" r="1.1"/><circle cx="60" cy="444" r="1.1"/><circle cx="60" cy="468" r="1.1"/><circle cx="60" cy="492" r="1.1"/><circle cx="60" cy="516" r="1.1"/><circle cx="60" cy="540" r="1.1"/><circle cx="60" cy="564" r="1.1"/><circle cx="60" cy="588" r="1.1"/><circle cx="60" cy="612" r="1.1"/><circle cx="60" cy="636" r="1.1"/><circle cx="60" cy="660" r="1.1"/><circle cx="60" cy="684" r="1.1"/><circle cx="60" cy="708" r="1.1"/><circle cx="60" cy="732" r="1.1"/><circle cx="60" cy="756" r="1.1"/><circle cx="60" cy="780" r="1.1"/><circle cx="60" cy="804" r="1.1"/><circle cx="60" cy="828" r="1.1"/><circle cx="84" cy="12" r="1.1"/><circle cx="84" cy="36" r="1.1"/><circle cx="84" cy="60" r="1.1"/><circle cx="84" cy="84" r="1.1"/><circle cx="84" cy="108" r="1.1"/><circle cx="84" cy="132" r="1.1"/><circle cx="84" cy="156" r="1.1"/><circle cx="84" cy="180" r="1.1"/><circle cx="84" cy="204" r="1.1"/><circle cx="84" cy="228" r="1.1"/><circle cx="84" cy="252" r="1.1"/><circle cx="84" cy="276" r="1.1"/><circle cx="84" cy="300" r="1.1"/><circle cx="84" cy="324" r="1.1"/><circle cx="84" cy="348" r="1.1"/><circle cx="84" cy="372" r="1.1"/><circle cx="84" cy="396" r="1.1"/><circle cx="84" cy="420" r="1.1"/><circle cx="84" cy="444" r="1.1"/><circle cx="84" cy="468" r="1.1"/><circle cx="84" cy="492" r="1.1"/><circle cx="84" cy="516" r="1.1"/><circle cx="84" cy="540" r="1.1"/><circle cx="84" cy="564" r="1.1"/><circle cx="84" cy="588" r="1.1"/><circle cx="84" cy="612" r="1.1"/><circle cx="84" cy="636" r="1.1"/><circle cx="84" cy="660" r="1.1"/><circle cx="84" cy="684" r="1.1"/><circle cx="84" cy="708" r="1.1"/><circle cx="84" cy="732" r="1.1"/><circle cx="84" cy="756" r="1.1"/><circle cx="84" cy="780" r="1.1"/><circle cx="84" cy="804" r="1.1"/><circle cx="84" cy="828" r="1.1"/><circle cx="108" cy="12" r="1.1"/><circle cx="108" cy="36" r="1.1"/><circle cx="108" cy="60" r="1.1"/><circle cx="108" cy="84" r="1.1"/><circle cx="108" cy="108" r="1.1"/><circle cx="108" cy="132" r="1.1"/><circle cx="108" cy="156" r="1.1"/><circle cx="108" cy="180" r="1.1"/><circle cx="108" cy="204" r="1.1"/><circle cx="108" cy="228" r="1.1"/><circle cx="108" cy="252" r="1.1"/><circle cx="108" cy="276" r="1.1"/><circle cx="108" cy="300" r="1.1"/><circle cx="108" cy="324" r="1.1"/><circle cx="108" cy="348" r="1.1"/><circle cx="108" cy="372" r="1.1"/><circle cx="108" cy="396" r="1.1"/><circle cx="108" cy="420" r="1.1"/><circle cx="108" cy="444" r="1.1"/><circle cx="108" cy="468" r="1.1"/><circle cx="108" cy="492" r="1.1"/><circle cx="108" cy="516" r="1.1"/><circle cx="108" cy="540" r="1.1"/><circle cx="108" cy="564" r="1.1"/><circle cx="108" cy="588" r="1.1"/><circle cx="108" cy="612" r="1.1"/><circle cx="108" cy="636" r="1.1"/><circle cx="108" cy="660" r="1.1"/><circle cx="108" cy="684" r="1.1"/><circle cx="108" cy="708" r="1.1"/><circle cx="108" cy="732" r="1.1"/><circle cx="108" cy="756" r="1.1"/><circle cx="108" cy="780" r="1.1"/><circle cx="108" cy="804" r="1.1"/><circle cx="108" cy="828" r="1.1"/><circle cx="132" cy="12" r="1.1"/><circle cx="132" cy="36" r="1.1"/><circle cx="132" cy="60" r="1.1"/><circle cx="132" cy="84" r="1.1"/><circle cx="132" cy="108" r="1.1"/><circle cx="132" cy="132" r="1.1"/><circle cx="132" cy="156" r="1.1"/><circle cx="132" cy="180" r="1.1"/><circle cx="132" cy="204" r="1.1"/><circle cx="132" cy="228" r="1.1"/><circle cx="132" cy="252" r="1.1"/><circle cx="132" cy="276" r="1.1"/><circle cx="132" cy="300" r="1.1"/><circle cx="132" cy="324" r="1.1"/><circle cx="132" cy="348" r="1.1"/><circle cx="132" cy="372" r="1.1"/><circle cx="132" cy="396" r="1.1"/><circle cx="132" cy="420" r="1.1"/><circle cx="132" cy="444" r="1.1"/><circle cx="132" cy="468" r="1.1"/><circle cx="132" cy="492" r="1.1"/><circle cx="132" cy="516" r="1.1"/><circle cx="132" cy="540" r="1.1"/><circle cx="132" cy="564" r="1.1"/><circle cx="132" cy="588" r="1.1"/><circle cx="132" cy="612" r="1.1"/><circle cx="132" cy="636" r="1.1"/><circle cx="132" cy="660" r="1.1"/><circle cx="132" cy="684" r="1.1"/><circle cx="132" cy="708" r="1.1"/><circle cx="132" cy="732" r="1.1"/><circle cx="132" cy="756" r="1.1"/><circle cx="132" cy="780" r="1.1"/><circle cx="132" cy="804" r="1.1"/><circle cx="132" cy="828" r="1.1"/><circle cx="156" cy="12" r="1.1"/><circle cx="156" cy="36" r="1.1"/><circle cx="156" cy="60" r="1.1"/><circle cx="156" cy="84" r="1.1"/><circle cx="156" cy="108" r="1.1"/><circle cx="156" cy="132" r="1.1"/><circle cx="156" cy="156" r="1.1"/><circle cx="156" cy="180" r="1.1"/><circle cx="156" cy="204" r="1.1"/><circle cx="156" cy="228" r="1.1"/><circle cx="156" cy="252" r="1.1"/><circle cx="156" cy="276" r="1.1"/><circle cx="156" cy="300" r="1.1"/><circle cx="156" cy="324" r="1.1"/><circle cx="156" cy="348" r="1.1"/><circle cx="156" cy="372" r="1.1"/><circle cx="156" cy="396" r="1.1"/><circle cx="156" cy="420" r="1.1"/><circle cx="156" cy="444" r="1.1"/><circle cx="156" cy="468" r="1.1"/><circle cx="156" cy="492" r="1.1"/><circle cx="156" cy="516" r="1.1"/><circle cx="156" cy="540" r="1.1"/><circle cx="156" cy="564" r="1.1"/><circle cx="156" cy="588" r="1.1"/><circle cx="156" cy="612" r="1.1"/><circle cx="156" cy="636" r="1.1"/><circle cx="156" cy="660" r="1.1"/><circle cx="156" cy="684" r="1.1"/><circle cx="156" cy="708" r="1.1"/><circle cx="156" cy="732" r="1.1"/><circle cx="156" cy="756" r="1.1"/><circle cx="156" cy="780" r="1.1"/><circle cx="156" cy="804" r="1.1"/><circle cx="156" cy="828" r="1.1"/><circle cx="180" cy="12" r="1.1"/><circle cx="180" cy="36" r="1.1"/><circle cx="180" cy="60" r="1.1"/><circle cx="180" cy="84" r="1.1"/><circle cx="180" cy="108" r="1.1"/><circle cx="180" cy="132" r="1.1"/><circle cx="180" cy="156" r="1.1"/><circle cx="180" cy="180" r="1.1"/><circle cx="180" cy="204" r="1.1"/><circle cx="180" cy="228" r="1.1"/><circle cx="180" cy="252" r="1.1"/><circle cx="180" cy="276" r="1.1"/><circle cx="180" cy="300" r="1.1"/><circle cx="180" cy="324" r="1.1"/><circle cx="180" cy="348" r="1.1"/><circle cx="180" cy="372" r="1.1"/><circle cx="180" cy="396" r="1.1"/><circle cx="180" cy="420" r="1.1"/><circle cx="180" cy="444" r="1.1"/><circle cx="180" cy="468" r="1.1"/><circle cx="180" cy="492" r="1.1"/><circle cx="180" cy="516" r="1.1"/><circle cx="180" cy="540" r="1.1"/><circle cx="180" cy="564" r="1.1"/><circle cx="180" cy="588" r="1.1"/><circle cx="180" cy="612" r="1.1"/><circle cx="180" cy="636" r="1.1"/><circle cx="180" cy="660" r="1.1"/><circle cx="180" cy="684" r="1.1"/><circle cx="180" cy="708" r="1.1"/><circle cx="180" cy="732" r="1.1"/><circle cx="180" cy="756" r="1.1"/><circle cx="180" cy="780" r="1.1"/><circle cx="180" cy="804" r="1.1"/><circle cx="180" cy="828" r="1.1"/><circle cx="204" cy="12" r="1.1"/><circle cx="204" cy="36" r="1.1"/><circle cx="204" cy="60" r="1.1"/><circle cx="204" cy="84" r="1.1"/><circle cx="204" cy="108" r="1.1"/><circle cx="204" cy="132" r="1.1"/><circle cx="204" cy="156" r="1.1"/><circle cx="204" cy="180" r="1.1"/><circle cx="204" cy="204" r="1.1"/><circle cx="204" cy="228" r="1.1"/><circle cx="204" cy="252" r="1.1"/><circle cx="204" cy="276" r="1.1"/><circle cx="204" cy="300" r="1.1"/><circle cx="204" cy="324" r="1.1"/><circle cx="204" cy="348" r="1.1"/><circle cx="204" cy="372" r="1.1"/><circle cx="204" cy="396" r="1.1"/><circle cx="204" cy="420" r="1.1"/><circle cx="204" cy="444" r="1.1"/><circle cx="204" cy="468" r="1.1"/><circle cx="204" cy="492" r="1.1"/><circle cx="204" cy="516" r="1.1"/><circle cx="204" cy="540" r="1.1"/><circle cx="204" cy="564" r="1.1"/><circle cx="204" cy="588" r="1.1"/><circle cx="204" cy="612" r="1.1"/><circle cx="204" cy="636" r="1.1"/><circle cx="204" cy="660" r="1.1"/><circle cx="204" cy="684" r="1.1"/><circle cx="204" cy="708" r="1.1"/><circle cx="204" cy="732" r="1.1"/><circle cx="204" cy="756" r="1.1"/><circle cx="204" cy="780" r="1.1"/><circle cx="204" cy="804" r="1.1"/><circle cx="204" cy="828" r="1.1"/><circle cx="228" cy="12" r="1.1"/><circle cx="228" cy="36" r="1.1"/><circle cx="228" cy="60" r="1.1"/><circle cx="228" cy="84" r="1.1"/><circle cx="228" cy="108" r="1.1"/><circle cx="228" cy="132" r="1.1"/><circle cx="228" cy="156" r="1.1"/><circle cx="228" cy="180" r="1.1"/><circle cx="228" cy="204" r="1.1"/><circle cx="228" cy="228" r="1.1"/><circle cx="228" cy="252" r="1.1"/><circle cx="228" cy="276" r="1.1"/><circle cx="228" cy="300" r="1.1"/><circle cx="228" cy="324" r="1.1"/><circle cx="228" cy="348" r="1.1"/><circle cx="228" cy="372" r="1.1"/><circle cx="228" cy="396" r="1.1"/><circle cx="228" cy="420" r="1.1"/><circle cx="228" cy="444" r="1.1"/><circle cx="228" cy="468" r="1.1"/><circle cx="228" cy="492" r="1.1"/><circle cx="228" cy="516" r="1.1"/><circle cx="228" cy="540" r="1.1"/><circle cx="228" cy="564" r="1.1"/><circle cx="228" cy="588" r="1.1"/><circle cx="228" cy="612" r="1.1"/><circle cx="228" cy="636" r="1.1"/><circle cx="228" cy="660" r="1.1"/><circle cx="228" cy="684" r="1.1"/><circle cx="228" cy="708" r="1.1"/><circle cx="228" cy="732" r="1.1"/><circle cx="228" cy="756" r="1.1"/><circle cx="228" cy="780" r="1.1"/><circle cx="228" cy="804" r="1.1"/><circle cx="228" cy="828" r="1.1"/><circle cx="252" cy="12" r="1.1"/><circle cx="252" cy="36" r="1.1"/><circle cx="252" cy="60" r="1.1"/><circle cx="252" cy="84" r="1.1"/><circle cx="252" cy="108" r="1.1"/><circle cx="252" cy="132" r="1.1"/><circle cx="252" cy="156" r="1.1"/><circle cx="252" cy="180" r="1.1"/><circle cx="252" cy="204" r="1.1"/><circle cx="252" cy="228" r="1.1"/><circle cx="252" cy="252" r="1.1"/><circle cx="252" cy="276" r="1.1"/><circle cx="252" cy="300" r="1.1"/><circle cx="252" cy="324" r="1.1"/><circle cx="252" cy="348" r="1.1"/><circle cx="252" cy="372" r="1.1"/><circle cx="252" cy="396" r="1.1"/><circle cx="252" cy="420" r="1.1"/><circle cx="252" cy="444" r="1.1"/><circle cx="252" cy="468" r="1.1"/><circle cx="252" cy="492" r="1.1"/><circle cx="252" cy="516" r="1.1"/><circle cx="252" cy="540" r="1.1"/><circle cx="252" cy="564" r="1.1"/><circle cx="252" cy="588" r="1.1"/><circle cx="252" cy="612" r="1.1"/><circle cx="252" cy="636" r="1.1"/><circle cx="252" cy="660" r="1.1"/><circle cx="252" cy="684" r="1.1"/><circle cx="252" cy="708" r="1.1"/><circle cx="252" cy="732" r="1.1"/><circle cx="252" cy="756" r="1.1"/><circle cx="252" cy="780" r="1.1"/><circle cx="252" cy="804" r="1.1"/><circle cx="252" cy="828" r="1.1"/><circle cx="276" cy="12" r="1.1"/><circle cx="276" cy="36" r="1.1"/><circle cx="276" cy="60" r="1.1"/><circle cx="276" cy="84" r="1.1"/><circle cx="276" cy="108" r="1.1"/><circle cx="276" cy="132" r="1.1"/><circle cx="276" cy="156" r="1.1"/><circle cx="276" cy="180" r="1.1"/><circle cx="276" cy="204" r="1.1"/><circle cx="276" cy="228" r="1.1"/><circle cx="276" cy="252" r="1.1"/><circle cx="276" cy="276" r="1.1"/><circle cx="276" cy="300" r="1.1"/><circle cx="276" cy="324" r="1.1"/><circle cx="276" cy="348" r="1.1"/><circle cx="276" cy="372" r="1.1"/><circle cx="276" cy="396" r="1.1"/><circle cx="276" cy="420" r="1.1"/><circle cx="276" cy="444" r="1.1"/><circle cx="276" cy="468" r="1.1"/><circle cx="276" cy="492" r="1.1"/><circle cx="276" cy="516" r="1.1"/><circle cx="276" cy="540" r="1.1"/><circle cx="276" cy="564" r="1.1"/><circle cx="276" cy="588" r="1.1"/><circle cx="276" cy="612" r="1.1"/><circle cx="276" cy="636" r="1.1"/><circle cx="276" cy="660" r="1.1"/><circle cx="276" cy="684" r="1.1"/><circle cx="276" cy="708" r="1.1"/><circle cx="276" cy="732" r="1.1"/><circle cx="276" cy="756" r="1.1"/><circle cx="276" cy="780" r="1.1"/><circle cx="276" cy="804" r="1.1"/><circle cx="276" cy="828" r="1.1"/><circle cx="300" cy="12" r="1.1"/><circle cx="300" cy="36" r="1.1"/><circle cx="300" cy="60" r="1.1"/><circle cx="300" cy="84" r="1.1"/><circle cx="300" cy="108" r="1.1"/><circle cx="300" cy="132" r="1.1"/><circle cx="300" cy="156" r="1.1"/><circle cx="300" cy="180" r="1.1"/><circle cx="300" cy="204" r="1.1"/><circle cx="300" cy="228" r="1.1"/><circle cx="300" cy="252" r="1.1"/><circle cx="300" cy="276" r="1.1"/><circle cx="300" cy="300" r="1.1"/><circle cx="300" cy="324" r="1.1"/><circle cx="300" cy="348" r="1.1"/><circle cx="300" cy="372" r="1.1"/><circle cx="300" cy="396" r="1.1"/><circle cx="300" cy="420" r="1.1"/><circle cx="300" cy="444" r="1.1"/><circle cx="300" cy="468" r="1.1"/><circle cx="300" cy="492" r="1.1"/><circle cx="300" cy="516" r="1.1"/><circle cx="300" cy="540" r="1.1"/><circle cx="300" cy="564" r="1.1"/><circle cx="300" cy="588" r="1.1"/><circle cx="300" cy="612" r="1.1"/><circle cx="300" cy="636" r="1.1"/><circle cx="300" cy="660" r="1.1"/><circle cx="300" cy="684" r="1.1"/><circle cx="300" cy="708" r="1.1"/><circle cx="300" cy="732" r="1.1"/><circle cx="300" cy="756" r="1.1"/><circle cx="300" cy="780" r="1.1"/><circle cx="300" cy="804" r="1.1"/><circle cx="300" cy="828" r="1.1"/><circle cx="324" cy="12" r="1.1"/><circle cx="324" cy="36" r="1.1"/><circle cx="324" cy="60" r="1.1"/><circle cx="324" cy="84" r="1.1"/><circle cx="324" cy="108" r="1.1"/><circle cx="324" cy="132" r="1.1"/><circle cx="324" cy="156" r="1.1"/><circle cx="324" cy="180" r="1.1"/><circle cx="324" cy="204" r="1.1"/><circle cx="324" cy="228" r="1.1"/><circle cx="324" cy="252" r="1.1"/><circle cx="324" cy="276" r="1.1"/><circle cx="324" cy="300" r="1.1"/><circle cx="324" cy="324" r="1.1"/><circle cx="324" cy="348" r="1.1"/><circle cx="324" cy="372" r="1.1"/><circle cx="324" cy="396" r="1.1"/><circle cx="324" cy="420" r="1.1"/><circle cx="324" cy="444" r="1.1"/><circle cx="324" cy="468" r="1.1"/><circle cx="324" cy="492" r="1.1"/><circle cx="324" cy="516" r="1.1"/><circle cx="324" cy="540" r="1.1"/><circle cx="324" cy="564" r="1.1"/><circle cx="324" cy="588" r="1.1"/><circle cx="324" cy="612" r="1.1"/><circle cx="324" cy="636" r="1.1"/><circle cx="324" cy="660" r="1.1"/><circle cx="324" cy="684" r="1.1"/><circle cx="324" cy="708" r="1.1"/><circle cx="324" cy="732" r="1.1"/><circle cx="324" cy="756" r="1.1"/><circle cx="324" cy="780" r="1.1"/><circle cx="324" cy="804" r="1.1"/><circle cx="324" cy="828" r="1.1"/><circle cx="348" cy="12" r="1.1"/><circle cx="348" cy="36" r="1.1"/><circle cx="348" cy="60" r="1.1"/><circle cx="348" cy="84" r="1.1"/><circle cx="348" cy="108" r="1.1"/><circle cx="348" cy="132" r="1.1"/><circle cx="348" cy="156" r="1.1"/><circle cx="348" cy="180" r="1.1"/><circle cx="348" cy="204" r="1.1"/><circle cx="348" cy="228" r="1.1"/><circle cx="348" cy="252" r="1.1"/><circle cx="348" cy="276" r="1.1"/><circle cx="348" cy="300" r="1.1"/><circle cx="348" cy="324" r="1.1"/><circle cx="348" cy="348" r="1.1"/><circle cx="348" cy="372" r="1.1"/><circle cx="348" cy="396" r="1.1"/><circle cx="348" cy="420" r="1.1"/><circle cx="348" cy="444" r="1.1"/><circle cx="348" cy="468" r="1.1"/><circle cx="348" cy="492" r="1.1"/><circle cx="348" cy="516" r="1.1"/><circle cx="348" cy="540" r="1.1"/><circle cx="348" cy="564" r="1.1"/><circle cx="348" cy="588" r="1.1"/><circle cx="348" cy="612" r="1.1"/><circle cx="348" cy="636" r="1.1"/><circle cx="348" cy="660" r="1.1"/><circle cx="348" cy="684" r="1.1"/><circle cx="348" cy="708" r="1.1"/><circle cx="348" cy="732" r="1.1"/><circle cx="348" cy="756" r="1.1"/><circle cx="348" cy="780" r="1.1"/><circle cx="348" cy="804" r="1.1"/><circle cx="348" cy="828" r="1.1"/><circle cx="372" cy="12" r="1.1"/><circle cx="372" cy="36" r="1.1"/><circle cx="372" cy="60" r="1.1"/><circle cx="372" cy="84" r="1.1"/><circle cx="372" cy="108" r="1.1"/><circle cx="372" cy="132" r="1.1"/><circle cx="372" cy="156" r="1.1"/><circle cx="372" cy="180" r="1.1"/><circle cx="372" cy="204" r="1.1"/><circle cx="372" cy="228" r="1.1"/><circle cx="372" cy="252" r="1.1"/><circle cx="372" cy="276" r="1.1"/><circle cx="372" cy="300" r="1.1"/><circle cx="372" cy="324" r="1.1"/><circle cx="372" cy="348" r="1.1"/><circle cx="372" cy="372" r="1.1"/><circle cx="372" cy="396" r="1.1"/><circle cx="372" cy="420" r="1.1"/><circle cx="372" cy="444" r="1.1"/><circle cx="372" cy="468" r="1.1"/><circle cx="372" cy="492" r="1.1"/><circle cx="372" cy="516" r="1.1"/><circle cx="372" cy="540" r="1.1"/><circle cx="372" cy="564" r="1.1"/><circle cx="372" cy="588" r="1.1"/><circle cx="372" cy="612" r="1.1"/><circle cx="372" cy="636" r="1.1"/><circle cx="372" cy="660" r="1.1"/><circle cx="372" cy="684" r="1.1"/><circle cx="372" cy="708" r="1.1"/><circle cx="372" cy="732" r="1.1"/><circle cx="372" cy="756" r="1.1"/><circle cx="372" cy="780" r="1.1"/><circle cx="372" cy="804" r="1.1"/><circle cx="372" cy="828" r="1.1"/><circle cx="396" cy="12" r="1.1"/><circle cx="396" cy="36" r="1.1"/><circle cx="396" cy="60" r="1.1"/><circle cx="396" cy="84" r="1.1"/><circle cx="396" cy="108" r="1.1"/><circle cx="396" cy="132" r="1.1"/><circle cx="396" cy="156" r="1.1"/><circle cx="396" cy="180" r="1.1"/><circle cx="396" cy="204" r="1.1"/><circle cx="396" cy="228" r="1.1"/><circle cx="396" cy="252" r="1.1"/><circle cx="396" cy="276" r="1.1"/><circle cx="396" cy="300" r="1.1"/><circle cx="396" cy="324" r="1.1"/><circle cx="396" cy="348" r="1.1"/><circle cx="396" cy="372" r="1.1"/><circle cx="396" cy="396" r="1.1"/><circle cx="396" cy="420" r="1.1"/><circle cx="396" cy="444" r="1.1"/><circle cx="396" cy="468" r="1.1"/><circle cx="396" cy="492" r="1.1"/><circle cx="396" cy="516" r="1.1"/><circle cx="396" cy="540" r="1.1"/><circle cx="396" cy="564" r="1.1"/><circle cx="396" cy="588" r="1.1"/><circle cx="396" cy="612" r="1.1"/><circle cx="396" cy="636" r="1.1"/><circle cx="396" cy="660" r="1.1"/><circle cx="396" cy="684" r="1.1"/><circle cx="396" cy="708" r="1.1"/><circle cx="396" cy="732" r="1.1"/><circle cx="396" cy="756" r="1.1"/><circle cx="396" cy="780" r="1.1"/><circle cx="396" cy="804" r="1.1"/><circle cx="396" cy="828" r="1.1"/><circle cx="420" cy="12" r="1.1"/><circle cx="420" cy="36" r="1.1"/><circle cx="420" cy="60" r="1.1"/><circle cx="420" cy="84" r="1.1"/><circle cx="420" cy="108" r="1.1"/><circle cx="420" cy="132" r="1.1"/><circle cx="420" cy="156" r="1.1"/><circle cx="420" cy="180" r="1.1"/><circle cx="420" cy="204" r="1.1"/><circle cx="420" cy="228" r="1.1"/><circle cx="420" cy="252" r="1.1"/><circle cx="420" cy="276" r="1.1"/><circle cx="420" cy="300" r="1.1"/><circle cx="420" cy="324" r="1.1"/><circle cx="420" cy="348" r="1.1"/><circle cx="420" cy="372" r="1.1"/><circle cx="420" cy="396" r="1.1"/><circle cx="420" cy="420" r="1.1"/><circle cx="420" cy="444" r="1.1"/><circle cx="420" cy="468" r="1.1"/><circle cx="420" cy="492" r="1.1"/><circle cx="420" cy="516" r="1.1"/><circle cx="420" cy="540" r="1.1"/><circle cx="420" cy="564" r="1.1"/><circle cx="420" cy="588" r="1.1"/><circle cx="420" cy="612" r="1.1"/><circle cx="420" cy="636" r="1.1"/><circle cx="420" cy="660" r="1.1"/><circle cx="420" cy="684" r="1.1"/><circle cx="420" cy="708" r="1.1"/><circle cx="420" cy="732" r="1.1"/><circle cx="420" cy="756" r="1.1"/><circle cx="420" cy="780" r="1.1"/><circle cx="420" cy="804" r="1.1"/><circle cx="420" cy="828" r="1.1"/><circle cx="444" cy="12" r="1.1"/><circle cx="444" cy="36" r="1.1"/><circle cx="444" cy="60" r="1.1"/><circle cx="444" cy="84" r="1.1"/><circle cx="444" cy="108" r="1.1"/><circle cx="444" cy="132" r="1.1"/><circle cx="444" cy="156" r="1.1"/><circle cx="444" cy="180" r="1.1"/><circle cx="444" cy="204" r="1.1"/><circle cx="444" cy="228" r="1.1"/><circle cx="444" cy="252" r="1.1"/><circle cx="444" cy="276" r="1.1"/><circle cx="444" cy="300" r="1.1"/><circle cx="444" cy="324" r="1.1"/><circle cx="444" cy="348" r="1.1"/><circle cx="444" cy="372" r="1.1"/><circle cx="444" cy="396" r="1.1"/><circle cx="444" cy="420" r="1.1"/><circle cx="444" cy="444" r="1.1"/><circle cx="444" cy="468" r="1.1"/><circle cx="444" cy="492" r="1.1"/><circle cx="444" cy="516" r="1.1"/><circle cx="444" cy="540" r="1.1"/><circle cx="444" cy="564" r="1.1"/><circle cx="444" cy="588" r="1.1"/><circle cx="444" cy="612" r="1.1"/><circle cx="444" cy="636" r="1.1"/><circle cx="444" cy="660" r="1.1"/><circle cx="444" cy="684" r="1.1"/><circle cx="444" cy="708" r="1.1"/><circle cx="444" cy="732" r="1.1"/><circle cx="444" cy="756" r="1.1"/><circle cx="444" cy="780" r="1.1"/><circle cx="444" cy="804" r="1.1"/><circle cx="444" cy="828" r="1.1"/><circle cx="468" cy="12" r="1.1"/><circle cx="468" cy="36" r="1.1"/><circle cx="468" cy="60" r="1.1"/><circle cx="468" cy="84" r="1.1"/><circle cx="468" cy="108" r="1.1"/><circle cx="468" cy="132" r="1.1"/><circle cx="468" cy="156" r="1.1"/><circle cx="468" cy="180" r="1.1"/><circle cx="468" cy="204" r="1.1"/><circle cx="468" cy="228" r="1.1"/><circle cx="468" cy="252" r="1.1"/><circle cx="468" cy="276" r="1.1"/><circle cx="468" cy="300" r="1.1"/><circle cx="468" cy="324" r="1.1"/><circle cx="468" cy="348" r="1.1"/><circle cx="468" cy="372" r="1.1"/><circle cx="468" cy="396" r="1.1"/><circle cx="468" cy="420" r="1.1"/><circle cx="468" cy="444" r="1.1"/><circle cx="468" cy="468" r="1.1"/><circle cx="468" cy="492" r="1.1"/><circle cx="468" cy="516" r="1.1"/><circle cx="468" cy="540" r="1.1"/><circle cx="468" cy="564" r="1.1"/><circle cx="468" cy="588" r="1.1"/><circle cx="468" cy="612" r="1.1"/><circle cx="468" cy="636" r="1.1"/><circle cx="468" cy="660" r="1.1"/><circle cx="468" cy="684" r="1.1"/><circle cx="468" cy="708" r="1.1"/><circle cx="468" cy="732" r="1.1"/><circle cx="468" cy="756" r="1.1"/><circle cx="468" cy="780" r="1.1"/><circle cx="468" cy="804" r="1.1"/><circle cx="468" cy="828" r="1.1"/><circle cx="492" cy="12" r="1.1"/><circle cx="492" cy="36" r="1.1"/><circle cx="492" cy="60" r="1.1"/><circle cx="492" cy="84" r="1.1"/><circle cx="492" cy="108" r="1.1"/><circle cx="492" cy="132" r="1.1"/><circle cx="492" cy="156" r="1.1"/><circle cx="492" cy="180" r="1.1"/><circle cx="492" cy="204" r="1.1"/><circle cx="492" cy="228" r="1.1"/><circle cx="492" cy="252" r="1.1"/><circle cx="492" cy="276" r="1.1"/><circle cx="492" cy="300" r="1.1"/><circle cx="492" cy="324" r="1.1"/><circle cx="492" cy="348" r="1.1"/><circle cx="492" cy="372" r="1.1"/><circle cx="492" cy="396" r="1.1"/><circle cx="492" cy="420" r="1.1"/><circle cx="492" cy="444" r="1.1"/><circle cx="492" cy="468" r="1.1"/><circle cx="492" cy="492" r="1.1"/><circle cx="492" cy="516" r="1.1"/><circle cx="492" cy="540" r="1.1"/><circle cx="492" cy="564" r="1.1"/><circle cx="492" cy="588" r="1.1"/><circle cx="492" cy="612" r="1.1"/><circle cx="492" cy="636" r="1.1"/><circle cx="492" cy="660" r="1.1"/><circle cx="492" cy="684" r="1.1"/><circle cx="492" cy="708" r="1.1"/><circle cx="492" cy="732" r="1.1"/><circle cx="492" cy="756" r="1.1"/><circle cx="492" cy="780" r="1.1"/><circle cx="492" cy="804" r="1.1"/><circle cx="492" cy="828" r="1.1"/><circle cx="516" cy="12" r="1.1"/><circle cx="516" cy="36" r="1.1"/><circle cx="516" cy="60" r="1.1"/><circle cx="516" cy="84" r="1.1"/><circle cx="516" cy="108" r="1.1"/><circle cx="516" cy="132" r="1.1"/><circle cx="516" cy="156" r="1.1"/><circle cx="516" cy="180" r="1.1"/><circle cx="516" cy="204" r="1.1"/><circle cx="516" cy="228" r="1.1"/><circle cx="516" cy="252" r="1.1"/><circle cx="516" cy="276" r="1.1"/><circle cx="516" cy="300" r="1.1"/><circle cx="516" cy="324" r="1.1"/><circle cx="516" cy="348" r="1.1"/><circle cx="516" cy="372" r="1.1"/><circle cx="516" cy="396" r="1.1"/><circle cx="516" cy="420" r="1.1"/><circle cx="516" cy="444" r="1.1"/><circle cx="516" cy="468" r="1.1"/><circle cx="516" cy="492" r="1.1"/><circle cx="516" cy="516" r="1.1"/><circle cx="516" cy="540" r="1.1"/><circle cx="516" cy="564" r="1.1"/><circle cx="516" cy="588" r="1.1"/><circle cx="516" cy="612" r="1.1"/><circle cx="516" cy="636" r="1.1"/><circle cx="516" cy="660" r="1.1"/><circle cx="516" cy="684" r="1.1"/><circle cx="516" cy="708" r="1.1"/><circle cx="516" cy="732" r="1.1"/><circle cx="516" cy="756" r="1.1"/><circle cx="516" cy="780" r="1.1"/><circle cx="516" cy="804" r="1.1"/><circle cx="516" cy="828" r="1.1"/><circle cx="540" cy="12" r="1.1"/><circle cx="540" cy="36" r="1.1"/><circle cx="540" cy="60" r="1.1"/><circle cx="540" cy="84" r="1.1"/><circle cx="540" cy="108" r="1.1"/><circle cx="540" cy="132" r="1.1"/><circle cx="540" cy="156" r="1.1"/><circle cx="540" cy="180" r="1.1"/><circle cx="540" cy="204" r="1.1"/><circle cx="540" cy="228" r="1.1"/><circle cx="540" cy="252" r="1.1"/><circle cx="540" cy="276" r="1.1"/><circle cx="540" cy="300" r="1.1"/><circle cx="540" cy="324" r="1.1"/><circle cx="540" cy="348" r="1.1"/><circle cx="540" cy="372" r="1.1"/><circle cx="540" cy="396" r="1.1"/><circle cx="540" cy="420" r="1.1"/><circle cx="540" cy="444" r="1.1"/><circle cx="540" cy="468" r="1.1"/><circle cx="540" cy="492" r="1.1"/><circle cx="540" cy="516" r="1.1"/><circle cx="540" cy="540" r="1.1"/><circle cx="540" cy="564" r="1.1"/><circle cx="540" cy="588" r="1.1"/><circle cx="540" cy="612" r="1.1"/><circle cx="540" cy="636" r="1.1"/><circle cx="540" cy="660" r="1.1"/><circle cx="540" cy="684" r="1.1"/><circle cx="540" cy="708" r="1.1"/><circle cx="540" cy="732" r="1.1"/><circle cx="540" cy="756" r="1.1"/><circle cx="540" cy="780" r="1.1"/><circle cx="540" cy="804" r="1.1"/><circle cx="540" cy="828" r="1.1"/><circle cx="564" cy="12" r="1.1"/><circle cx="564" cy="36" r="1.1"/><circle cx="564" cy="60" r="1.1"/><circle cx="564" cy="84" r="1.1"/><circle cx="564" cy="108" r="1.1"/><circle cx="564" cy="132" r="1.1"/><circle cx="564" cy="156" r="1.1"/><circle cx="564" cy="180" r="1.1"/><circle cx="564" cy="204" r="1.1"/><circle cx="564" cy="228" r="1.1"/><circle cx="564" cy="252" r="1.1"/><circle cx="564" cy="276" r="1.1"/><circle cx="564" cy="300" r="1.1"/><circle cx="564" cy="324" r="1.1"/><circle cx="564" cy="348" r="1.1"/><circle cx="564" cy="372" r="1.1"/><circle cx="564" cy="396" r="1.1"/><circle cx="564" cy="420" r="1.1"/><circle cx="564" cy="444" r="1.1"/><circle cx="564" cy="468" r="1.1"/><circle cx="564" cy="492" r="1.1"/><circle cx="564" cy="516" r="1.1"/><circle cx="564" cy="540" r="1.1"/><circle cx="564" cy="564" r="1.1"/><circle cx="564" cy="588" r="1.1"/><circle cx="564" cy="612" r="1.1"/><circle cx="564" cy="636" r="1.1"/><circle cx="564" cy="660" r="1.1"/><circle cx="564" cy="684" r="1.1"/><circle cx="564" cy="708" r="1.1"/><circle cx="564" cy="732" r="1.1"/><circle cx="564" cy="756" r="1.1"/><circle cx="564" cy="780" r="1.1"/><circle cx="564" cy="804" r="1.1"/><circle cx="564" cy="828" r="1.1"/><circle cx="588" cy="12" r="1.1"/><circle cx="588" cy="36" r="1.1"/><circle cx="588" cy="60" r="1.1"/><circle cx="588" cy="84" r="1.1"/><circle cx="588" cy="108" r="1.1"/><circle cx="588" cy="132" r="1.1"/><circle cx="588" cy="156" r="1.1"/><circle cx="588" cy="180" r="1.1"/><circle cx="588" cy="204" r="1.1"/><circle cx="588" cy="228" r="1.1"/><circle cx="588" cy="252" r="1.1"/><circle cx="588" cy="276" r="1.1"/><circle cx="588" cy="300" r="1.1"/><circle cx="588" cy="324" r="1.1"/><circle cx="588" cy="348" r="1.1"/><circle cx="588" cy="372" r="1.1"/><circle cx="588" cy="396" r="1.1"/><circle cx="588" cy="420" r="1.1"/><circle cx="588" cy="444" r="1.1"/><circle cx="588" cy="468" r="1.1"/><circle cx="588" cy="492" r="1.1"/><circle cx="588" cy="516" r="1.1"/><circle cx="588" cy="540" r="1.1"/><circle cx="588" cy="564" r="1.1"/><circle cx="588" cy="588" r="1.1"/><circle cx="588" cy="612" r="1.1"/><circle cx="588" cy="636" r="1.1"/><circle cx="588" cy="660" r="1.1"/><circle cx="588" cy="684" r="1.1"/><circle cx="588" cy="708" r="1.1"/><circle cx="588" cy="732" r="1.1"/><circle cx="588" cy="756" r="1.1"/><circle cx="588" cy="780" r="1.1"/><circle cx="588" cy="804" r="1.1"/><circle cx="588" cy="828" r="1.1"/></g>
<rect x="156.0" y="44" width="288.0" height="48" rx="24" fill="#232327"/>
<text x="192.0" y="73.0" font-family="'SF Mono','Menlo','Consolas',monospace" font-size="13" font-weight="600" fill="#9a9a9f" text-anchor="middle">3D</text>
<text x="274.0" y="73.0" font-family="'SF Mono','Menlo','Consolas',monospace" font-size="13" font-weight="600" fill="#9a9a9f" text-anchor="middle">2D ISO</text>
<rect x="326.0" y="50" width="112" height="36" rx="18" fill="#ecebe6"/>
<text x="382.0" y="73.0" font-family="'SF Mono','Menlo','Consolas',monospace" font-size="13" font-weight="600" fill="#1b1b1e" text-anchor="middle">WELD MAP</text>
<g stroke="#9a9a9f" stroke-width="1.2" fill="none" opacity=".7"><line x1="107.4" y1="289.3" x2="76.6" y2="271.5" stroke-dasharray="2 4"/><line x1="107.4" y1="422.8" x2="76.6" y2="405.0" stroke-dasharray="2 4"/><line x1="76.6" y1="271.5" x2="76.6" y2="405.0"/></g>
<circle cx="76.6" cy="271.5" r="2.4" fill="#9a9a9f"/>
<circle cx="76.6" cy="405.0" r="2.4" fill="#9a9a9f"/>
<text x="76.6" y="331.2" transform="rotate(90.0 76.6 338.2)" font-family="'SF Mono','Menlo','Consolas',monospace" font-size="14" fill="#9a9a9f" text-anchor="middle">3000</text>
<g stroke="#9a9a9f" stroke-width="1.2" fill="none" opacity=".7"><line x1="242.3" y1="389.4" x2="211.5" y2="371.6" stroke-dasharray="2 4"/><line x1="357.9" y1="322.6" x2="327.1" y2="304.8" stroke-dasharray="2 4"/><line x1="211.5" y1="371.6" x2="327.1" y2="304.8"/></g>
<circle cx="211.5" cy="371.6" r="2.4" fill="#9a9a9f"/>
<circle cx="327.1" cy="304.8" r="2.4" fill="#9a9a9f"/>
<text x="269.3" y="331.2" transform="rotate(-30.0 269.3 338.2)" font-family="'SF Mono','Menlo','Consolas',monospace" font-size="14" fill="#9a9a9f" text-anchor="middle">3000</text>
<polyline points="165.3,456.1 80.5,505.1 80.5,571.8" fill="none" stroke="#1b1b1e" stroke-width="13.9" stroke-linejoin="round" stroke-linecap="round"/>
<polyline points="165.3,456.1 80.5,505.1 80.5,571.8" fill="none" stroke="#ecebe6" stroke-width="6.0" stroke-linejoin="round" stroke-linecap="round"/>
<polyline points="406.1,261.5 454.3,289.3 454.3,400.5 531.4,356.0" fill="none" stroke="#1b1b1e" stroke-width="13.9" stroke-linejoin="round" stroke-linecap="round"/>
<polyline points="406.1,261.5 454.3,289.3 454.3,400.5 531.4,356.0" fill="none" stroke="#9a9a9f" stroke-width="6.0" stroke-linejoin="round" stroke-linecap="round"/>
<polyline points="107.4,289.3 107.4,422.8 165.3,456.1 203.8,478.4" fill="none" stroke="#1b1b1e" stroke-width="13.9" stroke-linejoin="round" stroke-linecap="round"/>
<polyline points="107.4,289.3 107.4,422.8 165.3,456.1 203.8,478.4" fill="none" stroke="#ecebe6" stroke-width="6.0" stroke-linejoin="round" stroke-linecap="round"/>
<polyline points="203.8,478.4 242.3,500.6 242.3,389.4 357.9,322.6 357.9,233.6 406.1,261.5" fill="none" stroke="#1b1b1e" stroke-width="13.9" stroke-linejoin="round" stroke-linecap="round"/>
<polyline points="203.8,478.4 242.3,500.6 242.3,389.4 357.9,322.6 357.9,233.6 406.1,261.5" fill="none" stroke="#f05a5f" stroke-width="6.0" stroke-linejoin="round" stroke-linecap="round"/>
<line x1="119.5" y1="289.3" x2="95.4" y2="289.3" stroke="#ecebe6" stroke-width="3.7" stroke-linecap="round"/>
<line x1="119.5" y1="295.8" x2="95.4" y2="295.8" stroke="#ecebe6" stroke-width="3.7" stroke-linecap="round"/>
<line x1="68.4" y1="571.8" x2="92.5" y2="571.8" stroke="#ecebe6" stroke-width="3.7" stroke-linecap="round"/>
<line x1="68.4" y1="565.4" x2="92.5" y2="565.4" stroke="#ecebe6" stroke-width="3.7" stroke-linecap="round"/>
<line x1="537.4" y1="366.5" x2="525.3" y2="345.6" stroke="#9a9a9f" stroke-width="3.7" stroke-linecap="round"/>
<line x1="531.8" y1="369.7" x2="519.7" y2="348.8" stroke="#9a9a9f" stroke-width="3.7" stroke-linecap="round"/>
<path d="M128.5,464.5 L139.7,483.8 L106.1,477.5 L117.2,496.7 Z" fill="#1b1b1e" stroke="#ecebe6" stroke-width="2.8" stroke-linejoin="round"/>
<line x1="122.9" y1="480.6" x2="111.7" y2="461.4" stroke="#ecebe6" stroke-width="2.8"/><line x1="119.0" y1="457.2" x2="104.5" y2="465.5" stroke="#ecebe6" stroke-width="2.8" stroke-linecap="round"/>
<circle cx="107.4" cy="422.8" r="7.4" fill="#1b1b1e" stroke="#ecebe6" stroke-width="2.8"/>
<circle cx="165.3" cy="456.1" r="7.4" fill="#1b1b1e" stroke="#ecebe6" stroke-width="2.8"/>
<circle cx="242.3" cy="500.6" r="7.4" fill="#1b1b1e" stroke="#f05a5f" stroke-width="2.8"/>
<circle cx="242.3" cy="389.4" r="7.4" fill="#1b1b1e" stroke="#f05a5f" stroke-width="2.8"/>
<circle cx="357.9" cy="322.6" r="7.4" fill="#1b1b1e" stroke="#f05a5f" stroke-width="2.8"/>
<circle cx="357.9" cy="233.6" r="7.4" fill="#1b1b1e" stroke="#f05a5f" stroke-width="2.8"/>
<circle cx="454.3" cy="289.3" r="7.4" fill="#1b1b1e" stroke="#9a9a9f" stroke-width="2.8"/>
<circle cx="454.3" cy="400.5" r="7.4" fill="#1b1b1e" stroke="#9a9a9f" stroke-width="2.8"/>
<circle cx="203.8" cy="478.4" r="14.8" fill="none" stroke="#f05a5f" stroke-width="1.5" stroke-dasharray="3 3"/><circle cx="203.8" cy="478.4" r="7.0" fill="#f05a5f"/>
<circle cx="406.1" cy="261.5" r="14.8" fill="none" stroke="#f05a5f" stroke-width="1.5" stroke-dasharray="3 3"/><circle cx="406.1" cy="261.5" r="7.0" fill="#f05a5f"/>
<line x1="107.4" y1="422.8" x2="74.5" y2="441.8" stroke="#9a9a9f" stroke-width="1.2"/>
<rect x="45.4" y="435.8" width="31.2" height="24" rx="12" fill="#2a2a2f"/>
<text x="61.0" y="452.3" font-family="'SF Mono','Menlo','Consolas',monospace" font-size="13" font-weight="600" fill="#ecebe6" text-anchor="middle">W1</text>
<line x1="165.3" y1="456.1" x2="184.3" y2="423.2" stroke="#9a9a9f" stroke-width="1.2"/>
<rect x="176.5" y="400.8" width="31.2" height="24" rx="12" fill="#2a2a2f"/>
<text x="192.1" y="417.3" font-family="'SF Mono','Menlo','Consolas',monospace" font-size="13" font-weight="600" fill="#ecebe6" text-anchor="middle">W2</text>
<line x1="203.8" y1="478.4" x2="190.8" y2="514.1" stroke="#9a9a9f" stroke-width="1.2"/>
<rect x="169.9" y="513.4" width="31.2" height="24" rx="12" fill="#f05a5f"/>
<text x="185.5" y="529.9" font-family="'SF Mono','Menlo','Consolas',monospace" font-size="13" font-weight="600" fill="#ffffff" text-anchor="middle">F3</text>
<line x1="242.3" y1="500.6" x2="275.2" y2="519.6" stroke="#9a9a9f" stroke-width="1.2"/>
<rect x="273.1" y="513.6" width="31.2" height="24" rx="12" fill="#2a2a2f"/>
<text x="288.7" y="530.1" font-family="'SF Mono','Menlo','Consolas',monospace" font-size="13" font-weight="600" fill="#ecebe6" text-anchor="middle">W4</text>
<line x1="357.9" y1="322.6" x2="395.9" y2="322.6" stroke="#9a9a9f" stroke-width="1.2"/>
<rect x="395.9" y="310.6" width="31.2" height="24" rx="12" fill="#2a2a2f"/>
<text x="411.5" y="327.1" font-family="'SF Mono','Menlo','Consolas',monospace" font-size="13" font-weight="600" fill="#ecebe6" text-anchor="middle">W5</text>
<line x1="406.1" y1="261.5" x2="425.1" y2="228.5" stroke="#9a9a9f" stroke-width="1.2"/>
<rect x="417.3" y="206.2" width="31.2" height="24" rx="12" fill="#f05a5f"/>
<text x="432.9" y="222.7" font-family="'SF Mono','Menlo','Consolas',monospace" font-size="13" font-weight="600" fill="#ffffff" text-anchor="middle">F6</text>
<line x1="454.3" y1="400.5" x2="421.4" y2="419.5" stroke="#9a9a9f" stroke-width="1.2"/>
<rect x="392.3" y="413.5" width="31.2" height="24" rx="12" fill="#2a2a2f"/>
<text x="407.9" y="430.0" font-family="'SF Mono','Menlo','Consolas',monospace" font-size="13" font-weight="600" fill="#ecebe6" text-anchor="middle">W7</text>
<line x1="107.4" y1="349.3" x2="145.4" y2="349.3" stroke="#9a9a9f" stroke-width="1.2"/>
<rect x="145.4" y="337.3" width="57.0" height="24" rx="12" fill="#ecebe6"/>
<text x="173.9" y="353.8" font-family="'SF Mono','Menlo','Consolas',monospace" font-size="13" font-weight="600" fill="#1b1b1e" text-anchor="middle">SP-01</text>
<line x1="300.1" y1="356.0" x2="319.1" y2="388.9" stroke="#9a9a9f" stroke-width="1.2"/>
<rect x="304.9" y="387.3" width="57.0" height="24" rx="12" fill="#f05a5f"/>
<text x="333.4" y="403.8" font-family="'SF Mono','Menlo','Consolas',monospace" font-size="13" font-weight="600" fill="#ffffff" text-anchor="middle">SP-02</text>
<line x1="492.8" y1="378.3" x2="511.8" y2="411.2" stroke="#9a9a9f" stroke-width="1.2"/>
<rect x="497.6" y="409.6" width="57.0" height="24" rx="12" fill="#9a9a9f"/>
<text x="526.1" y="426.1" font-family="'SF Mono','Menlo','Consolas',monospace" font-size="13" font-weight="600" fill="#1b1b1e" text-anchor="middle">SP-03</text>
<rect x="44" y="700" width="512" height="96" fill="none" stroke="#9a9a9f" stroke-width="1" opacity=".6"/><line x1="44" y1="748.0" x2="556" y2="748.0" stroke="#9a9a9f" stroke-width="1" opacity=".6"/>
<line x1="228.3" y1="700" x2="228.3" y2="796" stroke="#9a9a9f" stroke-width="1" opacity=".6"/>
<line x1="422.9" y1="700" x2="422.9" y2="796" stroke="#9a9a9f" stroke-width="1" opacity=".6"/>
<text x="56.0" y="717.0" font-family="'SF Mono','Menlo','Consolas',monospace" font-size="10" font-weight="400" fill="#9a9a9f" text-anchor="start" letter-spacing=".5">SPOOL NO</text>
<text x="56.0" y="739.0" font-family="'SF Mono','Menlo','Consolas',monospace" font-size="16" font-weight="700" fill="#f05a5f" text-anchor="start">SP-02</text>
<text x="240.3" y="717.0" font-family="'SF Mono','Menlo','Consolas',monospace" font-size="10" font-weight="400" fill="#9a9a9f" text-anchor="start" letter-spacing=".5">DWG NO</text>
<text x="240.3" y="739.0" font-family="'SF Mono','Menlo','Consolas',monospace" font-size="16" font-weight="700" fill="#ecebe6" text-anchor="start">ISO-0412</text>
<text x="434.9" y="717.0" font-family="'SF Mono','Menlo','Consolas',monospace" font-size="10" font-weight="400" fill="#9a9a9f" text-anchor="start" letter-spacing=".5">REV</text>
<text x="434.9" y="739.0" font-family="'SF Mono','Menlo','Consolas',monospace" font-size="16" font-weight="700" fill="#ecebe6" text-anchor="start">01</text>
<text x="56.0" y="765.0" font-family="'SF Mono','Menlo','Consolas',monospace" font-size="10" font-weight="400" fill="#9a9a9f" text-anchor="start" letter-spacing=".5">SHOP WELD</text>
<text x="56.0" y="787.0" font-family="'SF Mono','Menlo','Consolas',monospace" font-size="16" font-weight="700" fill="#ecebe6" text-anchor="start">4</text>
<text x="240.3" y="765.0" font-family="'SF Mono','Menlo','Consolas',monospace" font-size="10" font-weight="400" fill="#9a9a9f" text-anchor="start" letter-spacing=".5">FIELD WELD</text>
<text x="240.3" y="787.0" font-family="'SF Mono','Menlo','Consolas',monospace" font-size="16" font-weight="700" fill="#f05a5f" text-anchor="start">2</text>
<text x="434.9" y="765.0" font-family="'SF Mono','Menlo','Consolas',monospace" font-size="10" font-weight="400" fill="#9a9a9f" text-anchor="start" letter-spacing=".5">SHEET</text>
<text x="434.9" y="787.0" font-family="'SF Mono','Menlo','Consolas',monospace" font-size="16" font-weight="700" fill="#ecebe6" text-anchor="start">2 / 3</text>
</svg>