<svg xmlns="http://www.w3.org/2000/svg" viewBox="0 0 668 440" width="668" height="440">
<rect width="668" height="440" fill="#ffffff"/>
<g fill="#dcdad3"><circle cx="12" cy="12" r="1.1"/><circle cx="12" cy="36" r="1.1"/><circle cx="12" cy="60" r="1.1"/><circle cx="12" cy="84" r="1.1"/><circle cx="12" cy="108" r="1.1"/><circle cx="12" cy="132" r="1.1"/><circle cx="12" cy="156" r="1.1"/><circle cx="12" cy="180" r="1.1"/><circle cx="12" cy="204" r="1.1"/><circle cx="12" cy="228" r="1.1"/><circle cx="12" cy="252" r="1.1"/><circle cx="12" cy="276" r="1.1"/><circle cx="12" cy="300" r="1.1"/><circle cx="12" cy="324" r="1.1"/><circle cx="12" cy="348" r="1.1"/><circle cx="12" cy="372" r="1.1"/><circle cx="12" cy="396" r="1.1"/><circle cx="12" cy="420" r="1.1"/><circle cx="36" cy="12" r="1.1"/><circle cx="36" cy="36" r="1.1"/><circle cx="36" cy="60" r="1.1"/><circle cx="36" cy="84" r="1.1"/><circle cx="36" cy="108" r="1.1"/><circle cx="36" cy="132" r="1.1"/><circle cx="36" cy="156" r="1.1"/><circle cx="36" cy="180" r="1.1"/><circle cx="36" cy="204" r="1.1"/><circle cx="36" cy="228" r="1.1"/><circle cx="36" cy="252" r="1.1"/><circle cx="36" cy="276" r="1.1"/><circle cx="36" cy="300" r="1.1"/><circle cx="36" cy="324" r="1.1"/><circle cx="36" cy="348" r="1.1"/><circle cx="36" cy="372" r="1.1"/><circle cx="36" cy="396" r="1.1"/><circle cx="36" cy="420" r="1.1"/><circle cx="60" cy="12" r="1.1"/><circle cx="60" cy="36" r="1.1"/><circle cx="60" cy="60" r="1.1"/><circle cx="60" cy="84" r="1.1"/><circle cx="60" cy="108" r="1.1"/><circle cx="60" cy="132" r="1.1"/><circle cx="60" cy="156" r="1.1"/><circle cx="60" cy="180" r="1.1"/><circle cx="60" cy="204" r="1.1"/><circle cx="60" cy="228" r="1.1"/><circle cx="60" cy="252" r="1.1"/><circle cx="60" cy="276" r="1.1"/><circle cx="60" cy="300" r="1.1"/><circle cx="60" cy="324" r="1.1"/><circle cx="60" cy="348" r="1.1"/><circle cx="60" cy="372" r="1.1"/><circle cx="60" cy="396" r="1.1"/><circle cx="60" cy="420" r="1.1"/><circle cx="84" cy="12" r="1.1"/><circle cx="84" cy="36" r="1.1"/><circle cx="84" cy="60" r="1.1"/><circle cx="84" cy="84" r="1.1"/><circle cx="84" cy="108" r="1.1"/><circle cx="84" cy="132" r="1.1"/><circle cx="84" cy="156" r="1.1"/><circle cx="84" cy="180" r="1.1"/><circle cx="84" cy="204" r="1.1"/><circle cx="84" cy="228" r="1.1"/><circle cx="84" cy="252" r="1.1"/><circle cx="84" cy="276" r="1.1"/><circle cx="84" cy="300" r="1.1"/><circle cx="84" cy="324" r="1.1"/><circle cx="84" cy="348" r="1.1"/><circle cx="84" cy="372" r="1.1"/><circle cx="84" cy="396" r="1.1"/><circle cx="84" cy="420" r="1.1"/><circle cx="108" cy="12" r="1.1"/><circle cx="108" cy="36" r="1.1"/><circle cx="108" cy="60" r="1.1"/><circle cx="108" cy="84" r="1.1"/><circle cx="108" cy="108" r="1.1"/><circle cx="108" cy="132" r="1.1"/><circle cx="108" cy="156" r="1.1"/><circle cx="108" cy="180" r="1.1"/><circle cx="108" cy="204" r="1.1"/><circle cx="108" cy="228" r="1.1"/><circle cx="108" cy="252" r="1.1"/><circle cx="108" cy="276" r="1.1"/><circle cx="108" cy="300" r="1.1"/><circle cx="108" cy="324" r="1.1"/><circle cx="108" cy="348" r="1.1"/><circle cx="108" cy="372" r="1.1"/><circle cx="108" cy="396" r="1.1"/><circle cx="108" cy="420" r="1.1"/><circle cx="132" cy="12" r="1.1"/><circle cx="132" cy="36" r="1.1"/><circle cx="132" cy="60" r="1.1"/><circle cx="132" cy="84" r="1.1"/><circle cx="132" cy="108" r="1.1"/><circle cx="132" cy="132" r="1.1"/><circle cx="132" cy="156" r="1.1"/><circle cx="132" cy="180" r="1.1"/><circle cx="132" cy="204" r="1.1"/><circle cx="132" cy="228" r="1.1"/><circle cx="132" cy="252" r="1.1"/><circle cx="132" cy="276" r="1.1"/><circle cx="132" cy="300" r="1.1"/><circle cx="132" cy="324" r="1.1"/><circle cx="132" cy="348" r="1.1"/><circle cx="132" cy="372" r="1.1"/><circle cx="132" cy="396" r="1.1"/><circle cx="132" cy="420" r="1.1"/><circle cx="156" cy="12" r="1.1"/><circle cx="156" cy="36" r="1.1"/><circle cx="156" cy="60" r="1.1"/><circle cx="156" cy="84" r="1.1"/><circle cx="156" cy="108" r="1.1"/><circle cx="156" cy="132" r="1.1"/><circle cx="156" cy="156" r="1.1"/><circle cx="156" cy="180" r="1.1"/><circle cx="156" cy="204" r="1.1"/><circle cx="156" cy="228" r="1.1"/><circle cx="156" cy="252" r="1.1"/><circle cx="156" cy="276" r="1.1"/><circle cx="156" cy="300" r="1.1"/><circle cx="156" cy="324" r="1.1"/><circle cx="156" cy="348" r="1.1"/><circle cx="156" cy="372" r="1.1"/><circle cx="156" cy="396" r="1.1"/><circle cx="156" cy="420" r="1.1"/><circle cx="180" cy="12" r="1.1"/><circle cx="180" cy="36" r="1.1"/><circle cx="180" cy="60" r="1.1"/><circle cx="180" cy="84" r="1.1"/><circle cx="180" cy="108" r="1.1"/><circle cx="180" cy="132" r="1.1"/><circle cx="180" cy="156" r="1.1"/><circle cx="180" cy="180" r="1.1"/><circle cx="180" cy="204" r="1.1"/><circle cx="180" cy="228" r="1.1"/><circle cx="180" cy="252" r="1.1"/><circle cx="180" cy="276" r="1.1"/><circle cx="180" cy="300" r="1.1"/><circle cx="180" cy="324" r="1.1"/><circle cx="180" cy="348" r="1.1"/><circle cx="180" cy="372" r="1.1"/><circle cx="180" cy="396" r="1.1"/><circle cx="180" cy="420" r="1.1"/><circle cx="204" cy="12" r="1.1"/><circle cx="204" cy="36" r="1.1"/><circle cx="204" cy="60" r="1.1"/><circle cx="204" cy="84" r="1.1"/><circle cx="204" cy="108" r="1.1"/><circle cx="204" cy="132" r="1.1"/><circle cx="204" cy="156" r="1.1"/><circle cx="204" cy="180" r="1.1"/><circle cx="204" cy="204" r="1.1"/><circle cx="204" cy="228" r="1.1"/><circle cx="204" cy="252" r="1.1"/><circle cx="204" cy="276" r="1.1"/><circle cx="204" cy="300" r="1.1"/><circle cx="204" cy="324" r="1.1"/><circle cx="204" cy="348" r="1.1"/><circle cx="204" cy="372" r="1.1"/><circle cx="204" cy="396" r="1.1"/><circle cx="204" cy="420" r="1.1"/><circle cx="228" cy="12" r="1.1"/><circle cx="228" cy="36" r="1.1"/><circle cx="228" cy="60" r="1.1"/><circle cx="228" cy="84" r="1.1"/><circle cx="228" cy="108" r="1.1"/><circle cx="228" cy="132" r="1.1"/><circle cx="228" cy="156" r="1.1"/><circle cx="228" cy="180" r="1.1"/><circle cx="228" cy="204" r="1.1"/><circle cx="228" cy="228" r="1.1"/><circle cx="228" cy="252" r="1.1"/><circle cx="228" cy="276" r="1.1"/><circle cx="228" cy="300" r="1.1"/><circle cx="228" cy="324" r="1.1"/><circle cx="228" cy="348" r="1.1"/><circle cx="228" cy="372" r="1.1"/><circle cx="228" cy="396" r="1.1"/><circle cx="228" cy="420" r="1.1"/><circle cx="252" cy="12" r="1.1"/><circle cx="252" cy="36" r="1.1"/><circle cx="252" cy="60" r="1.1"/><circle cx="252" cy="84" r="1.1"/><circle cx="252" cy="108" r="1.1"/><circle cx="252" cy="132" r="1.1"/><circle cx="252" cy="156" r="1.1"/><circle cx="252" cy="180" r="1.1"/><circle cx="252" cy="204" r="1.1"/><circle cx="252" cy="228" r="1.1"/><circle cx="252" cy="252" r="1.1"/><circle cx="252" cy="276" r="1.1"/><circle cx="252" cy="300" r="1.1"/><circle cx="252" cy="324" r="1.1"/><circle cx="252" cy="348" r="1.1"/><circle cx="252" cy="372" r="1.1"/><circle cx="252" cy="396" r="1.1"/><circle cx="252" cy="420" r="1.1"/><circle cx="276" cy="12" r="1.1"/><circle cx="276" cy="36" r="1.1"/><circle cx="276" cy="60" r="1.1"/><circle cx="276" cy="84" r="1.1"/><circle cx="276" cy="108" r="1.1"/><circle cx="276" cy="132" r="1.1"/><circle cx="276" cy="156" r="1.1"/><circle cx="276" cy="180" r="1.1"/><circle cx="276" cy="204" r="1.1"/><circle cx="276" cy="228" r="1.1"/><circle cx="276" cy="252" r="1.1"/><circle cx="276" cy="276" r="1.1"/><circle cx="276" cy="300" r="1.1"/><circle cx="276" cy="324" r="1.1"/><circle cx="276" cy="348" r="1.1"/><circle cx="276" cy="372" r="1.1"/><circle cx="276" cy="396" r="1.1"/><circle cx="276" cy="420" r="1.1"/><circle cx="300" cy="12" r="1.1"/><circle cx="300" cy="36" r="1.1"/><circle cx="300" cy="60" r="1.1"/><circle cx="300" cy="84" r="1.1"/><circle cx="300" cy="108" r="1.1"/><circle cx="300" cy="132" r="1.1"/><circle cx="300" cy="156" r="1.1"/><circle cx="300" cy="180" r="1.1"/><circle cx="300" cy="204" r="1.1"/><circle cx="300" cy="228" r="1.1"/><circle cx="300" cy="252" r="1.1"/><circle cx="300" cy="276" r="1.1"/><circle cx="300" cy="300" r="1.1"/><circle cx="300" cy="324" r="1.1"/><circle cx="300" cy="348" r="1.1"/><circle cx="300" cy="372" r="1.1"/><circle cx="300" cy="396" r="1.1"/><circle cx="300" cy="420" r="1.1"/><circle cx="324" cy="12" r="1.1"/><circle cx="324" cy="36" r="1.1"/><circle cx="324" cy="60" r="1.1"/><circle cx="324" cy="84" r="1.1"/><circle cx="324" cy="108" r="1.1"/><circle cx="324" cy="132" r="1.1"/><circle cx="324" cy="156" r="1.1"/><circle cx="324" cy="180" r="1.1"/><circle cx="324" cy="204" r="1.1"/><circle cx="324" cy="228" r="1.1"/><circle cx="324" cy="252" r="1.1"/><circle cx="324" cy="276" r="1.1"/><circle cx="324" cy="300" r="1.1"/><circle cx="324" cy="324" r="1.1"/><circle cx="324" cy="348" r="1.1"/><circle cx="324" cy="372" r="1.1"/><circle cx="324" cy="396" r="1.1"/><circle cx="324" cy="420" r="1.1"/><circle cx="348" cy="12" r="1.1"/><circle cx="348" cy="36" r="1.1"/><circle cx="348" cy="60" r="1.1"/><circle cx="348" cy="84" r="1.1"/><circle cx="348" cy="108" r="1.1"/><circle cx="348" cy="132" r="1.1"/><circle cx="348" cy="156" r="1.1"/><circle cx="348" cy="180" r="1.1"/><circle cx="348" cy="204" r="1.1"/><circle cx="348" cy="228" r="1.1"/><circle cx="348" cy="252" r="1.1"/><circle cx="348" cy="276" r="1.1"/><circle cx="348" cy="300" r="1.1"/><circle cx="348" cy="324" r="1.1"/><circle cx="348" cy="348" r="1.1"/><circle cx="348" cy="372" r="1.1"/><circle cx="348" cy="396" r="1.1"/><circle cx="348" cy="420" r="1.1"/><circle cx="372" cy="12" r="1.1"/><circle cx="372" cy="36" r="1.1"/><circle cx="372" cy="60" r="1.1"/><circle cx="372" cy="84" r="1.1"/><circle cx="372" cy="108" r="1.1"/><circle cx="372" cy="132" r="1.1"/><circle cx="372" cy="156" r="1.1"/><circle cx="372" cy="180" r="1.1"/><circle cx="372" cy="204" r="1.1"/><circle cx="372" cy="228" r="1.1"/><circle cx="372" cy="252" r="1.1"/><circle cx="372" cy="276" r="1.1"/><circle cx="372" cy="300" r="1.1"/><circle cx="372" cy="324" r="1.1"/><circle cx="372" cy="348" r="1.1"/><circle cx="372" cy="372" r="1.1"/><circle cx="372" cy="396" r="1.1"/><circle cx="372" cy="420" r="1.1"/><circle cx="396" cy="12" r="1.1"/><circle cx="396" cy="36" r="1.1"/><circle cx="396" cy="60" r="1.1"/><circle cx="396" cy="84" r="1.1"/><circle cx="396" cy="108" r="1.1"/><circle cx="396" cy="132" r="1.1"/><circle cx="396" cy="156" r="1.1"/><circle cx="396" cy="180" r="1.1"/><circle cx="396" cy="204" r="1.1"/><circle cx="396" cy="228" r="1.1"/><circle cx="396" cy="252" r="1.1"/><circle cx="396" cy="276" r="1.1"/><circle cx="396" cy="300" r="1.1"/><circle cx="396" cy="324" r="1.1"/><circle cx="396" cy="348" r="1.1"/><circle cx="396" cy="372" r="1.1"/><circle cx="396" cy="396" r="1.1"/><circle cx="396" cy="420" r="1.1"/><circle cx="420" cy="12" r="1.1"/><circle cx="420" cy="36" r="1.1"/><circle cx="420" cy="60" r="1.1"/><circle cx="420" cy="84" r="1.1"/><circle cx="420" cy="108" r="1.1"/><circle cx="420" cy="132" r="1.1"/><circle cx="420" cy="156" r="1.1"/><circle cx="420" cy="180" r="1.1"/><circle cx="420" cy="204" r="1.1"/><circle cx="420" cy="228" r="1.1"/><circle cx="420" cy="252" r="1.1"/><circle cx="420" cy="276" r="1.1"/><circle cx="420" cy="300" r="1.1"/><circle cx="420" cy="324" r="1.1"/><circle cx="420" cy="348" r="1.1"/><circle cx="420" cy="372" r="1.1"/><circle cx="420" cy="396" r="1.1"/><circle cx="420" cy="420" r="1.1"/><circle cx="444" cy="12" r="1.1"/><circle cx="444" cy="36" r="1.1"/><circle cx="444" cy="60" r="1.1"/><circle cx="444" cy="84" r="1.1"/><circle cx="444" cy="108" r="1.1"/><circle cx="444" cy="132" r="1.1"/><circle cx="444" cy="156" r="1.1"/><circle cx="444" cy="180" r="1.1"/><circle cx="444" cy="204" r="1.1"/><circle cx="444" cy="228" r="1.1"/><circle cx="444" cy="252" r="1.1"/><circle cx="444" cy="276" r="1.1"/><circle cx="444" cy="300" r="1.1"/><circle cx="444" cy="324" r="1.1"/><circle cx="444" cy="348" r="1.1"/><circle cx="444" cy="372" r="1.1"/><circle cx="444" cy="396" r="1.1"/><circle cx="444" cy="420" r="1.1"/><circle cx="468" cy="12" r="1.1"/><circle cx="468" cy="36" r="1.1"/><circle cx="468" cy="60" r="1.1"/><circle cx="468" cy="84" r="1.1"/><circle cx="468" cy="108" r="1.1"/><circle cx="468" cy="132" r="1.1"/><circle cx="468" cy="156" r="1.1"/><circle cx="468" cy="180" r="1.1"/><circle cx="468" cy="204" r="1.1"/><circle cx="468" cy="228" r="1.1"/><circle cx="468" cy="252" r="1.1"/><circle cx="468" cy="276" r="1.1"/><circle cx="468" cy="300" r="1.1"/><circle cx="468" cy="324" r="1.1"/><circle cx="468" cy="348" r="1.1"/><circle cx="468" cy="372" r="1.1"/><circle cx="468" cy="396" r="1.1"/><circle cx="468" cy="420" r="1.1"/><circle cx="492" cy="12" r="1.1"/><circle cx="492" cy="36" r="1.1"/><circle cx="492" cy="60" r="1.1"/><circle cx="492" cy="84" r="1.1"/><circle cx="492" cy="108" r="1.1"/><circle cx="492" cy="132" r="1.1"/><circle cx="492" cy="156" r="1.1"/><circle cx="492" cy="180" r="1.1"/><circle cx="492" cy="204" r="1.1"/><circle cx="492" cy="228" r="1.1"/><circle cx="492" cy="252" r="1.1"/><circle cx="492" cy="276" r="1.1"/><circle cx="492" cy="300" r="1.1"/><circle cx="492" cy="324" r="1.1"/><circle cx="492" cy="348" r="1.1"/><circle cx="492" cy="372" r="1.1"/><circle cx="492" cy="396" r="1.1"/><circle cx="492" cy="420" r="1.1"/><circle cx="516" cy="12" r="1.1"/><circle cx="516" cy="36" r="1.1"/><circle cx="516" cy="60" r="1.1"/><circle cx="516" cy="84" r="1.1"/><circle cx="516" cy="108" r="1.1"/><circle cx="516" cy="132" r="1.1"/><circle cx="516" cy="156" r="1.1"/><circle cx="516" cy="180" r="1.1"/><circle cx="516" cy="204" r="1.1"/><circle cx="516" cy="228" r="1.1"/><circle cx="516" cy="252" r="1.1"/><circle cx="516" cy="276" r="1.1"/><circle cx="516" cy="300" r="1.1"/><circle cx="516" cy="324" r="1.1"/><circle cx="516" cy="348" r="1.1"/><circle cx="516" cy="372" r="1.1"/><circle cx="516" cy="396" r="1.1"/><circle cx="516" cy="420" r="1.1"/><circle cx="540" cy="12" r="1.1"/><circle cx="540" cy="36" r="1.1"/><circle cx="540" cy="60" r="1.1"/><circle cx="540" cy="84" r="1.1"/><circle cx="540" cy="108" r="1.1"/><circle cx="540" cy="132" r="1.1"/><circle cx="540" cy="156" r="1.1"/><circle cx="540" cy="180" r="1.1"/><circle cx="540" cy="204" r="1.1"/><circle cx="540" cy="228" r="1.1"/><circle cx="540" cy="252" r="1.1"/><circle cx="540" cy="276" r="1.1"/><circle cx="540" cy="300" r="1.1"/><circle cx="540" cy="324" r="1.1"/><circle cx="540" cy="348" r="1.1"/><circle cx="540" cy="372" r="1.1"/><circle cx="540" cy="396" r="1.1"/><circle cx="540" cy="420" r="1.1"/><circle cx="564" cy="12" r="1.1"/><circle cx="564" cy="36" r="1.1"/><circle cx="564" cy="60" r="1.1"/><circle cx="564" cy="84" r="1.1"/><circle cx="564" cy="108" r="1.1"/><circle cx="564" cy="132" r="1.1"/><circle cx="564" cy="156" r="1.1"/><circle cx="564" cy="180" r="1.1"/><circle cx="564" cy="204" r="1.1"/><circle cx="564" cy="228" r="1.1"/><circle cx="564" cy="252" r="1.1"/><circle cx="564" cy="276" r="1.1"/><circle cx="564" cy="300" r="1.1"/><circle cx="564" cy="324" r="1.1"/><circle cx="564" cy="348" r="1.1"/><circle cx="564" cy="372" r="1.1"/><circle cx="564" cy="396" r="1.1"/><circle cx="564" cy="420" r="1.1"/><circle cx="588" cy="12" r="1.1"/><circle cx="588" cy="36" r="1.1"/><circle cx="588" cy="60" r="1.1"/><circle cx="588" cy="84" r="1.1"/><circle cx="588" cy="108" r="1.1"/><circle cx="588" cy="132" r="1.1"/><circle cx="588" cy="156" r="1.1"/><circle cx="588" cy="180" r="1.1"/><circle cx="588" cy="204" r="1.1"/><circle cx="588" cy="228" r="1.1"/><circle cx="588" cy="252" r="1.1"/><circle cx="588" cy="276" r="1.1"/><circle cx="588" cy="300" r="1.1"/><circle cx="588" cy="324" r="1.1"/><circle cx="588" cy="348" r="1.1"/><circle cx="588" cy="372" r="1.1"/><circle cx="588" cy="396" r="1.1"/><circle cx="588" cy="420" r="1.1"/><circle cx="612" cy="12" r="1.1"/><circle cx="612" cy="36" r="1.1"/><circle cx="612" cy="60" r="1.1"/><circle cx="612" cy="84" r="1.1"/><circle cx="612" cy="108" r="1.1"/><circle cx="612" cy="132" r="1.1"/><circle cx="612" cy="156" r="1.1"/><circle cx="612" cy="180" r="1.1"/><circle cx="612" cy="204" r="1.1"/><circle cx="612" cy="228" r="1.1"/><circle cx="612" cy="252" r="1.1"/><circle cx="612" cy="276" r="1.1"/><circle cx="612" cy="300" r="1.1"/><circle cx="612" cy="324" r="1.1"/><circle cx="612" cy="348" r="1.1"/><circle cx="612" cy="372" r="1.1"/><circle cx="612" cy="396" r="1.1"/><circle cx="612" cy="420" r="1.1"/><circle cx="636" cy="12" r="1.1"/><circle cx="636" cy="36" r="1.1"/><circle cx="636" cy="60" r="1.1"/><circle cx="636" cy="84" r="1.1"/><circle cx="636" cy="108" r="1.1"/><circle cx="636" cy="132" r="1.1"/><circle cx="636" cy="156" r="1.1"/><circle cx="636" cy="180" r="1.1"/><circle cx="636" cy="204" r="1.1"/><circle cx="636" cy="228" r="1.1"/><circle cx="636" cy="252" r="1.1"/><circle cx="636" cy="276" r="1.1"/><circle cx="636" cy="300" r="1.1"/><circle cx="636" cy="324" r="1.1"/><circle cx="636" cy="348" r="1.1"/><circle cx="636" cy="372" r="1.1"/><circle cx="636" cy="396" r="1.1"/><circle cx="636" cy="420" r="1.1"/><circle cx="660" cy="12" r="1.1"/><circle cx="660" cy="36" r="1.1"/><circle cx="660" cy="60" r="1.1"/><circle cx="660" cy="84" r="1.1"/><circle cx="660" cy="108" r="1.1"/><circle cx="660" cy="132" r="1.1"/><circle cx="660" cy="156" r="1.1"/><circle cx="660" cy="180" r="1.1"/><circle cx="660" cy="204" r="1.1"/><circle cx="660" cy="228" r="1.1"/><circle cx="660" cy="252" r="1.1"/><circle cx="660" cy="276" r="1.1"/><circle cx="660" cy="300" r="1.1"/><circle cx="660" cy="324" r="1.1"/><circle cx="660" cy="348" r="1.1"/><circle cx="660" cy="372" r="1.1"/><circle cx="660" cy="396" r="1.1"/><circle cx="660" cy="420" r="1.1"/></g>
<style>.a1{opacity:1;animation:a1 18.0s linear infinite}@keyframes a1{0.00%{opacity:1} 31.94%{opacity:1} 33.33%{opacity:0} 98.61%{opacity:0} 100.00%{opacity:1}}.a2{opacity:0;animation:a2 18.0s linear infinite}@keyframes a2{0.00%{opacity:0} 33.33%{opacity:0} 34.72%{opacity:1} 65.28%{opacity:1} 66.67%{opacity:0} 100.00%{opacity:0}}.a3{opacity:0;animation:a3 18.0s linear infinite}@keyframes a3{0.00%{opacity:0} 66.67%{opacity:0} 68.06%{opacity:1} 98.61%{opacity:1} 100.00%{opacity:0} 100.00%{opacity:0}}.a4{opacity:0;animation:a4 18.0s linear infinite}@keyframes a4{0.00%{opacity:0} 92.78%{opacity:0} 94.17%{opacity:1} 97.50%{opacity:1} 98.89%{opacity:0} 100.00%{opacity:0}}.a5{opacity:0;animation:a5 18.0s linear infinite}@keyframes a5{0.00%{opacity:0} 5.00%{opacity:0} 6.11%{opacity:1} 11.67%{opacity:1} 12.78%{opacity:0} 100.00%{opacity:0}}.a6{opacity:1;animation:a6 18.0s linear infinite}@keyframes a6{0.00%{opacity:0} 12.22%{opacity:0} 13.89%{opacity:1} 30.56%{opacity:1} 32.22%{opacity:0} 100.00%{opacity:0}}.a7{transform:scaleX(1);transform-box:fill-box;transform-origin:0 50%;animation:a7 18.0s linear infinite}@keyframes a7{0.00%{transform:scaleX(0)} 16.67%{transform:scaleX(0)} 27.78%{transform:scaleX(1)} 100.00%{transform:scaleX(1)}}.a8{opacity:1;animation:a8 18.0s linear infinite}@keyframes a8{0.00%{opacity:0} 27.78%{opacity:0} 28.89%{opacity:1} 31.11%{opacity:1} 32.22%{opacity:0} 100.00%{opacity:0}}.a9{opacity:0;animation:a9 18.0s linear infinite}@keyframes a9{0.00%{opacity:0} 33.33%{opacity:0} 35.00%{opacity:1} 63.89%{opacity:1} 65.56%{opacity:0} 100.00%{opacity:0}}.a10{opacity:0;animation:a10 18.0s linear infinite}@keyframes a10{0.00%{opacity:0} 33.33%{opacity:0} 34.17%{opacity:1} 53.06%{opacity:1} 53.89%{opacity:0} 100.00%{opacity:0}}.a11{opacity:0;animation:a11 18.0s linear infinite}@keyframes a11{0.00%{opacity:0} 53.33%{opacity:0} 54.17%{opacity:1} 64.72%{opacity:1} 65.56%{opacity:0} 100.00%{opacity:0}}.a12{opacity:0;animation:a12 18.0s linear infinite}@keyframes a12{0.00%{opacity:0} 44.44%{opacity:0} 45.28%{opacity:1} 52.50%{opacity:1} 53.33%{opacity:0} 100.00%{opacity:0}}.a13{opacity:0;animation:a13 18.0s linear infinite}@keyframes a13{0.00%{opacity:0} 66.67%{opacity:0} 68.33%{opacity:1} 95.00%{opacity:1} 96.67%{opacity:0} 100.00%{opacity:0}}.a14{opacity:0;animation:a14 18.0s linear infinite}@keyframes a14{0.00%{opacity:0} 66.67%{opacity:0} 67.78%{opacity:1} 73.33%{opacity:1} 74.44%{opacity:0} 100.00%{opacity:0}}.a15{opacity:0;animation:a15 18.0s linear infinite}@keyframes a15{0.00%{opacity:0} 73.89%{opacity:0} 75.00%{opacity:1} 82.78%{opacity:1} 83.89%{opacity:0} 100.00%{opacity:0}}.a16{opacity:0;animation:a16 18.0s linear infinite}@keyframes a16{0.00%{opacity:0} 83.33%{opacity:0} 84.44%{opacity:1} 92.22%{opacity:1} 93.33%{opacity:0} 100.00%{opacity:0}}.a17{transform:scaleX(1);transform-box:fill-box;transform-origin:0 50%;animation:a17 18.0s linear infinite}@keyframes a17{0.00%{transform:scaleX(0)} 84.44%{transform:scaleX(0)} 91.67%{transform:scaleX(1)} 100.00%{transform:scaleX(1)}}.a18{transform:translate(34px,20px);animation:a18 18.0s linear infinite}@keyframes a18{0.00%{transform:translate(34px,20px);animation-timing-function:ease-in-out} 72.22%{transform:translate(34px,20px);animation-timing-function:ease-in-out} 80.00%{transform:translate(390px,250px);animation-timing-function:ease-in-out} 100.00%{transform:translate(390px,250px);animation-timing-function:ease-in-out}}.a19{opacity:0;animation:a19 18.0s linear infinite}@keyframes a19{0.00%{opacity:0} 72.22%{opacity:0} 73.06%{opacity:1} 80.28%{opacity:1} 81.11%{opacity:0} 100.00%{opacity:0}}.a20{transform:translate(226px,212px);animation:a20 18.0s linear infinite}@keyframes a20{0.00%{transform:translate(330px,330px);animation-timing-function:ease-in-out} 4.44%{transform:translate(58px,54px);animation-timing-function:ease-in-out} 7.78%{transform:translate(58px,54px);animation-timing-function:ease-in-out} 10.56%{transform:translate(204px,114px);animation-timing-function:ease-in-out} 12.78%{transform:translate(204px,114px);animation-timing-function:ease-in-out} 16.11%{transform:translate(226px,212px);animation-timing-function:ease-in-out} 32.22%{transform:translate(226px,212px);animation-timing-function:ease-in-out} 36.67%{transform:translate(376px,224px);animation-timing-function:ease-in-out} 44.44%{transform:translate(376px,224px);animation-timing-function:ease-in-out} 49.44%{transform:translate(336px,310px);animation-timing-function:ease-in-out} 53.33%{transform:translate(336px,310px);animation-timing-function:ease-in-out} 65.56%{transform:translate(520px,340px);animation-timing-function:ease-in-out} 71.11%{transform:translate(58px,54px);animation-timing-function:ease-in-out} 72.22%{transform:translate(58px,54px);animation-timing-function:ease-in-out} 80.00%{transform:translate(420px,280px);animation-timing-function:ease-in-out} 93.33%{transform:translate(420px,280px);animation-timing-function:ease-in-out} 100.00%{transform:translate(330px,330px);animation-timing-function:ease-in-out}}@media (prefers-reduced-motion:reduce){*{animation:none!important}}</style>
<rect x="155.8" y="16" width="91.6" height="30" rx="15" fill="#ecebe6" stroke="#dcdad3" stroke-width="1.5"/>
<text x="201.6" y="35.5" font-family="'SF Mono','Menlo','Consolas',monospace" font-size="11" font-weight="700" fill="#5b5a55" text-anchor="middle" letter-spacing=".5">01 SHARE</text>
<g class="a1">
<rect x="155.8" y="16" width="91.6" height="30" rx="15" fill="#17171a"/>
<text x="201.6" y="35.5" font-family="'SF Mono','Menlo','Consolas',monospace" font-size="11" font-weight="700" fill="#ffffff" text-anchor="middle" letter-spacing=".5">01 SHARE</text>
</g>
<rect x="255.4" y="16" width="140.8" height="30" rx="15" fill="#ecebe6" stroke="#dcdad3" stroke-width="1.5"/>
<text x="325.8" y="35.5" font-family="'SF Mono','Menlo','Consolas',monospace" font-size="11" font-weight="700" fill="#5b5a55" text-anchor="middle" letter-spacing=".5">02 AUTO DELETE</text>
<g class="a2">
<rect x="255.4" y="16" width="140.8" height="30" rx="15" fill="#17171a"/>
<text x="325.8" y="35.5" font-family="'SF Mono','Menlo','Consolas',monospace" font-size="11" font-weight="700" fill="#ffffff" text-anchor="middle" letter-spacing=".5">02 AUTO DELETE</text>
</g>
<rect x="404.2" y="16" width="108.0" height="30" rx="15" fill="#ecebe6" stroke="#dcdad3" stroke-width="1.5"/>
<text x="458.2" y="35.5" font-family="'SF Mono','Menlo','Consolas',monospace" font-size="11" font-weight="700" fill="#5b5a55" text-anchor="middle" letter-spacing=".5">03 EXTRACT</text>
<g class="a3">
<rect x="404.2" y="16" width="108.0" height="30" rx="15" fill="#17171a"/>
<text x="458.2" y="35.5" font-family="'SF Mono','Menlo','Consolas',monospace" font-size="11" font-weight="700" fill="#ffffff" text-anchor="middle" letter-spacing=".5">03 EXTRACT</text>
</g>
<g transform="translate(0 34)">
<path d="M34 26 a6 6 0 0 1 6 -6 h26 l14 14 v42 a6 6 0 0 1 -6 6 h-34 a6 6 0 0 1 -6 -6 z" fill="#ffffff" stroke="#dcdad3" stroke-width="2"/>
<path d="M66 20 v10 a4 4 0 0 0 4 4 h10" fill="none" stroke="#dcdad3" stroke-width="2"/>
<rect x="30" y="50" width="40" height="16" rx="4" fill="#b3242b"/>
<text x="50.0" y="62.0" font-family="'SF Mono','Menlo','Consolas',monospace" font-size="10" font-weight="800" fill="#ffffff" text-anchor="middle" letter-spacing=".5">ZIP</text>
<text x="57.0" y="104.0" font-family="'SF Mono','Menlo','Consolas',monospace" font-size="11" font-weight="400" fill="#17171a" text-anchor="middle">REPORT.ZIP</text>
<g class="a4">
<path d="M34 136 a6 6 0 0 1 6 -6 h26 l14 14 v42 a6 6 0 0 1 -6 6 h-34 a6 6 0 0 1 -6 -6 z" fill="#ffffff" stroke="#dcdad3" stroke-width="2"/>
<path d="M66 130 v10 a4 4 0 0 0 4 4 h10" fill="none" stroke="#dcdad3" stroke-width="2"/>
<rect x="30" y="160" width="40" height="16" rx="4" fill="#1e50a2"/>
<text x="50.0" y="172.0" font-family="'SF Mono','Menlo','Consolas',monospace" font-size="10" font-weight="800" fill="#ffffff" text-anchor="middle" letter-spacing=".5">XLS</text>
<text x="57.0" y="214.0" font-family="'SF Mono','Menlo','Consolas',monospace" font-size="11" font-weight="400" fill="#17171a" text-anchor="middle">REPORT.XLSX</text>
</g>
<g class="a5">
<rect x="94" y="40" width="200" height="146" rx="12" fill="#ffffff" stroke="#dcdad3" stroke-width="2"/>
<rect x="110" y="56" width="12" height="12" rx="3" fill="#ecebe6"/>
<rect x="130.0" y="59.0" width="110.0" height="6" rx="3.0" fill="#ecebe6"/>
<rect x="110" y="82" width="12" height="12" rx="3" fill="#ecebe6"/>
<rect x="130.0" y="85.0" width="90.0" height="6" rx="3.0" fill="#ecebe6"/>
<rect x="102" y="102" width="184" height="24" rx="7" fill="#b3242b" opacity=".16"/>
<rect x="110" y="108" width="12" height="12" rx="3" fill="#b3242b"/>
<text x="130.0" y="118.5" font-family="'SF Mono','Menlo','Consolas',monospace" font-size="11" font-weight="700" fill="#17171a" text-anchor="start">SHARE TO DRIVE</text>
<rect x="110" y="134" width="12" height="12" rx="3" fill="#ecebe6"/>
<rect x="130.0" y="137.0" width="120.0" height="6" rx="3.0" fill="#ecebe6"/>
<rect x="110" y="160" width="12" height="12" rx="3" fill="#ecebe6"/>
<rect x="130.0" y="163.0" width="80.0" height="6" rx="3.0" fill="#ecebe6"/>
</g>
<g class="a6">
<rect x="164" y="116" width="360" height="230" rx="14" fill="#ffffff" stroke="#dcdad3" stroke-width="2"/>
<text x="344.0" y="148.0" font-family="'SF Mono','Menlo','Consolas',monospace" font-size="13" font-weight="700" fill="#17171a" text-anchor="middle" letter-spacing="1.5">SHARE</text>
<line x1="184" y1="162" x2="504" y2="162" stroke="#ecebe6" stroke-width="2"/>
<rect x="194" y="178" width="64" height="64" rx="14" fill="#ecebe6" stroke="#17171a" stroke-width="2.5"/>
<path d="M222 196 h8 l14 24 l-4 7 h-28 l-4 -7 z" fill="#1e50a2"/><path d="M208 220 l14 -24" stroke="#ffffff" stroke-width="3"/>
<rect x="272" y="178" width="64" height="64" rx="14" fill="#ecebe6"/>
<path d="M288 218 a8 8 0 0 1 2 -16 a11 11 0 0 1 21 -2 a8 8 0 0 1 9 18 z" fill="#8f77b5"/>
<rect x="350" y="178" width="64" height="64" rx="14" fill="#ecebe6"/>
<path d="M368 200 l14 -6 l14 6 l-14 6 z M368 206 l14 6 l14 -6 v12 l-14 7 l-14 -7 z" fill="#5b5a55"/>
<rect x="428" y="178" width="64" height="64" rx="14" fill="#ecebe6"/>
<rect x="444" y="199" width="32" height="22" rx="4" fill="#b3242b"/><path d="M444 201 l16 11 l16 -11" fill="none" stroke="#ffffff" stroke-width="2.5"/>
<rect x="194" y="272" width="300" height="14" rx="7" fill="#ecebe6"/>
<rect class="a7" x="194" y="272" width="300" height="14" rx="7" fill="#1e50a2"/>
<g class="a8"><circle cx="344.0" cy="316" r="12" fill="#1e50a2"/><path d="M338.0 316 l4 4 l8 -8" fill="none" stroke="#ffffff" stroke-width="3" stroke-linecap="round" stroke-linejoin="round"/></g>
</g>
<g class="a9">
<rect x="130" y="66" width="480" height="306" rx="14" fill="#ffffff" stroke="#dcdad3" stroke-width="2"/>
<rect x="146" y="80" width="20" height="16" rx="4" fill="#b3242b"/>
<text x="156.0" y="92.0" font-family="'SF Mono','Menlo','Consolas',monospace" font-size="7" font-weight="800" fill="#ffffff" text-anchor="middle">ZIP</text>
<text x="174.0" y="93.0" font-family="'SF Mono','Menlo','Consolas',monospace" font-size="13" font-weight="700" fill="#17171a" text-anchor="start">ezZip</text>
<path transform="translate(548 88)" d="M-5 0 h10" fill="none" stroke="#5b5a55" stroke-width="2" stroke-linecap="round"/>
<path transform="translate(568 88)" d="M-5 -5 h10 v10 h-10 z" fill="none" stroke="#5b5a55" stroke-width="2" stroke-linecap="round"/>
<path transform="translate(588 88)" d="M-5 -5 l10 10 M5 -5 l-10 10" fill="none" stroke="#5b5a55" stroke-width="2" stroke-linecap="round"/>
<rect x="148.0" y="126.0" width="80.0" height="10" rx="5.0" fill="#ecebe6"/>
<rect x="148.0" y="148.0" width="64.0" height="10" rx="5.0" fill="#ecebe6"/>
<rect x="148.0" y="170.0" width="88.0" height="10" rx="5.0" fill="#ecebe6"/>
<rect x="148.0" y="192.0" width="70.0" height="10" rx="5.0" fill="#ecebe6"/>
<rect x="148.0" y="214.0" width="76.0" height="10" rx="5.0" fill="#ecebe6"/>
<rect x="148.0" y="236.0" width="60.0" height="10" rx="5.0" fill="#ecebe6"/>
<rect x="254" y="118" width="338" height="236" rx="12" fill="#ecebe6" opacity=".45"/>
<path d="M276 142 h18 M280 142 v16 a2 2 0 0 0 2 2 h8 a2 2 0 0 0 2 -2 v-16 M282 138 h6" fill="none" stroke="#b3242b" stroke-width="2.5" stroke-linecap="round"/>
<text x="304.0" y="154.0" font-family="'SF Mono','Menlo','Consolas',monospace" font-size="13" font-weight="700" fill="#17171a" text-anchor="start" letter-spacing=".5">AUTO DELETE ORIGINAL</text>
<text x="276.0" y="194.0" font-family="'SF Mono','Menlo','Consolas',monospace" font-size="11" font-weight="400" fill="#5b5a55" text-anchor="start" letter-spacing=".5">KEEP FOR</text>
<rect x="276" y="206" width="150" height="34" rx="9" fill="#ffffff" stroke="#17171a" stroke-width="2"/>
<path d="M402 220 l6 6 l6 -6" fill="none" stroke="#17171a" stroke-width="2" stroke-linecap="round"/>
<g class="a10">
<text x="292.0" y="228.0" font-family="'SF Mono','Menlo','Consolas',monospace" font-size="13" font-weight="700" fill="#17171a" text-anchor="start">7 DAYS</text>
</g>
<g class="a11">
<text x="292.0" y="228.0" font-family="'SF Mono','Menlo','Consolas',monospace" font-size="13" font-weight="700" fill="#b3242b" text-anchor="start">30 DAYS</text>
</g>
<rect x="446.0" y="220.0" width="110.0" height="7" rx="3.5" fill="#ecebe6"/>
<g class="a12">
<rect x="276" y="246" width="150" height="142" rx="9" fill="#ffffff" stroke="#dcdad3" stroke-width="2"/>
<text x="292.0" y="268.5" font-family="'SF Mono','Menlo','Consolas',monospace" font-size="12" font-weight="400" fill="#17171a" text-anchor="start">7 DAYS</text>
<text x="292.0" y="294.5" font-family="'SF Mono','Menlo','Consolas',monospace" font-size="12" font-weight="400" fill="#17171a" text-anchor="start">14 DAYS</text>
<rect x="282" y="304" width="138" height="24" rx="6" fill="#b3242b" opacity=".16"/>
<text x="292.0" y="320.5" font-family="'SF Mono','Menlo','Consolas',monospace" font-size="12" font-weight="700" fill="#b3242b" text-anchor="start">30 DAYS</text>
<text x="292.0" y="346.5" font-family="'SF Mono','Menlo','Consolas',monospace" font-size="12" font-weight="400" fill="#17171a" text-anchor="start">60 DAYS</text>
<text x="292.0" y="372.5" font-family="'SF Mono','Menlo','Consolas',monospace" font-size="12" font-weight="400" fill="#17171a" text-anchor="start">180 DAYS</text>
</g>
</g>
<g class="a13">
<rect x="150" y="60" width="470" height="316" rx="14" fill="#ffffff" stroke="#dcdad3" stroke-width="2"/>
<rect x="166" y="74" width="20" height="16" rx="4" fill="#b3242b"/>
<text x="176.0" y="86.0" font-family="'SF Mono','Menlo','Consolas',monospace" font-size="7" font-weight="800" fill="#ffffff" text-anchor="middle">ZIP</text>
<text x="194.0" y="87.0" font-family="'SF Mono','Menlo','Consolas',monospace" font-size="13" font-weight="700" fill="#17171a" text-anchor="start">ezZip</text>
<path transform="translate(558 82)" d="M-5 0 h10" fill="none" stroke="#5b5a55" stroke-width="2" stroke-linecap="round"/>
<path transform="translate(578 82)" d="M-5 -5 h10 v10 h-10 z" fill="none" stroke="#5b5a55" stroke-width="2" stroke-linecap="round"/>
<path transform="translate(598 82)" d="M-5 -5 l10 10 M5 -5 l-10 10" fill="none" stroke="#5b5a55" stroke-width="2" stroke-linecap="round"/>
<rect x="168" y="108" width="24" height="24" rx="6" fill="#b3242b"/>
<rect x="202" y="108" width="24" height="24" rx="6" fill="#b3242b"/>
<rect x="236" y="108" width="24" height="24" rx="6" fill="#ecebe6"/>
<rect x="270" y="108" width="24" height="24" rx="6" fill="#ecebe6"/>
<rect x="304" y="108" width="24" height="24" rx="6" fill="#ecebe6"/>
<rect x="338" y="108" width="24" height="24" rx="6" fill="#ecebe6"/>
<rect x="372" y="108" width="24" height="24" rx="6" fill="#ecebe6"/>
<rect x="406" y="108" width="24" height="24" rx="6" fill="#ecebe6"/>
<line x1="166" y1="144" x2="604" y2="144" stroke="#ecebe6" stroke-width="2"/>
<g class="a14"><circle cx="385.0" cy="270" r="18" fill="#ecebe6"/><path d="M377.0 270 h16 M385.0 262 v16" stroke="#17171a" stroke-width="3" stroke-linecap="round"/></g>
<g class="a15">
<rect x="166.0" y="160" width="211.0" height="198" rx="12" fill="#ffffff" fill-opacity="1" stroke="#b3242b" stroke-width="2" stroke-dasharray="7 6"/>
<text x="271.5" y="264.0" font-family="'SF Mono','Menlo','Consolas',monospace" font-size="13" font-weight="700" fill="#17171a" text-anchor="middle" letter-spacing="1">OPEN</text>
<rect x="393.0" y="160" width="211.0" height="198" rx="12" fill="#b3242b" fill-opacity="0.12" stroke="#b3242b" stroke-width="2" stroke-dasharray="7 6"/>
<text x="498.5" y="264.0" font-family="'SF Mono','Menlo','Consolas',monospace" font-size="13" font-weight="700" fill="#b3242b" text-anchor="middle" letter-spacing="1">EXTRACT</text>
</g>
<g class="a16">
<rect x="150" y="60" width="470" height="316" rx="14" fill="#17171a" opacity=".35"/>
<rect x="255.0" y="190" width="260" height="96" rx="12" fill="#ffffff" stroke="#dcdad3" stroke-width="2"/>
<text x="275.0" y="222.0" font-family="'SF Mono','Menlo','Consolas',monospace" font-size="13" font-weight="700" fill="#17171a" text-anchor="start" letter-spacing=".5">EXTRACTING…</text>
<rect x="275.0" y="242" width="220" height="12" rx="6" fill="#ecebe6"/>
<rect class="a17" x="275.0" y="242" width="220" height="12" rx="6" fill="#b3242b"/>
</g>
</g>
<g class="a19"><g class="a18" opacity=".85">
<path d="M0 6 a6 6 0 0 1 6 -6 h26 l14 14 v42 a6 6 0 0 1 -6 6 h-34 a6 6 0 0 1 -6 -6 z" fill="#ffffff" stroke="#dcdad3" stroke-width="2"/>
<path d="M32 0 v10 a4 4 0 0 0 4 4 h10" fill="none" stroke="#dcdad3" stroke-width="2"/>
<rect x="-4" y="30" width="40" height="16" rx="4" fill="#b3242b"/>
<text x="16.0" y="42.0" font-family="'SF Mono','Menlo','Consolas',monospace" font-size="10" font-weight="800" fill="#ffffff" text-anchor="middle" letter-spacing=".5">ZIP</text>
<text x="23.0" y="84.0" font-family="'SF Mono','Menlo','Consolas',monospace" font-size="11" font-weight="400" fill="#17171a" text-anchor="middle"></text>
</g></g>
<g class="a20">
<path d="M0 0 v22 l6 -6 l5 11 l4 -2 l-5 -11 h8 z" fill="#17171a" stroke="#ffffff" stroke-width="2" stroke-linejoin="round"/>
</g>
</g>
</svg>