<svg xmlns="http://www.w3.org/2000/svg" viewBox="0 0 1200 440" width="1200" height="440">
<rect width="1200" height="440" fill="#1b1b1e"/>
<g fill="#2a2a2f"><circle cx="12" cy="12" r="1.1"/><circle cx="12" cy="36" r="1.1"/><circle cx="12" cy="60" r="1.1"/><circle cx="12" cy="84" r="1.1"/><circle cx="12" cy="108" r="1.1"/><circle cx="12" cy="132" r="1.1"/><circle cx="12" cy="156" r="1.1"/><circle cx="12" cy="180" r="1.1"/><circle cx="12" cy="204" r="1.1"/><circle cx="12" cy="228" r="1.1"/><circle cx="12" cy="252" r="1.1"/><circle cx="12" cy="276" r="1.1"/><circle cx="12" cy="300" r="1.1"/><circle cx="12" cy="324" r="1.1"/><circle cx="12" cy="348" r="1.1"/><circle cx="12" cy="372" r="1.1"/><circle cx="12" cy="396" r="1.1"/><circle cx="12" cy="420" r="1.1"/><circle cx="36" cy="12" r="1.1"/><circle cx="36" cy="36" r="1.1"/><circle cx="36" cy="60" r="1.1"/><circle cx="36" cy="84" r="1.1"/><circle cx="36" cy="108" r="1.1"/><circle cx="36" cy="132" r="1.1"/><circle cx="36" cy="156" r="1.1"/><circle cx="36" cy="180" r="1.1"/><circle cx="36" cy="204" r="1.1"/><circle cx="36" cy="228" r="1.1"/><circle cx="36" cy="252" r="1.1"/><circle cx="36" cy="276" r="1.1"/><circle cx="36" cy="300" r="1.1"/><circle cx="36" cy="324" r="1.1"/><circle cx="36" cy="348" r="1.1"/><circle cx="36" cy="372" r="1.1"/><circle cx="36" cy="396" r="1.1"/><circle cx="36" cy="420" r="1.1"/><circle cx="60" cy="12" r="1.1"/><circle cx="60" cy="36" r="1.1"/><circle cx="60" cy="60" r="1.1"/><circle cx="60" cy="84" r="1.1"/><circle cx="60" cy="108" r="1.1"/><circle cx="60" cy="132" r="1.1"/><circle cx="60" cy="156" r="1.1"/><circle cx="60" cy="180" r="1.1"/><circle cx="60" cy="204" r="1.1"/><circle cx="60" cy="228" r="1.1"/><circle cx="60" cy="252" r="1.1"/><circle cx="60" cy="276" r="1.1"/><circle cx="60" cy="300" r="1.1"/><circle cx="60" cy="324" r="1.1"/><circle cx="60" cy="348" r="1.1"/><circle cx="60" cy="372" r="1.1"/><circle cx="60" cy="396" r="1.1"/><circle cx="60" cy="420" r="1.1"/><circle cx="84" cy="12" r="1.1"/><circle cx="84" cy="36" r="1.1"/><circle cx="84" cy="60" r="1.1"/><circle cx="84" cy="84" r="1.1"/><circle cx="84" cy="108" r="1.1"/><circle cx="84" cy="132" r="1.1"/><circle cx="84" cy="156" r="1.1"/><circle cx="84" cy="180" r="1.1"/><circle cx="84" cy="204" r="1.1"/><circle cx="84" cy="228" r="1.1"/><circle cx="84" cy="252" r="1.1"/><circle cx="84" cy="276" r="1.1"/><circle cx="84" cy="300" r="1.1"/><circle cx="84" cy="324" r="1.1"/><circle cx="84" cy="348" r="1.1"/><circle cx="84" cy="372" r="1.1"/><circle cx="84" cy="396" r="1.1"/><circle cx="84" cy="420" r="1.1"/><circle cx="108" cy="12" r="1.1"/><circle cx="108" cy="36" r="1.1"/><circle cx="108" cy="60" r="1.1"/><circle cx="108" cy="84" r="1.1"/><circle cx="108" cy="108" r="1.1"/><circle cx="108" cy="132" r="1.1"/><circle cx="108" cy="156" r="1.1"/><circle cx="108" cy="180" r="1.1"/><circle cx="108" cy="204" r="1.1"/><circle cx="108" cy="228" r="1.1"/><circle cx="108" cy="252" r="1.1"/><circle cx="108" cy="276" r="1.1"/><circle cx="108" cy="300" r="1.1"/><circle cx="108" cy="324" r="1.1"/><circle cx="108" cy="348" r="1.1"/><circle cx="108" cy="372" r="1.1"/><circle cx="108" cy="396" r="1.1"/><circle cx="108" cy="420" r="1.1"/><circle cx="132" cy="12" r="1.1"/><circle cx="132" cy="36" r="1.1"/><circle cx="132" cy="60" r="1.1"/><circle cx="132" cy="84" r="1.1"/><circle cx="132" cy="108" r="1.1"/><circle cx="132" cy="132" r="1.1"/><circle cx="132" cy="156" r="1.1"/><circle cx="132" cy="180" r="1.1"/><circle cx="132" cy="204" r="1.1"/><circle cx="132" cy="228" r="1.1"/><circle cx="132" cy="252" r="1.1"/><circle cx="132" cy="276" r="1.1"/><circle cx="132" cy="300" r="1.1"/><circle cx="132" cy="324" r="1.1"/><circle cx="132" cy="348" r="1.1"/><circle cx="132" cy="372" r="1.1"/><circle cx="132" cy="396" r="1.1"/><circle cx="132" cy="420" r="1.1"/><circle cx="156" cy="12" r="1.1"/><circle cx="156" cy="36" r="1.1"/><circle cx="156" cy="60" r="1.1"/><circle cx="156" cy="84" r="1.1"/><circle cx="156" cy="108" r="1.1"/><circle cx="156" cy="132" r="1.1"/><circle cx="156" cy="156" r="1.1"/><circle cx="156" cy="180" r="1.1"/><circle cx="156" cy="204" r="1.1"/><circle cx="156" cy="228" r="1.1"/><circle cx="156" cy="252" r="1.1"/><circle cx="156" cy="276" r="1.1"/><circle cx="156" cy="300" r="1.1"/><circle cx="156" cy="324" r="1.1"/><circle cx="156" cy="348" r="1.1"/><circle cx="156" cy="372" r="1.1"/><circle cx="156" cy="396" r="1.1"/><circle cx="156" cy="420" r="1.1"/><circle cx="180" cy="12" r="1.1"/><circle cx="180" cy="36" r="1.1"/><circle cx="180" cy="60" r="1.1"/><circle cx="180" cy="84" r="1.1"/><circle cx="180" cy="108" r="1.1"/><circle cx="180" cy="132" r="1.1"/><circle cx="180" cy="156" r="1.1"/><circle cx="180" cy="180" r="1.1"/><circle cx="180" cy="204" r="1.1"/><circle cx="180" cy="228" r="1.1"/><circle cx="180" cy="252" r="1.1"/><circle cx="180" cy="276" r="1.1"/><circle cx="180" cy="300" r="1.1"/><circle cx="180" cy="324" r="1.1"/><circle cx="180" cy="348" r="1.1"/><circle cx="180" cy="372" r="1.1"/><circle cx="180" cy="396" r="1.1"/><circle cx="180" cy="420" r="1.1"/><circle cx="204" cy="12" r="1.1"/><circle cx="204" cy="36" r="1.1"/><circle cx="204" cy="60" r="1.1"/><circle cx="204" cy="84" r="1.1"/><circle cx="204" cy="108" r="1.1"/><circle cx="204" cy="132" r="1.1"/><circle cx="204" cy="156" r="1.1"/><circle cx="204" cy="180" r="1.1"/><circle cx="204" cy="204" r="1.1"/><circle cx="204" cy="228" r="1.1"/><circle cx="204" cy="252" r="1.1"/><circle cx="204" cy="276" r="1.1"/><circle cx="204" cy="300" r="1.1"/><circle cx="204" cy="324" r="1.1"/><circle cx="204" cy="348" r="1.1"/><circle cx="204" cy="372" r="1.1"/><circle cx="204" cy="396" r="1.1"/><circle cx="204" cy="420" r="1.1"/><circle cx="228" cy="12" r="1.1"/><circle cx="228" cy="36" r="1.1"/><circle cx="228" cy="60" r="1.1"/><circle cx="228" cy="84" r="1.1"/><circle cx="228" cy="108" r="1.1"/><circle cx="228" cy="132" r="1.1"/><circle cx="228" cy="156" r="1.1"/><circle cx="228" cy="180" r="1.1"/><circle cx="228" cy="204" r="1.1"/><circle cx="228" cy="228" r="1.1"/><circle cx="228" cy="252" r="1.1"/><circle cx="228" cy="276" r="1.1"/><circle cx="228" cy="300" r="1.1"/><circle cx="228" cy="324" r="1.1"/><circle cx="228" cy="348" r="1.1"/><circle cx="228" cy="372" r="1.1"/><circle cx="228" cy="396" r="1.1"/><circle cx="228" cy="420" r="1.1"/><circle cx="252" cy="12" r="1.1"/><circle cx="252" cy="36" r="1.1"/><circle cx="252" cy="60" r="1.1"/><circle cx="252" cy="84" r="1.1"/><circle cx="252" cy="108" r="1.1"/><circle cx="252" cy="132" r="1.1"/><circle cx="252" cy="156" r="1.1"/><circle cx="252" cy="180" r="1.1"/><circle cx="252" cy="204" r="1.1"/><circle cx="252" cy="228" r="1.1"/><circle cx="252" cy="252" r="1.1"/><circle cx="252" cy="276" r="1.1"/><circle cx="252" cy="300" r="1.1"/><circle cx="252" cy="324" r="1.1"/><circle cx="252" cy="348" r="1.1"/><circle cx="252" cy="372" r="1.1"/><circle cx="252" cy="396" r="1.1"/><circle cx="252" cy="420" r="1.1"/><circle cx="276" cy="12" r="1.1"/><circle cx="276" cy="36" r="1.1"/><circle cx="276" cy="60" r="1.1"/><circle cx="276" cy="84" r="1.1"/><circle cx="276" cy="108" r="1.1"/><circle cx="276" cy="132" r="1.1"/><circle cx="276" cy="156" r="1.1"/><circle cx="276" cy="180" r="1.1"/><circle cx="276" cy="204" r="1.1"/><circle cx="276" cy="228" r="1.1"/><circle cx="276" cy="252" r="1.1"/><circle cx="276" cy="276" r="1.1"/><circle cx="276" cy="300" r="1.1"/><circle cx="276" cy="324" r="1.1"/><circle cx="276" cy="348" r="1.1"/><circle cx="276" cy="372" r="1.1"/><circle cx="276" cy="396" r="1.1"/><circle cx="276" cy="420" r="1.1"/><circle cx="300" cy="12" r="1.1"/><circle cx="300" cy="36" r="1.1"/><circle cx="300" cy="60" r="1.1"/><circle cx="300" cy="84" r="1.1"/><circle cx="300" cy="108" r="1.1"/><circle cx="300" cy="132" r="1.1"/><circle cx="300" cy="156" r="1.1"/><circle cx="300" cy="180" r="1.1"/><circle cx="300" cy="204" r="1.1"/><circle cx="300" cy="228" r="1.1"/><circle cx="300" cy="252" r="1.1"/><circle cx="300" cy="276" r="1.1"/><circle cx="300" cy="300" r="1.1"/><circle cx="300" cy="324" r="1.1"/><circle cx="300" cy="348" r="1.1"/><circle cx="300" cy="372" r="1.1"/><circle cx="300" cy="396" r="1.1"/><circle cx="300" cy="420" r="1.1"/><circle cx="324" cy="12" r="1.1"/><circle cx="324" cy="36" r="1.1"/><circle cx="324" cy="60" r="1.1"/><circle cx="324" cy="84" r="1.1"/><circle cx="324" cy="108" r="1.1"/><circle cx="324" cy="132" r="1.1"/><circle cx="324" cy="156" r="1.1"/><circle cx="324" cy="180" r="1.1"/><circle cx="324" cy="204" r="1.1"/><circle cx="324" cy="228" r="1.1"/><circle cx="324" cy="252" r="1.1"/><circle cx="324" cy="276" r="1.1"/><circle cx="324" cy="300" r="1.1"/><circle cx="324" cy="324" r="1.1"/><circle cx="324" cy="348" r="1.1"/><circle cx="324" cy="372" r="1.1"/><circle cx="324" cy="396" r="1.1"/><circle cx="324" cy="420" r="1.1"/><circle cx="348" cy="12" r="1.1"/><circle cx="348" cy="36" r="1.1"/><circle cx="348" cy="60" r="1.1"/><circle cx="348" cy="84" r="1.1"/><circle cx="348" cy="108" r="1.1"/><circle cx="348" cy="132" r="1.1"/><circle cx="348" cy="156" r="1.1"/><circle cx="348" cy="180" r="1.1"/><circle cx="348" cy="204" r="1.1"/><circle cx="348" cy="228" r="1.1"/><circle cx="348" cy="252" r="1.1"/><circle cx="348" cy="276" r="1.1"/><circle cx="348" cy="300" r="1.1"/><circle cx="348" cy="324" r="1.1"/><circle cx="348" cy="348" r="1.1"/><circle cx="348" cy="372" r="1.1"/><circle cx="348" cy="396" r="1.1"/><circle cx="348" cy="420" r="1.1"/><circle cx="372" cy="12" r="1.1"/><circle cx="372" cy="36" r="1.1"/><circle cx="372" cy="60" r="1.1"/><circle cx="372" cy="84" r="1.1"/><circle cx="372" cy="108" r="1.1"/><circle cx="372" cy="132" r="1.1"/><circle cx="372" cy="156" r="1.1"/><circle cx="372" cy="180" r="1.1"/><circle cx="372" cy="204" r="1.1"/><circle cx="372" cy="228" r="1.1"/><circle cx="372" cy="252" r="1.1"/><circle cx="372" cy="276" r="1.1"/><circle cx="372" cy="300" r="1.1"/><circle cx="372" cy="324" r="1.1"/><circle cx="372" cy="348" r="1.1"/><circle cx="372" cy="372" r="1.1"/><circle cx="372" cy="396" r="1.1"/><circle cx="372" cy="420" r="1.1"/><circle cx="396" cy="12" r="1.1"/><circle cx="396" cy="36" r="1.1"/><circle cx="396" cy="60" r="1.1"/><circle cx="396" cy="84" r="1.1"/><circle cx="396" cy="108" r="1.1"/><circle cx="396" cy="132" r="1.1"/><circle cx="396" cy="156" r="1.1"/><circle cx="396" cy="180" r="1.1"/><circle cx="396" cy="204" r="1.1"/><circle cx="396" cy="228" r="1.1"/><circle cx="396" cy="252" r="1.1"/><circle cx="396" cy="276" r="1.1"/><circle cx="396" cy="300" r="1.1"/><circle cx="396" cy="324" r="1.1"/><circle cx="396" cy="348" r="1.1"/><circle cx="396" cy="372" r="1.1"/><circle cx="396" cy="396" r="1.1"/><circle cx="396" cy="420" r="1.1"/><circle cx="420" cy="12" r="1.1"/><circle cx="420" cy="36" r="1.1"/><circle cx="420" cy="60" r="1.1"/><circle cx="420" cy="84" r="1.1"/><circle cx="420" cy="108" r="1.1"/><circle cx="420" cy="132" r="1.1"/><circle cx="420" cy="156" r="1.1"/><circle cx="420" cy="180" r="1.1"/><circle cx="420" cy="204" r="1.1"/><circle cx="420" cy="228" r="1.1"/><circle cx="420" cy="252" r="1.1"/><circle cx="420" cy="276" r="1.1"/><circle cx="420" cy="300" r="1.1"/><circle cx="420" cy="324" r="1.1"/><circle cx="420" cy="348" r="1.1"/><circle cx="420" cy="372" r="1.1"/><circle cx="420" cy="396" r="1.1"/><circle cx="420" cy="420" r="1.1"/><circle cx="444" cy="12" r="1.1"/><circle cx="444" cy="36" r="1.1"/><circle cx="444" cy="60" r="1.1"/><circle cx="444" cy="84" r="1.1"/><circle cx="444" cy="108" r="1.1"/><circle cx="444" cy="132" r="1.1"/><circle cx="444" cy="156" r="1.1"/><circle cx="444" cy="180" r="1.1"/><circle cx="444" cy="204" r="1.1"/><circle cx="444" cy="228" r="1.1"/><circle cx="444" cy="252" r="1.1"/><circle cx="444" cy="276" r="1.1"/><circle cx="444" cy="300" r="1.1"/><circle cx="444" cy="324" r="1.1"/><circle cx="444" cy="348" r="1.1"/><circle cx="444" cy="372" r="1.1"/><circle cx="444" cy="396" r="1.1"/><circle cx="444" cy="420" r="1.1"/><circle cx="468" cy="12" r="1.1"/><circle cx="468" cy="36" r="1.1"/><circle cx="468" cy="60" r="1.1"/><circle cx="468" cy="84" r="1.1"/><circle cx="468" cy="108" r="1.1"/><circle cx="468" cy="132" r="1.1"/><circle cx="468" cy="156" r="1.1"/><circle cx="468" cy="180" r="1.1"/><circle cx="468" cy="204" r="1.1"/><circle cx="468" cy="228" r="1.1"/><circle cx="468" cy="252" r="1.1"/><circle cx="468" cy="276" r="1.1"/><circle cx="468" cy="300" r="1.1"/><circle cx="468" cy="324" r="1.1"/><circle cx="468" cy="348" r="1.1"/><circle cx="468" cy="372" r="1.1"/><circle cx="468" cy="396" r="1.1"/><circle cx="468" cy="420" r="1.1"/><circle cx="492" cy="12" r="1.1"/><circle cx="492" cy="36" r="1.1"/><circle cx="492" cy="60" r="1.1"/><circle cx="492" cy="84" r="1.1"/><circle cx="492" cy="108" r="1.1"/><circle cx="492" cy="132" r="1.1"/><circle cx="492" cy="156" r="1.1"/><circle cx="492" cy="180" r="1.1"/><circle cx="492" cy="204" r="1.1"/><circle cx="492" cy="228" r="1.1"/><circle cx="492" cy="252" r="1.1"/><circle cx="492" cy="276" r="1.1"/><circle cx="492" cy="300" r="1.1"/><circle cx="492" cy="324" r="1.1"/><circle cx="492" cy="348" r="1.1"/><circle cx="492" cy="372" r="1.1"/><circle cx="492" cy="396" r="1.1"/><circle cx="492" cy="420" r="1.1"/><circle cx="516" cy="12" r="1.1"/><circle cx="516" cy="36" r="1.1"/><circle cx="516" cy="60" r="1.1"/><circle cx="516" cy="84" r="1.1"/><circle cx="516" cy="108" r="1.1"/><circle cx="516" cy="132" r="1.1"/><circle cx="516" cy="156" r="1.1"/><circle cx="516" cy="180" r="1.1"/><circle cx="516" cy="204" r="1.1"/><circle cx="516" cy="228" r="1.1"/><circle cx="516" cy="252" r="1.1"/><circle cx="516" cy="276" r="1.1"/><circle cx="516" cy="300" r="1.1"/><circle cx="516" cy="324" r="1.1"/><circle cx="516" cy="348" r="1.1"/><circle cx="516" cy="372" r="1.1"/><circle cx="516" cy="396" r="1.1"/><circle cx="516" cy="420" r="1.1"/><circle cx="540" cy="12" r="1.1"/><circle cx="540" cy="36" r="1.1"/><circle cx="540" cy="60" r="1.1"/><circle cx="540" cy="84" r="1.1"/><circle cx="540" cy="108" r="1.1"/><circle cx="540" cy="132" r="1.1"/><circle cx="540" cy="156" r="1.1"/><circle cx="540" cy="180" r="1.1"/><circle cx="540" cy="204" r="1.1"/><circle cx="540" cy="228" r="1.1"/><circle cx="540" cy="252" r="1.1"/><circle cx="540" cy="276" r="1.1"/><circle cx="540" cy="300" r="1.1"/><circle cx="540" cy="324" r="1.1"/><circle cx="540" cy="348" r="1.1"/><circle cx="540" cy="372" r="1.1"/><circle cx="540" cy="396" r="1.1"/><circle cx="540" cy="420" r="1.1"/><circle cx="564" cy="12" r="1.1"/><circle cx="564" cy="36" r="1.1"/><circle cx="564" cy="60" r="1.1"/><circle cx="564" cy="84" r="1.1"/><circle cx="564" cy="108" r="1.1"/><circle cx="564" cy="132" r="1.1"/><circle cx="564" cy="156" r="1.1"/><circle cx="564" cy="180" r="1.1"/><circle cx="564" cy="204" r="1.1"/><circle cx="564" cy="228" r="1.1"/><circle cx="564" cy="252" r="1.1"/><circle cx="564" cy="276" r="1.1"/><circle cx="564" cy="300" r="1.1"/><circle cx="564" cy="324" r="1.1"/><circle cx="564" cy="348" r="1.1"/><circle cx="564" cy="372" r="1.1"/><circle cx="564" cy="396" r="1.1"/><circle cx="564" cy="420" r="1.1"/><circle cx="588" cy="12" r="1.1"/><circle cx="588" cy="36" r="1.1"/><circle cx="588" cy="60" r="1.1"/><circle cx="588" cy="84" r="1.1"/><circle cx="588" cy="108" r="1.1"/><circle cx="588" cy="132" r="1.1"/><circle cx="588" cy="156" r="1.1"/><circle cx="588" cy="180" r="1.1"/><circle cx="588" cy="204" r="1.1"/><circle cx="588" cy="228" r="1.1"/><circle cx="588" cy="252" r="1.1"/><circle cx="588" cy="276" r="1.1"/><circle cx="588" cy="300" r="1.1"/><circle cx="588" cy="324" r="1.1"/><circle cx="588" cy="348" r="1.1"/><circle cx="588" cy="372" r="1.1"/><circle cx="588" cy="396" r="1.1"/><circle cx="588" cy="420" r="1.1"/><circle cx="612" cy="12" r="1.1"/><circle cx="612" cy="36" r="1.1"/><circle cx="612" cy="60" r="1.1"/><circle cx="612" cy="84" r="1.1"/><circle cx="612" cy="108" r="1.1"/><circle cx="612" cy="132" r="1.1"/><circle cx="612" cy="156" r="1.1"/><circle cx="612" cy="180" r="1.1"/><circle cx="612" cy="204" r="1.1"/><circle cx="612" cy="228" r="1.1"/><circle cx="612" cy="252" r="1.1"/><circle cx="612" cy="276" r="1.1"/><circle cx="612" cy="300" r="1.1"/><circle cx="612" cy="324" r="1.1"/><circle cx="612" cy="348" r="1.1"/><circle cx="612" cy="372" r="1.1"/><circle cx="612" cy="396" r="1.1"/><circle cx="612" cy="420" r="1.1"/><circle cx="636" cy="12" r="1.1"/><circle cx="636" cy="36" r="1.1"/><circle cx="636" cy="60" r="1.1"/><circle cx="636" cy="84" r="1.1"/><circle cx="636" cy="108" r="1.1"/><circle cx="636" cy="132" r="1.1"/><circle cx="636" cy="156" r="1.1"/><circle cx="636" cy="180" r="1.1"/><circle cx="636" cy="204" r="1.1"/><circle cx="636" cy="228" r="1.1"/><circle cx="636" cy="252" r="1.1"/><circle cx="636" cy="276" r="1.1"/><circle cx="636" cy="300" r="1.1"/><circle cx="636" cy="324" r="1.1"/><circle cx="636" cy="348" r="1.1"/><circle cx="636" cy="372" r="1.1"/><circle cx="636" cy="396" r="1.1"/><circle cx="636" cy="420" r="1.1"/><circle cx="660" cy="12" r="1.1"/><circle cx="660" cy="36" r="1.1"/><circle cx="660" cy="60" r="1.1"/><circle cx="660" cy="84" r="1.1"/><circle cx="660" cy="108" r="1.1"/><circle cx="660" cy="132" r="1.1"/><circle cx="660" cy="156" r="1.1"/><circle cx="660" cy="180" r="1.1"/><circle cx="660" cy="204" r="1.1"/><circle cx="660" cy="228" r="1.1"/><circle cx="660" cy="252" r="1.1"/><circle cx="660" cy="276" r="1.1"/><circle cx="660" cy="300" r="1.1"/><circle cx="660" cy="324" r="1.1"/><circle cx="660" cy="348" r="1.1"/><circle cx="660" cy="372" r="1.1"/><circle cx="660" cy="396" r="1.1"/><circle cx="660" cy="420" r="1.1"/><circle cx="684" cy="12" r="1.1"/><circle cx="684" cy="36" r="1.1"/><circle cx="684" cy="60" r="1.1"/><circle cx="684" cy="84" r="1.1"/><circle cx="684" cy="108" r="1.1"/><circle cx="684" cy="132" r="1.1"/><circle cx="684" cy="156" r="1.1"/><circle cx="684" cy="180" r="1.1"/><circle cx="684" cy="204" r="1.1"/><circle cx="684" cy="228" r="1.1"/><circle cx="684" cy="252" r="1.1"/><circle cx="684" cy="276" r="1.1"/><circle cx="684" cy="300" r="1.1"/><circle cx="684" cy="324" r="1.1"/><circle cx="684" cy="348" r="1.1"/><circle cx="684" cy="372" r="1.1"/><circle cx="684" cy="396" r="1.1"/><circle cx="684" cy="420" r="1.1"/><circle cx="708" cy="12" r="1.1"/><circle cx="708" cy="36" r="1.1"/><circle cx="708" cy="60" r="1.1"/><circle cx="708" cy="84" r="1.1"/><circle cx="708" cy="108" r="1.1"/><circle cx="708" cy="132" r="1.1"/><circle cx="708" cy="156" r="1.1"/><circle cx="708" cy="180" r="1.1"/><circle cx="708" cy="204" r="1.1"/><circle cx="708" cy="228" r="1.1"/><circle cx="708" cy="252" r="1.1"/><circle cx="708" cy="276" r="1.1"/><circle cx="708" cy="300" r="1.1"/><circle cx="708" cy="324" r="1.1"/><circle cx="708" cy="348" r="1.1"/><circle cx="708" cy="372" r="1.1"/><circle cx="708" cy="396" r="1.1"/><circle cx="708" cy="420" r="1.1"/><circle cx="732" cy="12" r="1.1"/><circle cx="732" cy="36" r="1.1"/><circle cx="732" cy="60" r="1.1"/><circle cx="732" cy="84" r="1.1"/><circle cx="732" cy="108" r="1.1"/><circle cx="732" cy="132" r="1.1"/><circle cx="732" cy="156" r="1.1"/><circle cx="732" cy="180" r="1.1"/><circle cx="732" cy="204" r="1.1"/><circle cx="732" cy="228" r="1.1"/><circle cx="732" cy="252" r="1.1"/><circle cx="732" cy="276" r="1.1"/><circle cx="732" cy="300" r="1.1"/><circle cx="732" cy="324" r="1.1"/><circle cx="732" cy="348" r="1.1"/><circle cx="732" cy="372" r="1.1"/><circle cx="732" cy="396" r="1.1"/><circle cx="732" cy="420" r="1.1"/><circle cx="756" cy="12" r="1.1"/><circle cx="756" cy="36" r="1.1"/><circle cx="756" cy="60" r="1.1"/><circle cx="756" cy="84" r="1.1"/><circle cx="756" cy="108" r="1.1"/><circle cx="756" cy="132" r="1.1"/><circle cx="756" cy="156" r="1.1"/><circle cx="756" cy="180" r="1.1"/><circle cx="756" cy="204" r="1.1"/><circle cx="756" cy="228" r="1.1"/><circle cx="756" cy="252" r="1.1"/><circle cx="756" cy="276" r="1.1"/><circle cx="756" cy="300" r="1.1"/><circle cx="756" cy="324" r="1.1"/><circle cx="756" cy="348" r="1.1"/><circle cx="756" cy="372" r="1.1"/><circle cx="756" cy="396" r="1.1"/><circle cx="756" cy="420" r="1.1"/><circle cx="780" cy="12" r="1.1"/><circle cx="780" cy="36" r="1.1"/><circle cx="780" cy="60" r="1.1"/><circle cx="780" cy="84" r="1.1"/><circle cx="780" cy="108" r="1.1"/><circle cx="780" cy="132" r="1.1"/><circle cx="780" cy="156" r="1.1"/><circle cx="780" cy="180" r="1.1"/><circle cx="780" cy="204" r="1.1"/><circle cx="780" cy="228" r="1.1"/><circle cx="780" cy="252" r="1.1"/><circle cx="780" cy="276" r="1.1"/><circle cx="780" cy="300" r="1.1"/><circle cx="780" cy="324" r="1.1"/><circle cx="780" cy="348" r="1.1"/><circle cx="780" cy="372" r="1.1"/><circle cx="780" cy="396" r="1.1"/><circle cx="780" cy="420" r="1.1"/><circle cx="804" cy="12" r="1.1"/><circle cx="804" cy="36" r="1.1"/><circle cx="804" cy="60" r="1.1"/><circle cx="804" cy="84" r="1.1"/><circle cx="804" cy="108" r="1.1"/><circle cx="804" cy="132" r="1.1"/><circle cx="804" cy="156" r="1.1"/><circle cx="804" cy="180" r="1.1"/><circle cx="804" cy="204" r="1.1"/><circle cx="804" cy="228" r="1.1"/><circle cx="804" cy="252" r="1.1"/><circle cx="804" cy="276" r="1.1"/><circle cx="804" cy="300" r="1.1"/><circle cx="804" cy="324" r="1.1"/><circle cx="804" cy="348" r="1.1"/><circle cx="804" cy="372" r="1.1"/><circle cx="804" cy="396" r="1.1"/><circle cx="804" cy="420" r="1.1"/><circle cx="828" cy="12" r="1.1"/><circle cx="828" cy="36" r="1.1"/><circle cx="828" cy="60" r="1.1"/><circle cx="828" cy="84" r="1.1"/><circle cx="828" cy="108" r="1.1"/><circle cx="828" cy="132" r="1.1"/><circle cx="828" cy="156" r="1.1"/><circle cx="828" cy="180" r="1.1"/><circle cx="828" cy="204" r="1.1"/><circle cx="828" cy="228" r="1.1"/><circle cx="828" cy="252" r="1.1"/><circle cx="828" cy="276" r="1.1"/><circle cx="828" cy="300" r="1.1"/><circle cx="828" cy="324" r="1.1"/><circle cx="828" cy="348" r="1.1"/><circle cx="828" cy="372" r="1.1"/><circle cx="828" cy="396" r="1.1"/><circle cx="828" cy="420" r="1.1"/><circle cx="852" cy="12" r="1.1"/><circle cx="852" cy="36" r="1.1"/><circle cx="852" cy="60" r="1.1"/><circle cx="852" cy="84" r="1.1"/><circle cx="852" cy="108" r="1.1"/><circle cx="852" cy="132" r="1.1"/><circle cx="852" cy="156" r="1.1"/><circle cx="852" cy="180" r="1.1"/><circle cx="852" cy="204" r="1.1"/><circle cx="852" cy="228" r="1.1"/><circle cx="852" cy="252" r="1.1"/><circle cx="852" cy="276" r="1.1"/><circle cx="852" cy="300" r="1.1"/><circle cx="852" cy="324" r="1.1"/><circle cx="852" cy="348" r="1.1"/><circle cx="852" cy="372" r="1.1"/><circle cx="852" cy="396" r="1.1"/><circle cx="852" cy="420" r="1.1"/><circle cx="876" cy="12" r="1.1"/><circle cx="876" cy="36" r="1.1"/><circle cx="876" cy="60" r="1.1"/><circle cx="876" cy="84" r="1.1"/><circle cx="876" cy="108" r="1.1"/><circle cx="876" cy="132" r="1.1"/><circle cx="876" cy="156" r="1.1"/><circle cx="876" cy="180" r="1.1"/><circle cx="876" cy="204" r="1.1"/><circle cx="876" cy="228" r="1.1"/><circle cx="876" cy="252" r="1.1"/><circle cx="876" cy="276" r="1.1"/><circle cx="876" cy="300" r="1.1"/><circle cx="876" cy="324" r="1.1"/><circle cx="876" cy="348" r="1.1"/><circle cx="876" cy="372" r="1.1"/><circle cx="876" cy="396" r="1.1"/><circle cx="876" cy="420" r="1.1"/><circle cx="900" cy="12" r="1.1"/><circle cx="900" cy="36" r="1.1"/><circle cx="900" cy="60" r="1.1"/><circle cx="900" cy="84" r="1.1"/><circle cx="900" cy="108" r="1.1"/><circle cx="900" cy="132" r="1.1"/><circle cx="900" cy="156" r="1.1"/><circle cx="900" cy="180" r="1.1"/><circle cx="900" cy="204" r="1.1"/><circle cx="900" cy="228" r="1.1"/><circle cx="900" cy="252" r="1.1"/><circle cx="900" cy="276" r="1.1"/><circle cx="900" cy="300" r="1.1"/><circle cx="900" cy="324" r="1.1"/><circle cx="900" cy="348" r="1.1"/><circle cx="900" cy="372" r="1.1"/><circle cx="900" cy="396" r="1.1"/><circle cx="900" cy="420" r="1.1"/><circle cx="924" cy="12" r="1.1"/><circle cx="924" cy="36" r="1.1"/><circle cx="924" cy="60" r="1.1"/><circle cx="924" cy="84" r="1.1"/><circle cx="924" cy="108" r="1.1"/><circle cx="924" cy="132" r="1.1"/><circle cx="924" cy="156" r="1.1"/><circle cx="924" cy="180" r="1.1"/><circle cx="924" cy="204" r="1.1"/><circle cx="924" cy="228" r="1.1"/><circle cx="924" cy="252" r="1.1"/><circle cx="924" cy="276" r="1.1"/><circle cx="924" cy="300" r="1.1"/><circle cx="924" cy="324" r="1.1"/><circle cx="924" cy="348" r="1.1"/><circle cx="924" cy="372" r="1.1"/><circle cx="924" cy="396" r="1.1"/><circle cx="924" cy="420" r="1.1"/><circle cx="948" cy="12" r="1.1"/><circle cx="948" cy="36" r="1.1"/><circle cx="948" cy="60" r="1.1"/><circle cx="948" cy="84" r="1.1"/><circle cx="948" cy="108" r="1.1"/><circle cx="948" cy="132" r="1.1"/><circle cx="948" cy="156" r="1.1"/><circle cx="948" cy="180" r="1.1"/><circle cx="948" cy="204" r="1.1"/><circle cx="948" cy="228" r="1.1"/><circle cx="948" cy="252" r="1.1"/><circle cx="948" cy="276" r="1.1"/><circle cx="948" cy="300" r="1.1"/><circle cx="948" cy="324" r="1.1"/><circle cx="948" cy="348" r="1.1"/><circle cx="948" cy="372" r="1.1"/><circle cx="948" cy="396" r="1.1"/><circle cx="948" cy="420" r="1.1"/><circle cx="972" cy="12" r="1.1"/><circle cx="972" cy="36" r="1.1"/><circle cx="972" cy="60" r="1.1"/><circle cx="972" cy="84" r="1.1"/><circle cx="972" cy="108" r="1.1"/><circle cx="972" cy="132" r="1.1"/><circle cx="972" cy="156" r="1.1"/><circle cx="972" cy="180" r="1.1"/><circle cx="972" cy="204" r="1.1"/><circle cx="972" cy="228" r="1.1"/><circle cx="972" cy="252" r="1.1"/><circle cx="972" cy="276" r="1.1"/><circle cx="972" cy="300" r="1.1"/><circle cx="972" cy="324" r="1.1"/><circle cx="972" cy="348" r="1.1"/><circle cx="972" cy="372" r="1.1"/><circle cx="972" cy="396" r="1.1"/><circle cx="972" cy="420" r="1.1"/><circle cx="996" cy="12" r="1.1"/><circle cx="996" cy="36" r="1.1"/><circle cx="996" cy="60" r="1.1"/><circle cx="996" cy="84" r="1.1"/><circle cx="996" cy="108" r="1.1"/><circle cx="996" cy="132" r="1.1"/><circle cx="996" cy="156" r="1.1"/><circle cx="996" cy="180" r="1.1"/><circle cx="996" cy="204" r="1.1"/><circle cx="996" cy="228" r="1.1"/><circle cx="996" cy="252" r="1.1"/><circle cx="996" cy="276" r="1.1"/><circle cx="996" cy="300" r="1.1"/><circle cx="996" cy="324" r="1.1"/><circle cx="996" cy="348" r="1.1"/><circle cx="996" cy="372" r="1.1"/><circle cx="996" cy="396" r="1.1"/><circle cx="996" cy="420" r="1.1"/><circle cx="1020" cy="12" r="1.1"/><circle cx="1020" cy="36" r="1.1"/><circle cx="1020" cy="60" r="1.1"/><circle cx="1020" cy="84" r="1.1"/><circle cx="1020" cy="108" r="1.1"/><circle cx="1020" cy="132" r="1.1"/><circle cx="1020" cy="156" r="1.1"/><circle cx="1020" cy="180" r="1.1"/><circle cx="1020" cy="204" r="1.1"/><circle cx="1020" cy="228" r="1.1"/><circle cx="1020" cy="252" r="1.1"/><circle cx="1020" cy="276" r="1.1"/><circle cx="1020" cy="300" r="1.1"/><circle cx="1020" cy="324" r="1.1"/><circle cx="1020" cy="348" r="1.1"/><circle cx="1020" cy="372" r="1.1"/><circle cx="1020" cy="396" r="1.1"/><circle cx="1020" cy="420" r="1.1"/><circle cx="1044" cy="12" r="1.1"/><circle cx="1044" cy="36" r="1.1"/><circle cx="1044" cy="60" r="1.1"/><circle cx="1044" cy="84" r="1.1"/><circle cx="1044" cy="108" r="1.1"/><circle cx="1044" cy="132" r="1.1"/><circle cx="1044" cy="156" r="1.1"/><circle cx="1044" cy="180" r="1.1"/><circle cx="1044" cy="204" r="1.1"/><circle cx="1044" cy="228" r="1.1"/><circle cx="1044" cy="252" r="1.1"/><circle cx="1044" cy="276" r="1.1"/><circle cx="1044" cy="300" r="1.1"/><circle cx="1044" cy="324" r="1.1"/><circle cx="1044" cy="348" r="1.1"/><circle cx="1044" cy="372" r="1.1"/><circle cx="1044" cy="396" r="1.1"/><circle cx="1044" cy="420" r="1.1"/><circle cx="1068" cy="12" r="1.1"/><circle cx="1068" cy="36" r="1.1"/><circle cx="1068" cy="60" r="1.1"/><circle cx="1068" cy="84" r="1.1"/><circle cx="1068" cy="108" r="1.1"/><circle cx="1068" cy="132" r="1.1"/><circle cx="1068" cy="156" r="1.1"/><circle cx="1068" cy="180" r="1.1"/><circle cx="1068" cy="204" r="1.1"/><circle cx="1068" cy="228" r="1.1"/><circle cx="1068" cy="252" r="1.1"/><circle cx="1068" cy="276" r="1.1"/><circle cx="1068" cy="300" r="1.1"/><circle cx="1068" cy="324" r="1.1"/><circle cx="1068" cy="348" r="1.1"/><circle cx="1068" cy="372" r="1.1"/><circle cx="1068" cy="396" r="1.1"/><circle cx="1068" cy="420" r="1.1"/><circle cx="1092" cy="12" r="1.1"/><circle cx="1092" cy="36" r="1.1"/><circle cx="1092" cy="60" r="1.1"/><circle cx="1092" cy="84" r="1.1"/><circle cx="1092" cy="108" r="1.1"/><circle cx="1092" cy="132" r="1.1"/><circle cx="1092" cy="156" r="1.1"/><circle cx="1092" cy="180" r="1.1"/><circle cx="1092" cy="204" r="1.1"/><circle cx="1092" cy="228" r="1.1"/><circle cx="1092" cy="252" r="1.1"/><circle cx="1092" cy="276" r="1.1"/><circle cx="1092" cy="300" r="1.1"/><circle cx="1092" cy="324" r="1.1"/><circle cx="1092" cy="348" r="1.1"/><circle cx="1092" cy="372" r="1.1"/><circle cx="1092" cy="396" r="1.1"/><circle cx="1092" cy="420" r="1.1"/><circle cx="1116" cy="12" r="1.1"/><circle cx="1116" cy="36" r="1.1"/><circle cx="1116" cy="60" r="1.1"/><circle cx="1116" cy="84" r="1.1"/><circle cx="1116" cy="108" r="1.1"/><circle cx="1116" cy="132" r="1.1"/><circle cx="1116" cy="156" r="1.1"/><circle cx="1116" cy="180" r="1.1"/><circle cx="1116" cy="204" r="1.1"/><circle cx="1116" cy="228" r="1.1"/><circle cx="1116" cy="252" r="1.1"/><circle cx="1116" cy="276" r="1.1"/><circle cx="1116" cy="300" r="1.1"/><circle cx="1116" cy="324" r="1.1"/><circle cx="1116" cy="348" r="1.1"/><circle cx="1116" cy="372" r="1.1"/><circle cx="1116" cy="396" r="1.1"/><circle cx="1116" cy="420" r="1.1"/><circle cx="1140" cy="12" r="1.1"/><circle cx="1140" cy="36" r="1.1"/><circle cx="1140" cy="60" r="1.1"/><circle cx="1140" cy="84" r="1.1"/><circle cx="1140" cy="108" r="1.1"/><circle cx="1140" cy="132" r="1.1"/><circle cx="1140" cy="156" r="1.1"/><circle cx="1140" cy="180" r="1.1"/><circle cx="1140" cy="204" r="1.1"/><circle cx="1140" cy="228" r="1.1"/><circle cx="1140" cy="252" r="1.1"/><circle cx="1140" cy="276" r="1.1"/><circle cx="1140" cy="300" r="1.1"/><circle cx="1140" cy="324" r="1.1"/><circle cx="1140" cy="348" r="1.1"/><circle cx="1140" cy="372" r="1.1"/><circle cx="1140" cy="396" r="1.1"/><circle cx="1140" cy="420" r="1.1"/><circle cx="1164" cy="12" r="1.1"/><circle cx="1164" cy="36" r="1.1"/><circle cx="1164" cy="60" r="1.1"/><circle cx="1164" cy="84" r="1.1"/><circle cx="1164" cy="108" r="1.1"/><circle cx="1164" cy="132" r="1.1"/><circle cx="1164" cy="156" r="1.1"/><circle cx="1164" cy="180" r="1.1"/><circle cx="1164" cy="204" r="1.1"/><circle cx="1164" cy="228" r="1.1"/><circle cx="1164" cy="252" r="1.1"/><circle cx="1164" cy="276" r="1.1"/><circle cx="1164" cy="300" r="1.1"/><circle cx="1164" cy="324" r="1.1"/><circle cx="1164" cy="348" r="1.1"/><circle cx="1164" cy="372" r="1.1"/><circle cx="1164" cy="396" r="1.1"/><circle cx="1164" cy="420" r="1.1"/><circle cx="1188" cy="12" r="1.1"/><circle cx="1188" cy="36" r="1.1"/><circle cx="1188" cy="60" r="1.1"/><circle cx="1188" cy="84" r="1.1"/><circle cx="1188" cy="108" r="1.1"/><circle cx="1188" cy="132" r="1.1"/><circle cx="1188" cy="156" r="1.1"/><circle cx="1188" cy="180" r="1.1"/><circle cx="1188" cy="204" r="1.1"/><circle cx="1188" cy="228" r="1.1"/><circle cx="1188" cy="252" r="1.1"/><circle cx="1188" cy="276" r="1.1"/><circle cx="1188" cy="300" r="1.1"/><circle cx="1188" cy="324" r="1.1"/><circle cx="1188" cy="348" r="1.1"/><circle cx="1188" cy="372" r="1.1"/><circle cx="1188" cy="396" r="1.1"/><circle cx="1188" cy="420" r="1.1"/></g>
<g transform="translate(812 332) rotate(10) scale(0.667)">
<rect x="-60" y="-60" width="120" height="120" rx="30" fill="#232327" stroke="#2f2f35" stroke-width="2"/>
<circle cx="0" cy="4" r="32" fill="none" stroke="#f05a5f" stroke-width="5"/>
<circle cx="0" cy="4" r="21" fill="none" stroke="#f05a5f" stroke-width="5"/>
<circle cx="0" cy="4" r="10" fill="none" stroke="#f05a5f" stroke-width="5"/>
<line x1="0" y1="4" x2="30" y2="-30" stroke="#ecebe6" stroke-width="5" stroke-linecap="round"/>
<path d="M22 -34 l12 -2 l-2 12" fill="none" stroke="#ecebe6" stroke-width="5" stroke-linecap="round" stroke-linejoin="round"/>
</g>
<g transform="translate(505 232) rotate(-12) scale(0.8)">
<rect x="-104" y="-122" width="4" height="26" rx="2" fill="#2f2f35"/>
<rect x="-104" y="-88" width="4" height="26" rx="2" fill="#2f2f35"/>
<rect x="100" y="-104" width="4" height="44" rx="2" fill="#2f2f35"/>
<rect x="-100" y="-205" width="200" height="410" rx="32" fill="#2f2f35"/>
<rect x="-91" y="-196" width="182" height="392" rx="24" fill="#232327"/>
<clipPath id="scr17"><rect x="-91" y="-196" width="182" height="392" rx="24"/></clipPath><g clip-path="url(#scr17)">
<rect x="-30" y="-188" width="60" height="18" rx="9" fill="#2f2f35"/>
<rect x="-74" y="-181.5" width="22" height="5" rx="3" fill="#9a9a9f"/>
<path d="M56 -175 v-4 M61 -175 v-6 M66 -175 v-8" stroke="#9a9a9f" stroke-width="2.5" stroke-linecap="round"/>
<path d="M-66 -158 l-7 7 l7 7" fill="none" stroke="#9a9a9f" stroke-width="2.5" stroke-linecap="round" stroke-linejoin="round"/>
<rect x="-26" y="-160" width="52" height="7" rx="3" fill="#c4c4c8"/>
<rect x="-18" y="-147" width="36" height="5" rx="3" fill="#9a9a9f"/>
<rect x="-50" y="-128" width="100" height="16" rx="8" fill="#2f2f35"/>
<rect x="-72" y="-100" width="148" height="222" rx="14" fill="#f1f0ec"/>
<path d="M-72 -76 v-10 a14 14 0 0 1 14 -14 h120 a14 14 0 0 1 14 14 v10 z" fill="#6f95e0"/>
<text x="-60.0" y="-84.0" font-family="'SF Mono','Menlo','Consolas',monospace" font-size="9" font-weight="700" fill="#ffffff" text-anchor="start" letter-spacing=".8">ALIMTALK</text>
<path d="M-22 -58 h44 v8 a6 6 0 0 0 0 12 v8 h-44 v-8 a6 6 0 0 0 0 -12 z" fill="none" stroke="#6f95e0" stroke-width="3" stroke-linejoin="round"/>
<line x1="-4" y1="-54" x2="-4" y2="-34" stroke="#6f95e0" stroke-width="2" stroke-dasharray="3 3"/>
<rect x="-14" y="-20" width="28" height="7" rx="3" fill="#2c2c30"/>
<rect x="-60" y="0" width="118" height="6" rx="3" fill="#2c2c30"/>
<rect x="-60" y="13" width="96" height="6" rx="3" fill="#2c2c30"/>
<rect x="-60" y="26" width="108" height="6" rx="3" fill="#2c2c30"/>
<rect x="-60" y="39" width="70" height="6" rx="3" fill="#2c2c30"/>
<rect x="-60" y="52" width="90" height="6" rx="3" fill="#2c2c30"/>
<rect x="-60" y="92" width="124" height="20" rx="10" fill="none" stroke="#2c2c30" stroke-width="2"/>
<rect x="-91" y="148" width="182" height="48" fill="#1b1b1e"/>
<circle cx="-55" cy="166" r="6" fill="none" stroke="#9a9a9f" stroke-width="2"/>
<rect x="-67" y="178" width="24" height="4" rx="3" fill="#9a9a9f"/>
<circle cx="0" cy="166" r="6" fill="none" stroke="#9a9a9f" stroke-width="2"/>
<rect x="-12" y="178" width="24" height="4" rx="3" fill="#9a9a9f"/>
<circle cx="55" cy="166" r="6" fill="none" stroke="#9a9a9f" stroke-width="2"/>
<rect x="43" y="178" width="24" height="4" rx="3" fill="#9a9a9f"/>
</g></g>
<g transform="translate(688 212) rotate(12) scale(0.8)">
<rect x="-104" y="-122" width="4" height="26" rx="2" fill="#2f2f35"/>
<rect x="-104" y="-88" width="4" height="26" rx="2" fill="#2f2f35"/>
<rect x="100" y="-104" width="4" height="44" rx="2" fill="#2f2f35"/>
<rect x="-100" y="-205" width="200" height="410" rx="32" fill="#2f2f35"/>
<rect x="-91" y="-196" width="182" height="392" rx="24" fill="#232327"/>
<clipPath id="scr51"><rect x="-91" y="-196" width="182" height="392" rx="24"/></clipPath><g clip-path="url(#scr51)">
<rect x="-30" y="-188" width="60" height="18" rx="9" fill="#2f2f35"/>
<rect x="-74" y="-181.5" width="22" height="5" rx="3" fill="#9a9a9f"/>
<path d="M56 -175 v-4 M61 -175 v-6 M66 -175 v-8" stroke="#9a9a9f" stroke-width="2.5" stroke-linecap="round"/>
<path d="M-66 -158 l-7 7 l7 7" fill="none" stroke="#9a9a9f" stroke-width="2.5" stroke-linecap="round" stroke-linejoin="round"/>
<rect x="-26" y="-160" width="52" height="7" rx="3" fill="#c4c4c8"/>
<rect x="-18" y="-147" width="36" height="5" rx="3" fill="#9a9a9f"/>
<rect x="-50" y="-128" width="100" height="16" rx="8" fill="#2f2f35"/>
<rect x="-72" y="-100" width="148" height="228" rx="14" fill="#f1f0ec"/>
<path d="M-72 -76 v-10 a14 14 0 0 1 14 -14 h120 a14 14 0 0 1 14 14 v10 z" fill="#6f95e0"/>
<text x="-60.0" y="-84.0" font-family="'SF Mono','Menlo','Consolas',monospace" font-size="9" font-weight="700" fill="#ffffff" text-anchor="start" letter-spacing=".8">ALIMTALK</text>
<rect x="-60" y="-64" width="118" height="6" rx="3" fill="#2c2c30"/>
<rect x="-60" y="-51" width="100" height="6" rx="3" fill="#2c2c30"/>
<rect x="-60" y="-34" width="84" height="6" rx="3" fill="#6f95e0"/>
<rect x="-60" y="-8" width="110" height="6" rx="3" fill="#2c2c30"/>
<rect x="-60" y="5" width="92" height="6" rx="3" fill="#2c2c30"/>
<rect x="-60" y="18" width="76" height="6" rx="3" fill="#6f95e0"/>
<rect x="-60" y="44" width="116" height="6" rx="3" fill="#2c2c30"/>
<rect x="-60" y="57" width="98" height="6" rx="3" fill="#2c2c30"/>
<rect x="-60" y="70" width="104" height="6" rx="3" fill="#2c2c30"/>
<rect x="-60" y="83" width="60" height="6" rx="3" fill="#2c2c30"/>
<rect x="-91" y="152" width="182" height="44" fill="#6f95e0"/>
<rect x="-28" y="168" width="56" height="6" rx="3" fill="#ffffff"/>
</g></g>
<g transform="translate(790 96) rotate(-8) scale(0.667)">
<rect x="-60" y="-60" width="120" height="120" rx="30" fill="#232327" stroke="#2f2f35" stroke-width="2"/>
<path d="M-34 -2 a28 26 0 1 1 18 24 l-16 8 l4 -14 a28 26 0 0 1 -6 -18 z" fill="#f05a5f"/>
<circle cx="14" cy="16" r="24" fill="#ecebe6"/>
<circle cx="4" cy="16" r="3.5" fill="#1b1b1e"/>
<circle cx="14" cy="16" r="3.5" fill="#1b1b1e"/>
<circle cx="24" cy="16" r="3.5" fill="#1b1b1e"/>
</g>
<g transform="translate(215 104) rotate(-4)">
<rect x="-125.0" y="-46.0" width="250" height="92" rx="22" fill="#232327" stroke="#2f2f35" stroke-width="1.5"/>
<text x="-105.0" y="12.0" font-family="'SF Mono','Menlo','Consolas',monospace" font-size="30" font-weight="800" fill="#6f95e0" text-anchor="start">01</text>
<text x="-47.0" y="-4.0" font-family="'Noto Sans KR','Apple SD Gothic Neo','Malgun Gothic',sans-serif" font-size="15" font-weight="700" fill="#ecebe6" text-anchor="start">#장바구니 리마인드</text>
<text x="-47.0" y="20.0" font-family="'Noto Sans KR','Apple SD Gothic Neo','Malgun Gothic',sans-serif" font-size="12" font-weight="400" fill="#9a9a9f" text-anchor="start">담은 상품 구매 유도</text>
</g>
<g transform="translate(985 150) rotate(3)">
<rect x="-125.0" y="-46.0" width="250" height="92" rx="22" fill="#232327" stroke="#2f2f35" stroke-width="1.5"/>
<text x="-105.0" y="12.0" font-family="'SF Mono','Menlo','Consolas',monospace" font-size="30" font-weight="800" fill="#6f95e0" text-anchor="start">02</text>
<text x="-47.0" y="-4.0" font-family="'Noto Sans KR','Apple SD Gothic Neo','Malgun Gothic',sans-serif" font-size="15" font-weight="700" fill="#ecebe6" text-anchor="start">#결제이탈</text>
<text x="-47.0" y="20.0" font-family="'Noto Sans KR','Apple SD Gothic Neo','Malgun Gothic',sans-serif" font-size="12" font-weight="400" fill="#9a9a9f" text-anchor="start">이탈 고객 결제 재유도</text>
</g>
<g transform="translate(1000 330) rotate(-3)">
<rect x="-125.0" y="-46.0" width="250" height="92" rx="22" fill="#232327" stroke="#2f2f35" stroke-width="1.5"/>
<text x="-105.0" y="12.0" font-family="'SF Mono','Menlo','Consolas',monospace" font-size="30" font-weight="800" fill="#6f95e0" text-anchor="start">03</text>
<text x="-47.0" y="-4.0" font-family="'Noto Sans KR','Apple SD Gothic Neo','Malgun Gothic',sans-serif" font-size="15" font-weight="700" fill="#ecebe6" text-anchor="start">#구매완료</text>
<text x="-47.0" y="20.0" font-family="'Noto Sans KR','Apple SD Gothic Neo','Malgun Gothic',sans-serif" font-size="12" font-weight="400" fill="#9a9a9f" text-anchor="start">구매 안내 메시지</text>
</g>
<g transform="translate(230 318) rotate(3)">
<rect x="-125.0" y="-46.0" width="250" height="92" rx="22" fill="#6f95e0"/>
<text x="-105.0" y="12.0" font-family="'SF Mono','Menlo','Consolas',monospace" font-size="30" font-weight="800" fill="#1b1b1e" text-anchor="start">04</text>
<text x="-47.0" y="-4.0" font-family="'Noto Sans KR','Apple SD Gothic Neo','Malgun Gothic',sans-serif" font-size="15" font-weight="700" fill="#1b1b1e" text-anchor="start">#헤비유저</text>
<text x="-47.0" y="20.0" font-family="'Noto Sans KR','Apple SD Gothic Neo','Malgun Gothic',sans-serif" font-size="12" font-weight="400" fill="#1b1b1e" text-anchor="start">헤비 유저에게 쿠폰</text>
</g>
<path d="M354.8,324.5 C424.8,324.5 398.6,260.0 478.6,200.0" fill="none" stroke="#6f95e0" stroke-width="2.5" stroke-dasharray="6 6" stroke-linecap="round"/>
<circle cx="354.8" cy="324.5" r="5" fill="#6f95e0"/>
<circle cx="478.6" cy="200.0" r="5" fill="#6f95e0"/>
</svg>