<svg xmlns="http://www.w3.org/2000/svg" viewBox="0 0 1200 440" width="1200" height="440">
<rect width="1200" height="440" fill="#1b1b1e"/>
<g fill="#2a2a2f"><circle cx="12" cy="12" r="1.1"/><circle cx="12" cy="36" r="1.1"/><circle cx="12" cy="60" r="1.1"/><circle cx="12" cy="84" r="1.1"/><circle cx="12" cy="108" r="1.1"/><circle cx="12" cy="132" r="1.1"/><circle cx="12" cy="156" r="1.1"/><circle cx="12" cy="180" r="1.1"/><circle cx="12" cy="204" r="1.1"/><circle cx="12" cy="228" r="1.1"/><circle cx="12" cy="252" r="1.1"/><circle cx="12" cy="276" r="1.1"/><circle cx="12" cy="300" r="1.1"/><circle cx="12" cy="324" r="1.1"/><circle cx="12" cy="348" r="1.1"/><circle cx="12" cy="372" r="1.1"/><circle cx="12" cy="396" r="1.1"/><circle cx="12" cy="420" r="1.1"/><circle cx="36" cy="12" r="1.1"/><circle cx="36" cy="36" r="1.1"/><circle cx="36" cy="60" r="1.1"/><circle cx="36" cy="84" r="1.1"/><circle cx="36" cy="108" r="1.1"/><circle cx="36" cy="132" r="1.1"/><circle cx="36" cy="156" r="1.1"/><circle cx="36" cy="180" r="1.1"/><circle cx="36" cy="204" r="1.1"/><circle cx="36" cy="228" r="1.1"/><circle cx="36" cy="252" r="1.1"/><circle cx="36" cy="276" r="1.1"/><circle cx="36" cy="300" r="1.1"/><circle cx="36" cy="324" r="1.1"/><circle cx="36" cy="348" r="1.1"/><circle cx="36" cy="372" r="1.1"/><circle cx="36" cy="396" r="1.1"/><circle cx="36" cy="420" r="1.1"/><circle cx="60" cy="12" r="1.1"/><circle cx="60" cy="36" r="1.1"/><circle cx="60" cy="60" r="1.1"/><circle cx="60" cy="84" r="1.1"/><circle cx="60" cy="108" r="1.1"/><circle cx="60" cy="132" r="1.1"/><circle cx="60" cy="156" r="1.1"/><circle cx="60" cy="180" r="1.1"/><circle cx="60" cy="204" r="1.1"/><circle cx="60" cy="228" r="1.1"/><circle cx="60" cy="252" r="1.1"/><circle cx="60" cy="276" r="1.1"/><circle cx="60" cy="300" r="1.1"/><circle cx="60" cy="324" r="1.1"/><circle cx="60" cy="348" r="1.1"/><circle cx="60" cy="372" r="1.1"/><circle cx="60" cy="396" r="1.1"/><circle cx="60" cy="420" r="1.1"/><circle cx="84" cy="12" r="1.1"/><circle cx="84" cy="36" r="1.1"/><circle cx="84" cy="60" r="1.1"/><circle cx="84" cy="84" r="1.1"/><circle cx="84" cy="108" r="1.1"/><circle cx="84" cy="132" r="1.1"/><circle cx="84" cy="156" r="1.1"/><circle cx="84" cy="180" r="1.1"/><circle cx="84" cy="204" r="1.1"/><circle cx="84" cy="228" r="1.1"/><circle cx="84" cy="252" r="1.1"/><circle cx="84" cy="276" r="1.1"/><circle cx="84" cy="300" r="1.1"/><circle cx="84" cy="324" r="1.1"/><circle cx="84" cy="348" r="1.1"/><circle cx="84" cy="372" r="1.1"/><circle cx="84" cy="396" r="1.1"/><circle cx="84" cy="420" r="1.1"/><circle cx="108" cy="12" r="1.1"/><circle cx="108" cy="36" r="1.1"/><circle cx="108" cy="60" r="1.1"/><circle cx="108" cy="84" r="1.1"/><circle cx="108" cy="108" r="1.1"/><circle cx="108" cy="132" r="1.1"/><circle cx="108" cy="156" r="1.1"/><circle cx="108" cy="180" r="1.1"/><circle cx="108" cy="204" r="1.1"/><circle cx="108" cy="228" r="1.1"/><circle cx="108" cy="252" r="1.1"/><circle cx="108" cy="276" r="1.1"/><circle cx="108" cy="300" r="1.1"/><circle cx="108" cy="324" r="1.1"/><circle cx="108" cy="348" r="1.1"/><circle cx="108" cy="372" r="1.1"/><circle cx="108" cy="396" r="1.1"/><circle cx="108" cy="420" r="1.1"/><circle cx="132" cy="12" r="1.1"/><circle cx="132" cy="36" r="1.1"/><circle cx="132" cy="60" r="1.1"/><circle cx="132" cy="84" r="1.1"/><circle cx="132" cy="108" r="1.1"/><circle cx="132" cy="132" r="1.1"/><circle cx="132" cy="156" r="1.1"/><circle cx="132" cy="180" r="1.1"/><circle cx="132" cy="204" r="1.1"/><circle cx="132" cy="228" r="1.1"/><circle cx="132" cy="252" r="1.1"/><circle cx="132" cy="276" r="1.1"/><circle cx="132" cy="300" r="1.1"/><circle cx="132" cy="324" r="1.1"/><circle cx="132" cy="348" r="1.1"/><circle cx="132" cy="372" r="1.1"/><circle cx="132" cy="396" r="1.1"/><circle cx="132" cy="420" r="1.1"/><circle cx="156" cy="12" r="1.1"/><circle cx="156" cy="36" r="1.1"/><circle cx="156" cy="60" r="1.1"/><circle cx="156" cy="84" r="1.1"/><circle cx="156" cy="108" r="1.1"/><circle cx="156" cy="132" r="1.1"/><circle cx="156" cy="156" r="1.1"/><circle cx="156" cy="180" r="1.1"/><circle cx="156" cy="204" r="1.1"/><circle cx="156" cy="228" r="1.1"/><circle cx="156" cy="252" r="1.1"/><circle cx="156" cy="276" r="1.1"/><circle cx="156" cy="300" r="1.1"/><circle cx="156" cy="324" r="1.1"/><circle cx="156" cy="348" r="1.1"/><circle cx="156" cy="372" r="1.1"/><circle cx="156" cy="396" r="1.1"/><circle cx="156" cy="420" r="1.1"/><circle cx="180" cy="12" r="1.1"/><circle cx="180" cy="36" r="1.1"/><circle cx="180" cy="60" r="1.1"/><circle cx="180" cy="84" r="1.1"/><circle cx="180" cy="108" r="1.1"/><circle cx="180" cy="132" r="1.1"/><circle cx="180" cy="156" r="1.1"/><circle cx="180" cy="180" r="1.1"/><circle cx="180" cy="204" r="1.1"/><circle cx="180" cy="228" r="1.1"/><circle cx="180" cy="252" r="1.1"/><circle cx="180" cy="276" r="1.1"/><circle cx="180" cy="300" r="1.1"/><circle cx="180" cy="324" r="1.1"/><circle cx="180" cy="348" r="1.1"/><circle cx="180" cy="372" r="1.1"/><circle cx="180" cy="396" r="1.1"/><circle cx="180" cy="420" r="1.1"/><circle cx="204" cy="12" r="1.1"/><circle cx="204" cy="36" r="1.1"/><circle cx="204" cy="60" r="1.1"/><circle cx="204" cy="84" r="1.1"/><circle cx="204" cy="108" r="1.1"/><circle cx="204" cy="132" r="1.1"/><circle cx="204" cy="156" r="1.1"/><circle cx="204" cy="180" r="1.1"/><circle cx="204" cy="204" r="1.1"/><circle cx="204" cy="228" r="1.1"/><circle cx="204" cy="252" r="1.1"/><circle cx="204" cy="276" r="1.1"/><circle cx="204" cy="300" r="1.1"/><circle cx="204" cy="324" r="1.1"/><circle cx="204" cy="348" r="1.1"/><circle cx="204" cy="372" r="1.1"/><circle cx="204" cy="396" r="1.1"/><circle cx="204" cy="420" r="1.1"/><circle cx="228" cy="12" r="1.1"/><circle cx="228" cy="36" r="1.1"/><circle cx="228" cy="60" r="1.1"/><circle cx="228" cy="84" r="1.1"/><circle cx="228" cy="108" r="1.1"/><circle cx="228" cy="132" r="1.1"/><circle cx="228" cy="156" r="1.1"/><circle cx="228" cy="180" r="1.1"/><circle cx="228" cy="204" r="1.1"/><circle cx="228" cy="228" r="1.1"/><circle cx="228" cy="252" r="1.1"/><circle cx="228" cy="276" r="1.1"/><circle cx="228" cy="300" r="1.1"/><circle cx="228" cy="324" r="1.1"/><circle cx="228" cy="348" r="1.1"/><circle cx="228" cy="372" r="1.1"/><circle cx="228" cy="396" r="1.1"/><circle cx="228" cy="420" r="1.1"/><circle cx="252" cy="12" r="1.1"/><circle cx="252" cy="36" r="1.1"/><circle cx="252" cy="60" r="1.1"/><circle cx="252" cy="84" r="1.1"/><circle cx="252" cy="108" r="1.1"/><circle cx="252" cy="132" r="1.1"/><circle cx="252" cy="156" r="1.1"/><circle cx="252" cy="180" r="1.1"/><circle cx="252" cy="204" r="1.1"/><circle cx="252" cy="228" r="1.1"/><circle cx="252" cy="252" r="1.1"/><circle cx="252" cy="276" r="1.1"/><circle cx="252" cy="300" r="1.1"/><circle cx="252" cy="324" r="1.1"/><circle cx="252" cy="348" r="1.1"/><circle cx="252" cy="372" r="1.1"/><circle cx="252" cy="396" r="1.1"/><circle cx="252" cy="420" r="1.1"/><circle cx="276" cy="12" r="1.1"/><circle cx="276" cy="36" r="1.1"/><circle cx="276" cy="60" r="1.1"/><circle cx="276" cy="84" r="1.1"/><circle cx="276" cy="108" r="1.1"/><circle cx="276" cy="132" r="1.1"/><circle cx="276" cy="156" r="1.1"/><circle cx="276" cy="180" r="1.1"/><circle cx="276" cy="204" r="1.1"/><circle cx="276" cy="228" r="1.1"/><circle cx="276" cy="252" r="1.1"/><circle cx="276" cy="276" r="1.1"/><circle cx="276" cy="300" r="1.1"/><circle cx="276" cy="324" r="1.1"/><circle cx="276" cy="348" r="1.1"/><circle cx="276" cy="372" r="1.1"/><circle cx="276" cy="396" r="1.1"/><circle cx="276" cy="420" r="1.1"/><circle cx="300" cy="12" r="1.1"/><circle cx="300" cy="36" r="1.1"/><circle cx="300" cy="60" r="1.1"/><circle cx="300" cy="84" r="1.1"/><circle cx="300" cy="108" r="1.1"/><circle cx="300" cy="132" r="1.1"/><circle cx="300" cy="156" r="1.1"/><circle cx="300" cy="180" r="1.1"/><circle cx="300" cy="204" r="1.1"/><circle cx="300" cy="228" r="1.1"/><circle cx="300" cy="252" r="1.1"/><circle cx="300" cy="276" r="1.1"/><circle cx="300" cy="300" r="1.1"/><circle cx="300" cy="324" r="1.1"/><circle cx="300" cy="348" r="1.1"/><circle cx="300" cy="372" r="1.1"/><circle cx="300" cy="396" r="1.1"/><circle cx="300" cy="420" r="1.1"/><circle cx="324" cy="12" r="1.1"/><circle cx="324" cy="36" r="1.1"/><circle cx="324" cy="60" r="1.1"/><circle cx="324" cy="84" r="1.1"/><circle cx="324" cy="108" r="1.1"/><circle cx="324" cy="132" r="1.1"/><circle cx="324" cy="156" r="1.1"/><circle cx="324" cy="180" r="1.1"/><circle cx="324" cy="204" r="1.1"/><circle cx="324" cy="228" r="1.1"/><circle cx="324" cy="252" r="1.1"/><circle cx="324" cy="276" r="1.1"/><circle cx="324" cy="300" r="1.1"/><circle cx="324" cy="324" r="1.1"/><circle cx="324" cy="348" r="1.1"/><circle cx="324" cy="372" r="1.1"/><circle cx="324" cy="396" r="1.1"/><circle cx="324" cy="420" r="1.1"/><circle cx="348" cy="12" r="1.1"/><circle cx="348" cy="36" r="1.1"/><circle cx="348" cy="60" r="1.1"/><circle cx="348" cy="84" r="1.1"/><circle cx="348" cy="108" r="1.1"/><circle cx="348" cy="132" r="1.1"/><circle cx="348" cy="156" r="1.1"/><circle cx="348" cy="180" r="1.1"/><circle cx="348" cy="204" r="1.1"/><circle cx="348" cy="228" r="1.1"/><circle cx="348" cy="252" r="1.1"/><circle cx="348" cy="276" r="1.1"/><circle cx="348" cy="300" r="1.1"/><circle cx="348" cy="324" r="1.1"/><circle cx="348" cy="348" r="1.1"/><circle cx="348" cy="372" r="1.1"/><circle cx="348" cy="396" r="1.1"/><circle cx="348" cy="420" r="1.1"/><circle cx="372" cy="12" r="1.1"/><circle cx="372" cy="36" r="1.1"/><circle cx="372" cy="60" r="1.1"/><circle cx="372" cy="84" r="1.1"/><circle cx="372" cy="108" r="1.1"/><circle cx="372" cy="132" r="1.1"/><circle cx="372" cy="156" r="1.1"/><circle cx="372" cy="180" r="1.1"/><circle cx="372" cy="204" r="1.1"/><circle cx="372" cy="228" r="1.1"/><circle cx="372" cy="252" r="1.1"/><circle cx="372" cy="276" r="1.1"/><circle cx="372" cy="300" r="1.1"/><circle cx="372" cy="324" r="1.1"/><circle cx="372" cy="348" r="1.1"/><circle cx="372" cy="372" r="1.1"/><circle cx="372" cy="396" r="1.1"/><circle cx="372" cy="420" r="1.1"/><circle cx="396" cy="12" r="1.1"/><circle cx="396" cy="36" r="1.1"/><circle cx="396" cy="60" r="1.1"/><circle cx="396" cy="84" r="1.1"/><circle cx="396" cy="108" r="1.1"/><circle cx="396" cy="132" r="1.1"/><circle cx="396" cy="156" r="1.1"/><circle cx="396" cy="180" r="1.1"/><circle cx="396" cy="204" r="1.1"/><circle cx="396" cy="228" r="1.1"/><circle cx="396" cy="252" r="1.1"/><circle cx="396" cy="276" r="1.1"/><circle cx="396" cy="300" r="1.1"/><circle cx="396" cy="324" r="1.1"/><circle cx="396" cy="348" r="1.1"/><circle cx="396" cy="372" r="1.1"/><circle cx="396" cy="396" r="1.1"/><circle cx="396" cy="420" r="1.1"/><circle cx="420" cy="12" r="1.1"/><circle cx="420" cy="36" r="1.1"/><circle cx="420" cy="60" r="1.1"/><circle cx="420" cy="84" r="1.1"/><circle cx="420" cy="108" r="1.1"/><circle cx="420" cy="132" r="1.1"/><circle cx="420" cy="156" r="1.1"/><circle cx="420" cy="180" r="1.1"/><circle cx="420" cy="204" r="1.1"/><circle cx="420" cy="228" r="1.1"/><circle cx="420" cy="252" r="1.1"/><circle cx="420" cy="276" r="1.1"/><circle cx="420" cy="300" r="1.1"/><circle cx="420" cy="324" r="1.1"/><circle cx="420" cy="348" r="1.1"/><circle cx="420" cy="372" r="1.1"/><circle cx="420" cy="396" r="1.1"/><circle cx="420" cy="420" r="1.1"/><circle cx="444" cy="12" r="1.1"/><circle cx="444" cy="36" r="1.1"/><circle cx="444" cy="60" r="1.1"/><circle cx="444" cy="84" r="1.1"/><circle cx="444" cy="108" r="1.1"/><circle cx="444" cy="132" r="1.1"/><circle cx="444" cy="156" r="1.1"/><circle cx="444" cy="180" r="1.1"/><circle cx="444" cy="204" r="1.1"/><circle cx="444" cy="228" r="1.1"/><circle cx="444" cy="252" r="1.1"/><circle cx="444" cy="276" r="1.1"/><circle cx="444" cy="300" r="1.1"/><circle cx="444" cy="324" r="1.1"/><circle cx="444" cy="348" r="1.1"/><circle cx="444" cy="372" r="1.1"/><circle cx="444" cy="396" r="1.1"/><circle cx="444" cy="420" r="1.1"/><circle cx="468" cy="12" r="1.1"/><circle cx="468" cy="36" r="1.1"/><circle cx="468" cy="60" r="1.1"/><circle cx="468" cy="84" r="1.1"/><circle cx="468" cy="108" r="1.1"/><circle cx="468" cy="132" r="1.1"/><circle cx="468" cy="156" r="1.1"/><circle cx="468" cy="180" r="1.1"/><circle cx="468" cy="204" r="1.1"/><circle cx="468" cy="228" r="1.1"/><circle cx="468" cy="252" r="1.1"/><circle cx="468" cy="276" r="1.1"/><circle cx="468" cy="300" r="1.1"/><circle cx="468" cy="324" r="1.1"/><circle cx="468" cy="348" r="1.1"/><circle cx="468" cy="372" r="1.1"/><circle cx="468" cy="396" r="1.1"/><circle cx="468" cy="420" r="1.1"/><circle cx="492" cy="12" r="1.1"/><circle cx="492" cy="36" r="1.1"/><circle cx="492" cy="60" r="1.1"/><circle cx="492" cy="84" r="1.1"/><circle cx="492" cy="108" r="1.1"/><circle cx="492" cy="132" r="1.1"/><circle cx="492" cy="156" r="1.1"/><circle cx="492" cy="180" r="1.1"/><circle cx="492" cy="204" r="1.1"/><circle cx="492" cy="228" r="1.1"/><circle cx="492" cy="252" r="1.1"/><circle cx="492" cy="276" r="1.1"/><circle cx="492" cy="300" r="1.1"/><circle cx="492" cy="324" r="1.1"/><circle cx="492" cy="348" r="1.1"/><circle cx="492" cy="372" r="1.1"/><circle cx="492" cy="396" r="1.1"/><circle cx="492" cy="420" r="1.1"/><circle cx="516" cy="12" r="1.1"/><circle cx="516" cy="36" r="1.1"/><circle cx="516" cy="60" r="1.1"/><circle cx="516" cy="84" r="1.1"/><circle cx="516" cy="108" r="1.1"/><circle cx="516" cy="132" r="1.1"/><circle cx="516" cy="156" r="1.1"/><circle cx="516" cy="180" r="1.1"/><circle cx="516" cy="204" r="1.1"/><circle cx="516" cy="228" r="1.1"/><circle cx="516" cy="252" r="1.1"/><circle cx="516" cy="276" r="1.1"/><circle cx="516" cy="300" r="1.1"/><circle cx="516" cy="324" r="1.1"/><circle cx="516" cy="348" r="1.1"/><circle cx="516" cy="372" r="1.1"/><circle cx="516" cy="396" r="1.1"/><circle cx="516" cy="420" r="1.1"/><circle cx="540" cy="12" r="1.1"/><circle cx="540" cy="36" r="1.1"/><circle cx="540" cy="60" r="1.1"/><circle cx="540" cy="84" r="1.1"/><circle cx="540" cy="108" r="1.1"/><circle cx="540" cy="132" r="1.1"/><circle cx="540" cy="156" r="1.1"/><circle cx="540" cy="180" r="1.1"/><circle cx="540" cy="204" r="1.1"/><circle cx="540" cy="228" r="1.1"/><circle cx="540" cy="252" r="1.1"/><circle cx="540" cy="276" r="1.1"/><circle cx="540" cy="300" r="1.1"/><circle cx="540" cy="324" r="1.1"/><circle cx="540" cy="348" r="1.1"/><circle cx="540" cy="372" r="1.1"/><circle cx="540" cy="396" r="1.1"/><circle cx="540" cy="420" r="1.1"/><circle cx="564" cy="12" r="1.1"/><circle cx="564" cy="36" r="1.1"/><circle cx="564" cy="60" r="1.1"/><circle cx="564" cy="84" r="1.1"/><circle cx="564" cy="108" r="1.1"/><circle cx="564" cy="132" r="1.1"/><circle cx="564" cy="156" r="1.1"/><circle cx="564" cy="180" r="1.1"/><circle cx="564" cy="204" r="1.1"/><circle cx="564" cy="228" r="1.1"/><circle cx="564" cy="252" r="1.1"/><circle cx="564" cy="276" r="1.1"/><circle cx="564" cy="300" r="1.1"/><circle cx="564" cy="324" r="1.1"/><circle cx="564" cy="348" r="1.1"/><circle cx="564" cy="372" r="1.1"/><circle cx="564" cy="396" r="1.1"/><circle cx="564" cy="420" r="1.1"/><circle cx="588" cy="12" r="1.1"/><circle cx="588" cy="36" r="1.1"/><circle cx="588" cy="60" r="1.1"/><circle cx="588" cy="84" r="1.1"/><circle cx="588" cy="108" r="1.1"/><circle cx="588" cy="132" r="1.1"/><circle cx="588" cy="156" r="1.1"/><circle cx="588" cy="180" r="1.1"/><circle cx="588" cy="204" r="1.1"/><circle cx="588" cy="228" r="1.1"/><circle cx="588" cy="252" r="1.1"/><circle cx="588" cy="276" r="1.1"/><circle cx="588" cy="300" r="1.1"/><circle cx="588" cy="324" r="1.1"/><circle cx="588" cy="348" r="1.1"/><circle cx="588" cy="372" r="1.1"/><circle cx="588" cy="396" r="1.1"/><circle cx="588" cy="420" r="1.1"/><circle cx="612" cy="12" r="1.1"/><circle cx="612" cy="36" r="1.1"/><circle cx="612" cy="60" r="1.1"/><circle cx="612" cy="84" r="1.1"/><circle cx="612" cy="108" r="1.1"/><circle cx="612" cy="132" r="1.1"/><circle cx="612" cy="156" r="1.1"/><circle cx="612" cy="180" r="1.1"/><circle cx="612" cy="204" r="1.1"/><circle cx="612" cy="228" r="1.1"/><circle cx="612" cy="252" r="1.1"/><circle cx="612" cy="276" r="1.1"/><circle cx="612" cy="300" r="1.1"/><circle cx="612" cy="324" r="1.1"/><circle cx="612" cy="348" r="1.1"/><circle cx="612" cy="372" r="1.1"/><circle cx="612" cy="396" r="1.1"/><circle cx="612" cy="420" r="1.1"/><circle cx="636" cy="12" r="1.1"/><circle cx="636" cy="36" r="1.1"/><circle cx="636" cy="60" r="1.1"/><circle cx="636" cy="84" r="1.1"/><circle cx="636" cy="108" r="1.1"/><circle cx="636" cy="132" r="1.1"/><circle cx="636" cy="156" r="1.1"/><circle cx="636" cy="180" r="1.1"/><circle cx="636" cy="204" r="1.1"/><circle cx="636" cy="228" r="1.1"/><circle cx="636" cy="252" r="1.1"/><circle cx="636" cy="276" r="1.1"/><circle cx="636" cy="300" r="1.1"/><circle cx="636" cy="324" r="1.1"/><circle cx="636" cy="348" r="1.1"/><circle cx="636" cy="372" r="1.1"/><circle cx="636" cy="396" r="1.1"/><circle cx="636" cy="420" r="1.1"/><circle cx="660" cy="12" r="1.1"/><circle cx="660" cy="36" r="1.1"/><circle cx="660" cy="60" r="1.1"/><circle cx="660" cy="84" r="1.1"/><circle cx="660" cy="108" r="1.1"/><circle cx="660" cy="132" r="1.1"/><circle cx="660" cy="156" r="1.1"/><circle cx="660" cy="180" r="1.1"/><circle cx="660" cy="204" r="1.1"/><circle cx="660" cy="228" r="1.1"/><circle cx="660" cy="252" r="1.1"/><circle cx="660" cy="276" r="1.1"/><circle cx="660" cy="300" r="1.1"/><circle cx="660" cy="324" r="1.1"/><circle cx="660" cy="348" r="1.1"/><circle cx="660" cy="372" r="1.1"/><circle cx="660" cy="396" r="1.1"/><circle cx="660" cy="420" r="1.1"/><circle cx="684" cy="12" r="1.1"/><circle cx="684" cy="36" r="1.1"/><circle cx="684" cy="60" r="1.1"/><circle cx="684" cy="84" r="1.1"/><circle cx="684" cy="108" r="1.1"/><circle cx="684" cy="132" r="1.1"/><circle cx="684" cy="156" r="1.1"/><circle cx="684" cy="180" r="1.1"/><circle cx="684" cy="204" r="1.1"/><circle cx="684" cy="228" r="1.1"/><circle cx="684" cy="252" r="1.1"/><circle cx="684" cy="276" r="1.1"/><circle cx="684" cy="300" r="1.1"/><circle cx="684" cy="324" r="1.1"/><circle cx="684" cy="348" r="1.1"/><circle cx="684" cy="372" r="1.1"/><circle cx="684" cy="396" r="1.1"/><circle cx="684" cy="420" r="1.1"/><circle cx="708" cy="12" r="1.1"/><circle cx="708" cy="36" r="1.1"/><circle cx="708" cy="60" r="1.1"/><circle cx="708" cy="84" r="1.1"/><circle cx="708" cy="108" r="1.1"/><circle cx="708" cy="132" r="1.1"/><circle cx="708" cy="156" r="1.1"/><circle cx="708" cy="180" r="1.1"/><circle cx="708" cy="204" r="1.1"/><circle cx="708" cy="228" r="1.1"/><circle cx="708" cy="252" r="1.1"/><circle cx="708" cy="276" r="1.1"/><circle cx="708" cy="300" r="1.1"/><circle cx="708" cy="324" r="1.1"/><circle cx="708" cy="348" r="1.1"/><circle cx="708" cy="372" r="1.1"/><circle cx="708" cy="396" r="1.1"/><circle cx="708" cy="420" r="1.1"/><circle cx="732" cy="12" r="1.1"/><circle cx="732" cy="36" r="1.1"/><circle cx="732" cy="60" r="1.1"/><circle cx="732" cy="84" r="1.1"/><circle cx="732" cy="108" r="1.1"/><circle cx="732" cy="132" r="1.1"/><circle cx="732" cy="156" r="1.1"/><circle cx="732" cy="180" r="1.1"/><circle cx="732" cy="204" r="1.1"/><circle cx="732" cy="228" r="1.1"/><circle cx="732" cy="252" r="1.1"/><circle cx="732" cy="276" r="1.1"/><circle cx="732" cy="300" r="1.1"/><circle cx="732" cy="324" r="1.1"/><circle cx="732" cy="348" r="1.1"/><circle cx="732" cy="372" r="1.1"/><circle cx="732" cy="396" r="1.1"/><circle cx="732" cy="420" r="1.1"/><circle cx="756" cy="12" r="1.1"/><circle cx="756" cy="36" r="1.1"/><circle cx="756" cy="60" r="1.1"/><circle cx="756" cy="84" r="1.1"/><circle cx="756" cy="108" r="1.1"/><circle cx="756" cy="132" r="1.1"/><circle cx="756" cy="156" r="1.1"/><circle cx="756" cy="180" r="1.1"/><circle cx="756" cy="204" r="1.1"/><circle cx="756" cy="228" r="1.1"/><circle cx="756" cy="252" r="1.1"/><circle cx="756" cy="276" r="1.1"/><circle cx="756" cy="300" r="1.1"/><circle cx="756" cy="324" r="1.1"/><circle cx="756" cy="348" r="1.1"/><circle cx="756" cy="372" r="1.1"/><circle cx="756" cy="396" r="1.1"/><circle cx="756" cy="420" r="1.1"/><circle cx="780" cy="12" r="1.1"/><circle cx="780" cy="36" r="1.1"/><circle cx="780" cy="60" r="1.1"/><circle cx="780" cy="84" r="1.1"/><circle cx="780" cy="108" r="1.1"/><circle cx="780" cy="132" r="1.1"/><circle cx="780" cy="156" r="1.1"/><circle cx="780" cy="180" r="1.1"/><circle cx="780" cy="204" r="1.1"/><circle cx="780" cy="228" r="1.1"/><circle cx="780" cy="252" r="1.1"/><circle cx="780" cy="276" r="1.1"/><circle cx="780" cy="300" r="1.1"/><circle cx="780" cy="324" r="1.1"/><circle cx="780" cy="348" r="1.1"/><circle cx="780" cy="372" r="1.1"/><circle cx="780" cy="396" r="1.1"/><circle cx="780" cy="420" r="1.1"/><circle cx="804" cy="12" r="1.1"/><circle cx="804" cy="36" r="1.1"/><circle cx="804" cy="60" r="1.1"/><circle cx="804" cy="84" r="1.1"/><circle cx="804" cy="108" r="1.1"/><circle cx="804" cy="132" r="1.1"/><circle cx="804" cy="156" r="1.1"/><circle cx="804" cy="180" r="1.1"/><circle cx="804" cy="204" r="1.1"/><circle cx="804" cy="228" r="1.1"/><circle cx="804" cy="252" r="1.1"/><circle cx="804" cy="276" r="1.1"/><circle cx="804" cy="300" r="1.1"/><circle cx="804" cy="324" r="1.1"/><circle cx="804" cy="348" r="1.1"/><circle cx="804" cy="372" r="1.1"/><circle cx="804" cy="396" r="1.1"/><circle cx="804" cy="420" r="1.1"/><circle cx="828" cy="12" r="1.1"/><circle cx="828" cy="36" r="1.1"/><circle cx="828" cy="60" r="1.1"/><circle cx="828" cy="84" r="1.1"/><circle cx="828" cy="108" r="1.1"/><circle cx="828" cy="132" r="1.1"/><circle cx="828" cy="156" r="1.1"/><circle cx="828" cy="180" r="1.1"/><circle cx="828" cy="204" r="1.1"/><circle cx="828" cy="228" r="1.1"/><circle cx="828" cy="252" r="1.1"/><circle cx="828" cy="276" r="1.1"/><circle cx="828" cy="300" r="1.1"/><circle cx="828" cy="324" r="1.1"/><circle cx="828" cy="348" r="1.1"/><circle cx="828" cy="372" r="1.1"/><circle cx="828" cy="396" r="1.1"/><circle cx="828" cy="420" r="1.1"/><circle cx="852" cy="12" r="1.1"/><circle cx="852" cy="36" r="1.1"/><circle cx="852" cy="60" r="1.1"/><circle cx="852" cy="84" r="1.1"/><circle cx="852" cy="108" r="1.1"/><circle cx="852" cy="132" r="1.1"/><circle cx="852" cy="156" r="1.1"/><circle cx="852" cy="180" r="1.1"/><circle cx="852" cy="204" r="1.1"/><circle cx="852" cy="228" r="1.1"/><circle cx="852" cy="252" r="1.1"/><circle cx="852" cy="276" r="1.1"/><circle cx="852" cy="300" r="1.1"/><circle cx="852" cy="324" r="1.1"/><circle cx="852" cy="348" r="1.1"/><circle cx="852" cy="372" r="1.1"/><circle cx="852" cy="396" r="1.1"/><circle cx="852" cy="420" r="1.1"/><circle cx="876" cy="12" r="1.1"/><circle cx="876" cy="36" r="1.1"/><circle cx="876" cy="60" r="1.1"/><circle cx="876" cy="84" r="1.1"/><circle cx="876" cy="108" r="1.1"/><circle cx="876" cy="132" r="1.1"/><circle cx="876" cy="156" r="1.1"/><circle cx="876" cy="180" r="1.1"/><circle cx="876" cy="204" r="1.1"/><circle cx="876" cy="228" r="1.1"/><circle cx="876" cy="252" r="1.1"/><circle cx="876" cy="276" r="1.1"/><circle cx="876" cy="300" r="1.1"/><circle cx="876" cy="324" r="1.1"/><circle cx="876" cy="348" r="1.1"/><circle cx="876" cy="372" r="1.1"/><circle cx="876" cy="396" r="1.1"/><circle cx="876" cy="420" r="1.1"/><circle cx="900" cy="12" r="1.1"/><circle cx="900" cy="36" r="1.1"/><circle cx="900" cy="60" r="1.1"/><circle cx="900" cy="84" r="1.1"/><circle cx="900" cy="108" r="1.1"/><circle cx="900" cy="132" r="1.1"/><circle cx="900" cy="156" r="1.1"/><circle cx="900" cy="180" r="1.1"/><circle cx="900" cy="204" r="1.1"/><circle cx="900" cy="228" r="1.1"/><circle cx="900" cy="252" r="1.1"/><circle cx="900" cy="276" r="1.1"/><circle cx="900" cy="300" r="1.1"/><circle cx="900" cy="324" r="1.1"/><circle cx="900" cy="348" r="1.1"/><circle cx="900" cy="372" r="1.1"/><circle cx="900" cy="396" r="1.1"/><circle cx="900" cy="420" r="1.1"/><circle cx="924" cy="12" r="1.1"/><circle cx="924" cy="36" r="1.1"/><circle cx="924" cy="60" r="1.1"/><circle cx="924" cy="84" r="1.1"/><circle cx="924" cy="108" r="1.1"/><circle cx="924" cy="132" r="1.1"/><circle cx="924" cy="156" r="1.1"/><circle cx="924" cy="180" r="1.1"/><circle cx="924" cy="204" r="1.1"/><circle cx="924" cy="228" r="1.1"/><circle cx="924" cy="252" r="1.1"/><circle cx="924" cy="276" r="1.1"/><circle cx="924" cy="300" r="1.1"/><circle cx="924" cy="324" r="1.1"/><circle cx="924" cy="348" r="1.1"/><circle cx="924" cy="372" r="1.1"/><circle cx="924" cy="396" r="1.1"/><circle cx="924" cy="420" r="1.1"/><circle cx="948" cy="12" r="1.1"/><circle cx="948" cy="36" r="1.1"/><circle cx="948" cy="60" r="1.1"/><circle cx="948" cy="84" r="1.1"/><circle cx="948" cy="108" r="1.1"/><circle cx="948" cy="132" r="1.1"/><circle cx="948" cy="156" r="1.1"/><circle cx="948" cy="180" r="1.1"/><circle cx="948" cy="204" r="1.1"/><circle cx="948" cy="228" r="1.1"/><circle cx="948" cy="252" r="1.1"/><circle cx="948" cy="276" r="1.1"/><circle cx="948" cy="300" r="1.1"/><circle cx="948" cy="324" r="1.1"/><circle cx="948" cy="348" r="1.1"/><circle cx="948" cy="372" r="1.1"/><circle cx="948" cy="396" r="1.1"/><circle cx="948" cy="420" r="1.1"/><circle cx="972" cy="12" r="1.1"/><circle cx="972" cy="36" r="1.1"/><circle cx="972" cy="60" r="1.1"/><circle cx="972" cy="84" r="1.1"/><circle cx="972" cy="108" r="1.1"/><circle cx="972" cy="132" r="1.1"/><circle cx="972" cy="156" r="1.1"/><circle cx="972" cy="180" r="1.1"/><circle cx="972" cy="204" r="1.1"/><circle cx="972" cy="228" r="1.1"/><circle cx="972" cy="252" r="1.1"/><circle cx="972" cy="276" r="1.1"/><circle cx="972" cy="300" r="1.1"/><circle cx="972" cy="324" r="1.1"/><circle cx="972" cy="348" r="1.1"/><circle cx="972" cy="372" r="1.1"/><circle cx="972" cy="396" r="1.1"/><circle cx="972" cy="420" r="1.1"/><circle cx="996" cy="12" r="1.1"/><circle cx="996" cy="36" r="1.1"/><circle cx="996" cy="60" r="1.1"/><circle cx="996" cy="84" r="1.1"/><circle cx="996" cy="108" r="1.1"/><circle cx="996" cy="132" r="1.1"/><circle cx="996" cy="156" r="1.1"/><circle cx="996" cy="180" r="1.1"/><circle cx="996" cy="204" r="1.1"/><circle cx="996" cy="228" r="1.1"/><circle cx="996" cy="252" r="1.1"/><circle cx="996" cy="276" r="1.1"/><circle cx="996" cy="300" r="1.1"/><circle cx="996" cy="324" r="1.1"/><circle cx="996" cy="348" r="1.1"/><circle cx="996" cy="372" r="1.1"/><circle cx="996" cy="396" r="1.1"/><circle cx="996" cy="420" r="1.1"/><circle cx="1020" cy="12" r="1.1"/><circle cx="1020" cy="36" r="1.1"/><circle cx="1020" cy="60" r="1.1"/><circle cx="1020" cy="84" r="1.1"/><circle cx="1020" cy="108" r="1.1"/><circle cx="1020" cy="132" r="1.1"/><circle cx="1020" cy="156" r="1.1"/><circle cx="1020" cy="180" r="1.1"/><circle cx="1020" cy="204" r="1.1"/><circle cx="1020" cy="228" r="1.1"/><circle cx="1020" cy="252" r="1.1"/><circle cx="1020" cy="276" r="1.1"/><circle cx="1020" cy="300" r="1.1"/><circle cx="1020" cy="324" r="1.1"/><circle cx="1020" cy="348" r="1.1"/><circle cx="1020" cy="372" r="1.1"/><circle cx="1020" cy="396" r="1.1"/><circle cx="1020" cy="420" r="1.1"/><circle cx="1044" cy="12" r="1.1"/><circle cx="1044" cy="36" r="1.1"/><circle cx="1044" cy="60" r="1.1"/><circle cx="1044" cy="84" r="1.1"/><circle cx="1044" cy="108" r="1.1"/><circle cx="1044" cy="132" r="1.1"/><circle cx="1044" cy="156" r="1.1"/><circle cx="1044" cy="180" r="1.1"/><circle cx="1044" cy="204" r="1.1"/><circle cx="1044" cy="228" r="1.1"/><circle cx="1044" cy="252" r="1.1"/><circle cx="1044" cy="276" r="1.1"/><circle cx="1044" cy="300" r="1.1"/><circle cx="1044" cy="324" r="1.1"/><circle cx="1044" cy="348" r="1.1"/><circle cx="1044" cy="372" r="1.1"/><circle cx="1044" cy="396" r="1.1"/><circle cx="1044" cy="420" r="1.1"/><circle cx="1068" cy="12" r="1.1"/><circle cx="1068" cy="36" r="1.1"/><circle cx="1068" cy="60" r="1.1"/><circle cx="1068" cy="84" r="1.1"/><circle cx="1068" cy="108" r="1.1"/><circle cx="1068" cy="132" r="1.1"/><circle cx="1068" cy="156" r="1.1"/><circle cx="1068" cy="180" r="1.1"/><circle cx="1068" cy="204" r="1.1"/><circle cx="1068" cy="228" r="1.1"/><circle cx="1068" cy="252" r="1.1"/><circle cx="1068" cy="276" r="1.1"/><circle cx="1068" cy="300" r="1.1"/><circle cx="1068" cy="324" r="1.1"/><circle cx="1068" cy="348" r="1.1"/><circle cx="1068" cy="372" r="1.1"/><circle cx="1068" cy="396" r="1.1"/><circle cx="1068" cy="420" r="1.1"/><circle cx="1092" cy="12" r="1.1"/><circle cx="1092" cy="36" r="1.1"/><circle cx="1092" cy="60" r="1.1"/><circle cx="1092" cy="84" r="1.1"/><circle cx="1092" cy="108" r="1.1"/><circle cx="1092" cy="132" r="1.1"/><circle cx="1092" cy="156" r="1.1"/><circle cx="1092" cy="180" r="1.1"/><circle cx="1092" cy="204" r="1.1"/><circle cx="1092" cy="228" r="1.1"/><circle cx="1092" cy="252" r="1.1"/><circle cx="1092" cy="276" r="1.1"/><circle cx="1092" cy="300" r="1.1"/><circle cx="1092" cy="324" r="1.1"/><circle cx="1092" cy="348" r="1.1"/><circle cx="1092" cy="372" r="1.1"/><circle cx="1092" cy="396" r="1.1"/><circle cx="1092" cy="420" r="1.1"/><circle cx="1116" cy="12" r="1.1"/><circle cx="1116" cy="36" r="1.1"/><circle cx="1116" cy="60" r="1.1"/><circle cx="1116" cy="84" r="1.1"/><circle cx="1116" cy="108" r="1.1"/><circle cx="1116" cy="132" r="1.1"/><circle cx="1116" cy="156" r="1.1"/><circle cx="1116" cy="180" r="1.1"/><circle cx="1116" cy="204" r="1.1"/><circle cx="1116" cy="228" r="1.1"/><circle cx="1116" cy="252" r="1.1"/><circle cx="1116" cy="276" r="1.1"/><circle cx="1116" cy="300" r="1.1"/><circle cx="1116" cy="324" r="1.1"/><circle cx="1116" cy="348" r="1.1"/><circle cx="1116" cy="372" r="1.1"/><circle cx="1116" cy="396" r="1.1"/><circle cx="1116" cy="420" r="1.1"/><circle cx="1140" cy="12" r="1.1"/><circle cx="1140" cy="36" r="1.1"/><circle cx="1140" cy="60" r="1.1"/><circle cx="1140" cy="84" r="1.1"/><circle cx="1140" cy="108" r="1.1"/><circle cx="1140" cy="132" r="1.1"/><circle cx="1140" cy="156" r="1.1"/><circle cx="1140" cy="180" r="1.1"/><circle cx="1140" cy="204" r="1.1"/><circle cx="1140" cy="228" r="1.1"/><circle cx="1140" cy="252" r="1.1"/><circle cx="1140" cy="276" r="1.1"/><circle cx="1140" cy="300" r="1.1"/><circle cx="1140" cy="324" r="1.1"/><circle cx="1140" cy="348" r="1.1"/><circle cx="1140" cy="372" r="1.1"/><circle cx="1140" cy="396" r="1.1"/><circle cx="1140" cy="420" r="1.1"/><circle cx="1164" cy="12" r="1.1"/><circle cx="1164" cy="36" r="1.1"/><circle cx="1164" cy="60" r="1.1"/><circle cx="1164" cy="84" r="1.1"/><circle cx="1164" cy="108" r="1.1"/><circle cx="1164" cy="132" r="1.1"/><circle cx="1164" cy="156" r="1.1"/><circle cx="1164" cy="180" r="1.1"/><circle cx="1164" cy="204" r="1.1"/><circle cx="1164" cy="228" r="1.1"/><circle cx="1164" cy="252" r="1.1"/><circle cx="1164" cy="276" r="1.1"/><circle cx="1164" cy="300" r="1.1"/><circle cx="1164" cy="324" r="1.1"/><circle cx="1164" cy="348" r="1.1"/><circle cx="1164" cy="372" r="1.1"/><circle cx="1164" cy="396" r="1.1"/><circle cx="1164" cy="420" r="1.1"/><circle cx="1188" cy="12" r="1.1"/><circle cx="1188" cy="36" r="1.1"/><circle cx="1188" cy="60" r="1.1"/><circle cx="1188" cy="84" r="1.1"/><circle cx="1188" cy="108" r="1.1"/><circle cx="1188" cy="132" r="1.1"/><circle cx="1188" cy="156" r="1.1"/><circle cx="1188" cy="180" r="1.1"/><circle cx="1188" cy="204" r="1.1"/><circle cx="1188" cy="228" r="1.1"/><circle cx="1188" cy="252" r="1.1"/><circle cx="1188" cy="276" r="1.1"/><circle cx="1188" cy="300" r="1.1"/><circle cx="1188" cy="324" r="1.1"/><circle cx="1188" cy="348" r="1.1"/><circle cx="1188" cy="372" r="1.1"/><circle cx="1188" cy="396" r="1.1"/><circle cx="1188" cy="420" r="1.1"/></g>
<rect x="60.0" y="24" width="80.2" height="26" rx="13" fill="#2a2a2f"/>
<text x="100.1" y="41.5" font-family="'SF Mono','Menlo','Consolas',monospace" font-size="12" font-weight="700" fill="#ecebe6" text-anchor="middle" letter-spacing="1">WEBSITE</text>
<rect x="60" y="62" width="400" height="350" rx="16" fill="#232327" stroke="#2f2f35" stroke-width="2"/>
<circle cx="80" cy="82" r="5" fill="#f05a5f"/>
<circle cx="96" cy="82" r="5" fill="#b9a3dc"/>
<circle cx="112" cy="82" r="5" fill="#9a9a9f"/>
<rect x="136" y="72" width="128.0" height="20" rx="8" fill="#f1f0ec"/>
<rect x="148.0" y="79.0" width="72.0" height="6" rx="3.0" fill="#9a9a9f"/>
<rect x="74" y="102" width="372" height="26" rx="13" fill="#2a2a2f"/>
<path d="M88 114 v-3 a4 4 0 0 1 8 0 v3 M86 114 h12 v8 h-12 z" fill="none" stroke="#9a9a9f" stroke-width="2" stroke-linejoin="round"/>
<text x="106.0" y="119.0" font-family="'SF Mono','Menlo','Consolas',monospace" font-size="12" font-weight="400" fill="#9a9a9f" text-anchor="start">https://</text>
<rect x="172.0" y="112.0" width="120.0" height="6" rx="3.0" fill="#9a9a9f"/>
<rect x="70" y="138" width="380" height="264" fill="#f1f0ec"/>
<rect x="84" y="150" width="46" height="12" rx="6" fill="#6f95e0"/>
<rect x="340.0" y="153.0" width="24.0" height="6" rx="3.0" fill="#2c2c30"/>
<rect x="374.0" y="153.0" width="24.0" height="6" rx="3.0" fill="#d9d8d2"/>
<rect x="408.0" y="153.0" width="24.0" height="6" rx="3.0" fill="#d9d8d2"/>
<rect x="84" y="172" width="352" height="63.4" rx="10" fill="#6f95e0"/>
<rect x="100.0" y="191.0" width="129.2" height="8" rx="4.0" fill="#f1f0ec"/>
<rect x="100.0" y="205.0" width="83.6" height="8" rx="4.0" fill="#f1f0ec"/>
<circle cx="390.0" cy="203.7" r="19.0" fill="#f1f0ec" opacity=".35"/>
<rect x="84.0" y="247.4" width="110.7" height="36.3" rx="8" fill="#d9d8d2"/>
<path transform="translate(139.3 266.5) scale(0.76)" d="M-14 -12 l8 -4 q6 5 12 0 l8 4 l6 9 l-7 4 l-3 -4 v19 h-20 v-19 l-3 4 l-7 -4 z" fill="#6f95e0" stroke="#6f95e0" stroke-width="2" stroke-linejoin="round"/>
<rect x="84.0" y="290.7" width="77.5" height="5" rx="2.5" fill="#9a9a9f"/>
<rect x="84.0" y="300.7" width="42.1" height="6" rx="3.0" fill="#2c2c30"/>
<rect x="204.7" y="247.4" width="110.7" height="36.3" rx="8" fill="#d9d8d2"/>
<path transform="translate(260.0 266.5) scale(0.76)" d="M-13 -6 h26 l3 22 h-32 z M-6 -6 v-5 a6 6 0 0 1 12 0 v5" fill="#f05a5f" stroke="#f05a5f" stroke-width="2" stroke-linejoin="round"/>
<rect x="204.7" y="290.7" width="77.5" height="5" rx="2.5" fill="#9a9a9f"/>
<rect x="204.7" y="300.7" width="42.1" height="6" rx="3.0" fill="#2c2c30"/>
<rect x="325.3" y="247.4" width="110.7" height="36.3" rx="8" fill="#d9d8d2"/>
<path transform="translate(380.7 266.5) scale(0.76)" d="M-11 -12 h22 l-3 26 h-16 z M11 -6 h4 a5 5 0 0 1 0 10 h-5" fill="#b9a3dc" stroke="#b9a3dc" stroke-width="2" stroke-linejoin="round"/>
<rect x="325.3" y="290.7" width="77.5" height="5" rx="2.5" fill="#9a9a9f"/>
<rect x="325.3" y="300.7" width="42.1" height="6" rx="3.0" fill="#2c2c30"/>
<rect x="84.0" y="323.7" width="110.7" height="36.3" rx="8" fill="#d9d8d2"/>
<path transform="translate(139.3 342.8) scale(0.76)" d="M-13 -6 h26 l3 22 h-32 z M-6 -6 v-5 a6 6 0 0 1 12 0 v5" fill="#9a9a9f" stroke="#9a9a9f" stroke-width="2" stroke-linejoin="round"/>
<rect x="84.0" y="367.0" width="77.5" height="5" rx="2.5" fill="#9a9a9f"/>
<rect x="84.0" y="377.0" width="42.1" height="6" rx="3.0" fill="#2c2c30"/>
<rect x="204.7" y="323.7" width="110.7" height="36.3" rx="8" fill="#d9d8d2"/>
<path transform="translate(260.0 342.8) scale(0.76)" d="M-14 -12 l8 -4 q6 5 12 0 l8 4 l6 9 l-7 4 l-3 -4 v19 h-20 v-19 l-3 4 l-7 -4 z" fill="#f05a5f" stroke="#f05a5f" stroke-width="2" stroke-linejoin="round"/>
<rect x="204.7" y="367.0" width="77.5" height="5" rx="2.5" fill="#9a9a9f"/>
<rect x="204.7" y="377.0" width="42.1" height="6" rx="3.0" fill="#2c2c30"/>
<rect x="325.3" y="323.7" width="110.7" height="36.3" rx="8" fill="#d9d8d2"/>
<path transform="translate(380.7 342.8) scale(0.76)" d="M-11 -12 h22 l-3 26 h-16 z M11 -6 h4 a5 5 0 0 1 0 10 h-5" fill="#6f95e0" stroke="#6f95e0" stroke-width="2" stroke-linejoin="round"/>
<rect x="325.3" y="367.0" width="77.5" height="5" rx="2.5" fill="#9a9a9f"/>
<rect x="325.3" y="377.0" width="42.1" height="6" rx="3.0" fill="#2c2c30"/>
<path d="M478 236 H530" stroke="#9a9a9f" stroke-width="3" stroke-dasharray="7 7" stroke-linecap="round"/>
<path d="M520 228 L530 236 L520 244" fill="none" stroke="#9a9a9f" stroke-width="3" stroke-linecap="round" stroke-linejoin="round"/>
<g transform="translate(566 198) rotate(-16)">
<rect x="-23.0" y="-23.0" width="46" height="46" rx="12.0" fill="#b9a3dc" stroke="#1b1b1e" stroke-width="3"/>
<path d="M-10.1 -8.3 h20.2 M0.0 -8.3 v18.4" stroke="#f1f0ec" stroke-width="5.5" stroke-linecap="round"/>
</g>
<g transform="translate(634 198) rotate(16)">
<rect x="-23.0" y="-23.0" width="46" height="46" rx="12.0" fill="#f05a5f" stroke="#1b1b1e" stroke-width="3"/>
<path d="M-10.1 -8.3 h20.2 M0.0 -8.3 v18.4" stroke="#f1f0ec" stroke-width="5.5" stroke-linecap="round"/>
</g>
<g transform="translate(600 186) rotate(0)">
<rect x="-23.0" y="-23.0" width="46" height="46" rx="12.0" fill="#9a9a9f" stroke="#1b1b1e" stroke-width="3"/>
<path d="M-10.1 -8.3 h20.2 M0.0 -8.3 v18.4" stroke="#f1f0ec" stroke-width="5.5" stroke-linecap="round"/>
</g>
<path d="M548 226 l52 -18 l52 18 l-52 18 z" fill="#2a2a2f" stroke="#2f2f35" stroke-width="2" stroke-linejoin="round"/>
<path d="M548 226 v54 l52 18 v-54 z" fill="#232327" stroke="#2f2f35" stroke-width="2" stroke-linejoin="round"/>
<path d="M652 226 v54 l-52 18 v-54 z" fill="#6f95e0" stroke="#2f2f35" stroke-width="2" stroke-linejoin="round"/>
<path d="M614 260 l24 -8 M626 256 v20" stroke="#f1f0ec" stroke-width="5" stroke-linecap="round"/>
<rect x="566.0" y="318" width="63.0" height="26" rx="13" fill="#ecebe6"/>
<text x="597.5" y="335.5" font-family="'SF Mono','Menlo','Consolas',monospace" font-size="12" font-weight="700" fill="#1b1b1e" text-anchor="middle" letter-spacing="1">BUILD</text>
<path d="M670 236 H722" stroke="#9a9a9f" stroke-width="3" stroke-dasharray="7 7" stroke-linecap="round"/>
<path d="M712 228 L722 236 L712 244" fill="none" stroke="#9a9a9f" stroke-width="3" stroke-linecap="round" stroke-linejoin="round"/>
<rect x="740.0" y="24" width="71.6" height="26" rx="13" fill="#6f95e0"/>
<text x="775.8" y="41.5" font-family="'SF Mono','Menlo','Consolas',monospace" font-size="12" font-weight="700" fill="#1b1b1e" text-anchor="middle" letter-spacing="1">PC APP</text>
<rect x="740" y="62" width="400" height="350" rx="16" fill="#232327" stroke="#2f2f35" stroke-width="2"/>
<rect x="754" y="74" width="24" height="24" rx="7" fill="#6f95e0"/>
<path d="M760 82 h12 M766 82 v10" stroke="#f1f0ec" stroke-width="3" stroke-linecap="round"/>
<rect x="788.0" y="82.0" width="96.0" height="8" rx="4.0" fill="#ecebe6"/>
<path transform="translate(1074 86)" d="M-5 0 h10" fill="none" stroke="#9a9a9f" stroke-width="2" stroke-linecap="round"/>
<path transform="translate(1096 86)" d="M-5 -5 h10 v10 h-10 z" fill="none" stroke="#9a9a9f" stroke-width="2" stroke-linecap="round"/>
<path transform="translate(1118 86)" d="M-5 -5 l10 10 M5 -5 l-10 10" fill="none" stroke="#9a9a9f" stroke-width="2" stroke-linecap="round"/>
<rect x="750" y="110" width="380" height="292" fill="#f1f0ec"/>
<rect x="764" y="122" width="46" height="12" rx="6" fill="#6f95e0"/>
<rect x="1020.0" y="125.0" width="24.0" height="6" rx="3.0" fill="#2c2c30"/>
<rect x="1054.0" y="125.0" width="24.0" height="6" rx="3.0" fill="#d9d8d2"/>
<rect x="1088.0" y="125.0" width="24.0" height="6" rx="3.0" fill="#d9d8d2"/>
<rect x="764" y="144" width="352" height="70.1" rx="10" fill="#6f95e0"/>
<rect x="780.0" y="165.0" width="129.2" height="8" rx="4.0" fill="#f1f0ec"/>
<rect x="780.0" y="179.0" width="83.6" height="8" rx="4.0" fill="#f1f0ec"/>
<circle cx="1070.0" cy="179.0" r="21.0" fill="#f1f0ec" opacity=".35"/>
<rect x="764.0" y="226.1" width="110.7" height="47.0" rx="8" fill="#d9d8d2"/>
<path transform="translate(819.3 250.6) scale(0.98)" d="M-14 -12 l8 -4 q6 5 12 0 l8 4 l6 9 l-7 4 l-3 -4 v19 h-20 v-19 l-3 4 l-7 -4 z" fill="#6f95e0" stroke="#6f95e0" stroke-width="2" stroke-linejoin="round"/>
<rect x="764.0" y="280.0" width="77.5" height="5" rx="2.5" fill="#9a9a9f"/>
<rect x="764.0" y="290.0" width="42.1" height="6" rx="3.0" fill="#2c2c30"/>
<rect x="884.7" y="226.1" width="110.7" height="47.0" rx="8" fill="#d9d8d2"/>
<path transform="translate(940.0 250.6) scale(0.98)" d="M-13 -6 h26 l3 22 h-32 z M-6 -6 v-5 a6 6 0 0 1 12 0 v5" fill="#f05a5f" stroke="#f05a5f" stroke-width="2" stroke-linejoin="round"/>
<rect x="884.7" y="280.0" width="77.5" height="5" rx="2.5" fill="#9a9a9f"/>
<rect x="884.7" y="290.0" width="42.1" height="6" rx="3.0" fill="#2c2c30"/>
<rect x="1005.3" y="226.1" width="110.7" height="47.0" rx="8" fill="#d9d8d2"/>
<path transform="translate(1060.7 250.6) scale(0.98)" d="M-11 -12 h22 l-3 26 h-16 z M11 -6 h4 a5 5 0 0 1 0 10 h-5" fill="#b9a3dc" stroke="#b9a3dc" stroke-width="2" stroke-linejoin="round"/>
<rect x="1005.3" y="280.0" width="77.5" height="5" rx="2.5" fill="#9a9a9f"/>
<rect x="1005.3" y="290.0" width="42.1" height="6" rx="3.0" fill="#2c2c30"/>
<rect x="764.0" y="313.0" width="110.7" height="47.0" rx="8" fill="#d9d8d2"/>
<path transform="translate(819.3 337.5) scale(0.98)" d="M-13 -6 h26 l3 22 h-32 z M-6 -6 v-5 a6 6 0 0 1 12 0 v5" fill="#9a9a9f" stroke="#9a9a9f" stroke-width="2" stroke-linejoin="round"/>
<rect x="764.0" y="367.0" width="77.5" height="5" rx="2.5" fill="#9a9a9f"/>
<rect x="764.0" y="377.0" width="42.1" height="6" rx="3.0" fill="#2c2c30"/>
<rect x="884.7" y="313.0" width="110.7" height="47.0" rx="8" fill="#d9d8d2"/>
<path transform="translate(940.0 337.5) scale(0.98)" d="M-14 -12 l8 -4 q6 5 12 0 l8 4 l6 9 l-7 4 l-3 -4 v19 h-20 v-19 l-3 4 l-7 -4 z" fill="#f05a5f" stroke="#f05a5f" stroke-width="2" stroke-linejoin="round"/>
<rect x="884.7" y="367.0" width="77.5" height="5" rx="2.5" fill="#9a9a9f"/>
<rect x="884.7" y="377.0" width="42.1" height="6" rx="3.0" fill="#2c2c30"/>
<rect x="1005.3" y="313.0" width="110.7" height="47.0" rx="8" fill="#d9d8d2"/>
<path transform="translate(1060.7 337.5) scale(0.98)" d="M-11 -12 h22 l-3 26 h-16 z M11 -6 h4 a5 5 0 0 1 0 10 h-5" fill="#6f95e0" stroke="#6f95e0" stroke-width="2" stroke-linejoin="round"/>
<rect x="1005.3" y="367.0" width="77.5" height="5" rx="2.5" fill="#9a9a9f"/>
<rect x="1005.3" y="377.0" width="42.1" height="6" rx="3.0" fill="#2c2c30"/>
<rect x="888" y="344" width="280" height="78" rx="16" fill="#f1f0ec" stroke="#2f2f35" stroke-width="2"/>
<rect x="903.0" y="359.0" width="30" height="30" rx="7.8" fill="#6f95e0" stroke="#1b1b1e" stroke-width="3"/>
<path d="M911.4 368.6 h13.2 M918.0 368.6 v12.0" stroke="#f1f0ec" stroke-width="3.6" stroke-linecap="round"/>
<text x="942.0" y="372.0" font-family="'SF Mono','Menlo','Consolas',monospace" font-size="11" font-weight="700" fill="#6f95e0" text-anchor="start" letter-spacing="1">PUSH</text>
<rect x="942.0" y="380.0" width="123.2" height="7" rx="3.5" fill="#2a2a2f"/>
<rect x="904.0" y="400.0" width="230.0" height="6" rx="3.0" fill="#2a2a2f"/>
<circle cx="1148" cy="364" r="5" fill="#f05a5f"/>
</svg>